<svg xmlns="http://www.w3.org/2000/svg" xmlns:xlink="http://www.w3.org/1999/xlink" width="87" height="84" viewBox="0 0 87 84">
  <defs>
    <filter id="Uni贸n_14" x="0" y="0" width="87" height="84" filterUnits="userSpaceOnUse">
      <feOffset dx="2" dy="2" input="SourceAlpha"/>
      <feGaussianBlur stdDeviation="3" result="blur"/>
      <feFlood flood-opacity="0.161"/>
      <feComposite operator="in" in2="blur"/>
      <feComposite in="SourceGraphic"/>
    </filter>
  </defs>
  <g transform="matrix(1, 0, 0, 1, 0, 0)" filter="url(#Uni贸n_14)">
    <g id="Uni贸n_14-2" data-name="Uni贸n 14" transform="translate(7 7)" fill="#f4a338">
      <path d="M 34.49971389770508 64.39593505859375 L 2.075987815856934 23.72098350524902 L 12.99960231781006 23.72098350524902 L 13.99960231781006 23.72098350524902 L 13.99960231781006 22.72098350524902 L 13.99960231781006 1.000002980232239 L 55.99970245361328 1.000002980232239 L 55.99970245361328 22.72098350524902 L 55.99970245361328 23.72098350524902 L 56.99970245361328 23.72098350524902 L 66.92428588867188 23.72098350524902 L 34.49971389770508 64.39593505859375 Z" stroke="none"/>
      <path d="M 14.99959564208984 2 L 14.99959564208984 24.72098159790039 L 4.151962280273438 24.72098159790039 L 34.49971771240234 62.79166793823242 L 64.84827423095703 24.72098159790039 L 54.99969482421875 24.72098159790039 L 54.99969482421875 2 L 14.99959564208984 2 M 12.99959564208984 0 L 56.99969482421875 0 L 56.99969482421875 22.72098159790039 L 69.00030517578125 22.72098159790039 L 34.49969863891602 66.00020599365234 L 0 22.72098159790039 L 12.99959564208984 22.72098159790039 L 12.99959564208984 0 Z" stroke="none" fill="#fff"/>
    </g>
  </g>
</svg>
