<svg xmlns="http://www.w3.org/2000/svg" width="66" height="66" viewBox="0 0 66 66">
  <g id="Grupo_1045426" data-name="Grupo 1045426" transform="translate(-357 -7575.133)">
    <circle id="Elipse_8631" data-name="Elipse 8631" cx="33" cy="33" r="33" transform="translate(357 7575.133)" fill="#5573c6"/>
    <path id="Trazado_782065" data-name="Trazado 782065" d="M177.537,210.569c5.1-5.1,9.976-10.018,14.891-14.9,1.868-1.854,4.535-1.516,5.561.65a3.069,3.069,0,0,1-.566,3.694q-8.718,8.8-17.515,17.516a3.166,3.166,0,0,1-4.755-.087q-4.229-4.116-8.347-8.346a3.309,3.309,0,1,1,4.667-4.687c2.026,1.964,3.965,4.017,6.064,6.157" transform="translate(207.766 7401.667)" fill="#fff"/>
  </g>
</svg>
