<svg xmlns="http://www.w3.org/2000/svg" xmlns:xlink="http://www.w3.org/1999/xlink" width="190" height="186.688" viewBox="0 0 190 186.688">
  <defs>
    <clipPath id="clip-path">
      <rect id="Rectángulo_391122" data-name="Rectángulo 391122" width="131.345" height="132.748" fill="none"/>
    </clipPath>
    <clipPath id="clip-path-3">
      <rect id="Rectángulo_391087" data-name="Rectángulo 391087" width="28.43" height="20.091" transform="translate(57.621 31.013)" fill="none"/>
    </clipPath>
    <clipPath id="clip-path-4">
      <rect id="Rectángulo_391088" data-name="Rectángulo 391088" width="45.712" height="46.328" transform="translate(41.968 30.584)" fill="none"/>
    </clipPath>
    <clipPath id="clip-path-5">
      <rect id="Rectángulo_391089" data-name="Rectángulo 391089" width="9.507" height="6.894" transform="translate(120.385 27.377)" fill="none"/>
    </clipPath>
    <clipPath id="clip-path-6">
      <rect id="Rectángulo_391090" data-name="Rectángulo 391090" width="3.147" height="4.193" transform="translate(119.661 36.65)" fill="none"/>
    </clipPath>
    <clipPath id="clip-path-7">
      <rect id="Rectángulo_391091" data-name="Rectángulo 391091" width="2.483" height="4.42" transform="translate(119.661 33.251)" fill="none"/>
    </clipPath>
    <clipPath id="clip-path-8">
      <rect id="Rectángulo_391092" data-name="Rectángulo 391092" width="9.507" height="6.894" transform="translate(4.423 65.591)" fill="none"/>
    </clipPath>
    <clipPath id="clip-path-9">
      <rect id="Rectángulo_391093" data-name="Rectángulo 391093" width="3.147" height="4.193" transform="translate(11.507 74.864)" fill="none"/>
    </clipPath>
    <clipPath id="clip-path-10">
      <rect id="Rectángulo_391094" data-name="Rectángulo 391094" width="2.483" height="4.42" transform="translate(12.171 71.464)" fill="none"/>
    </clipPath>
    <clipPath id="clip-path-11">
      <rect id="Rectángulo_391095" data-name="Rectángulo 391095" width="9.507" height="6.894" transform="translate(92.38 3.067)" fill="none"/>
    </clipPath>
    <clipPath id="clip-path-12">
      <rect id="Rectángulo_391096" data-name="Rectángulo 391096" width="3.147" height="4.193" transform="translate(91.656 12.34)" fill="none"/>
    </clipPath>
    <clipPath id="clip-path-13">
      <rect id="Rectángulo_391097" data-name="Rectángulo 391097" width="2.483" height="4.42" transform="translate(91.656 8.94)" fill="none"/>
    </clipPath>
    <clipPath id="clip-path-14">
      <rect id="Rectángulo_391098" data-name="Rectángulo 391098" width="9.507" height="6.894" transform="translate(78.103 88.753)" fill="none"/>
    </clipPath>
    <clipPath id="clip-path-15">
      <rect id="Rectángulo_391099" data-name="Rectángulo 391099" width="3.147" height="4.193" transform="translate(77.379 98.026)" fill="none"/>
    </clipPath>
    <clipPath id="clip-path-16">
      <rect id="Rectángulo_391100" data-name="Rectángulo 391100" width="2.483" height="4.42" transform="translate(77.379 94.626)" fill="none"/>
    </clipPath>
    <clipPath id="clip-path-17">
      <rect id="Rectángulo_391101" data-name="Rectángulo 391101" width="9.507" height="6.894" transform="translate(41.668 87.686)" fill="none"/>
    </clipPath>
    <clipPath id="clip-path-18">
      <rect id="Rectángulo_391102" data-name="Rectángulo 391102" width="3.147" height="4.193" transform="translate(48.752 96.96)" fill="none"/>
    </clipPath>
    <clipPath id="clip-path-19">
      <rect id="Rectángulo_391103" data-name="Rectángulo 391103" width="2.483" height="4.42" transform="translate(49.416 93.56)" fill="none"/>
    </clipPath>
    <clipPath id="clip-path-20">
      <rect id="Rectángulo_391104" data-name="Rectángulo 391104" width="9.507" height="6.894" transform="translate(1.453 24.863)" fill="none"/>
    </clipPath>
    <clipPath id="clip-path-21">
      <rect id="Rectángulo_391105" data-name="Rectángulo 391105" width="3.147" height="4.193" transform="translate(8.537 34.136)" fill="none"/>
    </clipPath>
    <clipPath id="clip-path-22">
      <rect id="Rectángulo_391106" data-name="Rectángulo 391106" width="2.483" height="4.421" transform="translate(9.201 30.736)" fill="none"/>
    </clipPath>
    <clipPath id="clip-path-23">
      <rect id="Rectángulo_391107" data-name="Rectángulo 391107" width="9.507" height="6.894" transform="translate(118.135 67.683)" fill="none"/>
    </clipPath>
    <clipPath id="clip-path-24">
      <rect id="Rectángulo_391108" data-name="Rectángulo 391108" width="3.147" height="4.193" transform="translate(117.411 76.957)" fill="none"/>
    </clipPath>
    <clipPath id="clip-path-25">
      <rect id="Rectángulo_391109" data-name="Rectángulo 391109" width="2.483" height="4.42" transform="translate(117.411 73.557)" fill="none"/>
    </clipPath>
    <clipPath id="clip-path-26">
      <rect id="Rectángulo_391110" data-name="Rectángulo 391110" width="2.607" height="5.518" transform="translate(33.63 12.63)" fill="none"/>
    </clipPath>
    <clipPath id="clip-path-27">
      <rect id="Rectángulo_391111" data-name="Rectángulo 391111" width="2.639" height="9.545" transform="translate(29.475 8.606)" fill="none"/>
    </clipPath>
    <clipPath id="clip-path-28">
      <rect id="Rectángulo_391112" data-name="Rectángulo 391112" width="16.909" height="9.782" transform="translate(29.69 0.001)" fill="none"/>
    </clipPath>
    <clipPath id="clip-path-29">
      <rect id="Rectángulo_391113" data-name="Rectángulo 391113" width="6.345" height="11.291" transform="translate(63.642 5.663)" fill="none"/>
    </clipPath>
    <clipPath id="clip-path-30">
      <rect id="Rectángulo_391114" data-name="Rectángulo 391114" width="119.908" height="88.118" transform="translate(4.99 7.271)" fill="none"/>
    </clipPath>
    <clipPath id="clip-path-31">
      <rect id="Rectángulo_391115" data-name="Rectángulo 391115" width="1.897" height="8.055" transform="translate(54.044 107.461)" fill="none"/>
    </clipPath>
    <clipPath id="clip-path-32">
      <rect id="Rectángulo_391116" data-name="Rectángulo 391116" width="30.619" height="18.458" transform="translate(25.448 110.97)" fill="none"/>
    </clipPath>
    <clipPath id="clip-path-33">
      <rect id="Rectángulo_391117" data-name="Rectángulo 391117" width="30.619" height="17.678" transform="translate(25.448 110.97)" fill="none"/>
    </clipPath>
    <clipPath id="clip-path-34">
      <rect id="Rectángulo_391118" data-name="Rectángulo 391118" width="7.836" height="5.3" transform="translate(48.23 124.126)" fill="none"/>
    </clipPath>
    <clipPath id="clip-path-35">
      <rect id="Rectángulo_391119" data-name="Rectángulo 391119" width="3.267" height="3.6" transform="translate(20.489 124.898)" fill="none"/>
    </clipPath>
    <clipPath id="clip-path-36">
      <rect id="Rectángulo_391120" data-name="Rectángulo 391120" width="5.451" height="2.982" transform="translate(24.085 129.479)" fill="none"/>
    </clipPath>
  </defs>
  <g id="Grupo_1041170" data-name="Grupo 1041170" transform="translate(-285 -12135.893)">
    <g id="Grupo_133717" data-name="Grupo 133717" transform="translate(285 12135.893)">
      <g id="Grupo_133713" data-name="Grupo 133713" transform="translate(0 186.688) rotate(-90)">
        <path id="Sustracción_24" data-name="Sustracción 24" d="M0,190V0A95.7,95.7,0,0,1,19.146,1.93,94.521,94.521,0,0,1,36.978,7.466a95.007,95.007,0,0,1,16.137,8.759,95.682,95.682,0,0,1,14.06,11.6,95.682,95.682,0,0,1,11.6,14.06,95.008,95.008,0,0,1,8.759,16.137A94.521,94.521,0,0,1,93.07,75.854,95.7,95.7,0,0,1,95,95a95.7,95.7,0,0,1-1.93,19.146,94.52,94.52,0,0,1-5.536,17.832,95.007,95.007,0,0,1-8.759,16.137,95.682,95.682,0,0,1-11.6,14.06,95.684,95.684,0,0,1-14.06,11.6,95.011,95.011,0,0,1-16.137,8.759,94.522,94.522,0,0,1-17.832,5.536A95.7,95.7,0,0,1,0,190Z" transform="translate(95 190) rotate(180)" fill="#5573c6"/>
        <path id="Sustracción_25" data-name="Sustracción 25" d="M0,190V0A95.7,95.7,0,0,1,19.146,1.93,94.522,94.522,0,0,1,36.978,7.466a95.008,95.008,0,0,1,16.137,8.759,95.681,95.681,0,0,1,14.06,11.6,95.683,95.683,0,0,1,11.6,14.06,95.007,95.007,0,0,1,8.759,16.137A94.52,94.52,0,0,1,93.07,75.854,95.7,95.7,0,0,1,95,95a95.7,95.7,0,0,1-1.93,19.146,94.519,94.519,0,0,1-5.536,17.832,95,95,0,0,1-8.759,16.137,95.68,95.68,0,0,1-11.6,14.06,95.68,95.68,0,0,1-14.06,11.6,95.009,95.009,0,0,1-16.137,8.759,94.52,94.52,0,0,1-17.832,5.535A95.7,95.7,0,0,1,0,190Z" transform="translate(91.688 0)" fill="#e8e8e8"/>
      </g>
      <path id="Trazado_151972" data-name="Trazado 151972" d="M84.689,0c46.773,0,84.689,38.07,84.689,85.032s-37.917,85.032-84.689,85.032S0,131.994,0,85.032,37.917,0,84.689,0Z" transform="translate(10.33 8.273)" fill="#12263f"/>
      <g id="Grupo_133716" data-name="Grupo 133716" transform="matrix(0.966, -0.259, 0.259, 0.966, 132.619, 143.305)" style="isolation: isolate">
        <g id="Grupo_133714" data-name="Grupo 133714" transform="translate(0 3.576)">
          <path id="Trazado_150984" data-name="Trazado 150984" d="M.057,15.871C.019,15.39,0,14.9,0,14.412A18.351,18.351,0,0,1,6.941,0l.134.167A18.138,18.138,0,0,0,.214,14.412c0,.481.019.966.056,1.442Z" transform="translate(0 0)" fill="#4adbd1"/>
        </g>
        <g id="Grupo_133715" data-name="Grupo 133715" transform="translate(9.005 0)">
          <path id="Trazado_150985" data-name="Trazado 150985" d="M.11,2.331,0,2.147A18.3,18.3,0,0,1,5.395,0l.047.209A18.082,18.082,0,0,0,.11,2.331Z" transform="translate(0 0)" fill="#4adbd1"/>
        </g>
        <path id="Trazado_150986" data-name="Trazado 150986" d="M15.42,0a15.42,15.42,0,1,0,15.42,15.42A15.42,15.42,0,0,0,15.42,0Zm0,26.323a10.9,10.9,0,1,1,10.9-10.9A10.9,10.9,0,0,1,15.42,26.323Z" transform="translate(3.011 2.569)" fill="#4adbd1" style="mix-blend-mode: multiply;isolation: isolate"/>
      </g>
      <path id="Trazado_150987" data-name="Trazado 150987" d="M4.346,0A4.346,4.346,0,1,0,8.693,4.346,4.346,4.346,0,0,0,4.346,0Zm0,7.42A3.073,3.073,0,1,1,7.42,4.346,3.073,3.073,0,0,1,4.346,7.42Z" transform="matrix(0.966, -0.259, 0.259, 0.966, 29.411, 10.82)" fill="#0f0140" style="mix-blend-mode: multiply;isolation: isolate"/>
      <ellipse id="Elipse_5034" data-name="Elipse 5034" cx="3.891" cy="3.891" rx="3.891" ry="3.891" transform="translate(169.498 140.156)" fill="#dad6f7"/>
      <ellipse id="Elipse_5035" data-name="Elipse 5035" cx="11.241" cy="11.241" rx="11.241" ry="11.241" transform="translate(17.31 19.098)" fill="#5573c6"/>
    </g>
    <g id="Grupo_1041169" data-name="Grupo 1041169" transform="translate(317 12166)">
      <g id="Grupo_1041168" data-name="Grupo 1041168" clip-path="url(#clip-path)">
        <g id="Grupo_1041167" data-name="Grupo 1041167">
          <g id="Grupo_1041166" data-name="Grupo 1041166" clip-path="url(#clip-path)">
            <path id="Trazado_841412" data-name="Trazado 841412" d="M87.828,44.3A23.773,23.773,0,1,1,71.1,29.961,23.776,23.776,0,0,1,87.828,44.3" fill="#455a64"/>
            <path id="Trazado_841413" data-name="Trazado 841413" d="M62.907,32.842c-1.087.019-2.483.4-1.473,1.022s1.656.675,1.664,1.477-.516,1.644-.258,2.213.682,1.231,1.1,1.039,1.547-1.456,2.193-1.4,2.847.157,3.166-.563.644-.67,1.171-1.47.5-1.867-.143-1.871-.728.269-1.8.191-1.573-.789-2.621-.6a16.883,16.883,0,0,1-2.99-.039" fill="#4adbd1"/>
            <path id="Trazado_841414" data-name="Trazado 841414" d="M58.863,33.127c-1.233.659-3.83,1.653-5.033,1.319-.6-.17-1.309-.407-2.067-.548a23.828,23.828,0,0,0-9.2,13.889,7.876,7.876,0,0,0,1.074,1.664,4.55,4.55,0,0,0,3.107,1.475c1.195.23.819.9,1.406,1.6a5.178,5.178,0,0,0,1.507,1.489c.67.376-.238,1.087-.5,1.858s-.338,1.2.211,2.763,2.142,2.833,2.616,3.439-.327,1.308-.124,2.576S52,69.287,53.22,71.18s1.944,1.671,1.846.395-.51-2.483.228-3.442,2.237-.7,2.745-2.456.835-1.668,1.646-2.263.449-1.106,1.2-2.46.976-2.629-.138-3.186-1.855-.5-2.812-1.816a12.264,12.264,0,0,0-3.831-3.342c-1.383-.751-3.578.164-4.454-.09s-1.431-1.921-1.374-2.568-.6-.811-1.225-.653-.981-.246-1.155-1.09,1.138-1.906,2.2-1.988,1.636.411,1.847,1.784a2.669,2.669,0,0,0,2.1,2.3c.982.245.368-.776-.327-1.474s-.744-1.332-.22-2.871,1.816-1.423,2.78-2.838,1.148-.351,2.121-.21.827-.384,1.187-1.269,1.6-.122,2.611-.841-1.1-1.841-.966-2.815,1.106-.938.568-2.4.2-1.514.59-2.057-.3-1.069-1.53-.409m-1.438,3.556c-.32.721-.6.582-1.124,1.37a2.968,2.968,0,0,1-1.881,1.292c-.531.063-1.406-.88-1.45-1.464s.8-.758,1.752-.882a5.321,5.321,0,0,0,2.634-1.219c.684-.537.389.185.069.9" fill="#4adbd1"/>
            <path id="Trazado_841415" data-name="Trazado 841415" d="M89.457,51.326l0,.067a1.683,1.683,0,0,0-.942.935c-.541,1.325-.64.746-1.909,1.645s-.785,1.61-.716,2.513-1.4,1.927-2.129,2.249-1.046,2.38-.809,3.38S82,63.523,81.263,64.436a29.838,29.838,0,0,0-1.631,3.173,2.256,2.256,0,0,1-2.219,1.027c-.868-.149-1.674-1.586-2.142-2.833a7.252,7.252,0,0,1-.359-3.984c.271-1.356.175-1.188-.147-3.3a3.375,3.375,0,0,0-2.633-2.953c-.818-.207-2.171.272-2.9-.153s-1.042-1.044-1.516-3.039.509-2.445,1.284-3.522a7.453,7.453,0,0,1,3.653-2.58,4.037,4.037,0,0,1,3.131.4c.834.417,1.226,1.35,1.821,1.414s1.1-.245,1.7-.13.993.405,1.573.306.211-.764.128-1.133-.608-.274-1.305-.279a1.009,1.009,0,0,1-1.118-.659c-.251-.462-.647-.056-.982-.245s-.27.662-.3.992-.285-.251-.285-.251-.287.448-.411.243.161-.705.122-1.216-.778-.39-1.238-.784a1.756,1.756,0,0,0-1.729-.24c-.626.208-.743.057-1.022.611a2.738,2.738,0,0,1-2.075.855c-.432-.073-.127-.953.243-1.729s1.135-.517,1.611-1.3-.174-.9-.614-1.022-.574-.546-.118-1.544,1.068-.724,1.318-.261a1.544,1.544,0,0,0,1.391.7c.588.009.451-.407.437-1.263a1.591,1.591,0,0,1,1.158-1.639,11.3,11.3,0,0,0,2.575-1.32c.5-.468,1.377-.16,1.842.341a5.02,5.02,0,0,0,2.583.871.893.893,0,0,0,.767-.255,23.666,23.666,0,0,1,5.6,13.6" fill="#4adbd1"/>
            <path id="Trazado_841416" data-name="Trazado 841416" d="M85.006,63.026c-.578-.1-.528.094-.867.548s-.835.973-.745,1.447.134,1.06.535.708.262-.769.831-1.026,1.113-1.529.246-1.677" fill="#4adbd1"/>
            <g id="Grupo_1041066" data-name="Grupo 1041066" opacity="0.4" style="mix-blend-mode: soft-light;isolation: isolate">
              <g id="Grupo_1041065" data-name="Grupo 1041065">
                <g id="Grupo_1041064" data-name="Grupo 1041064" clip-path="url(#clip-path-3)">
                  <path id="Trazado_841417" data-name="Trazado 841417" d="M71.945,32.06C56.8,27.689,53.975,38.01,62,44.516s21.78,8.648,23.634,4.359S83.2,35.309,71.945,32.06" fill="#fff"/>
                </g>
              </g>
            </g>
            <g id="Grupo_1041069" data-name="Grupo 1041069" opacity="0.05" style="mix-blend-mode: multiply;isolation: isolate">
              <g id="Grupo_1041068" data-name="Grupo 1041068">
                <g id="Grupo_1041067" data-name="Grupo 1041067" clip-path="url(#clip-path-4)">
                  <path id="Trazado_841418" data-name="Trazado 841418" d="M59.3,65.044c-11.768-9.656-11.4-28.4-1.086-34.46-.436.146-.871.3-1.3.474A23.775,23.775,0,1,0,87.68,62.312C84.355,66.926,71.063,74.695,59.3,65.044"/>
                </g>
              </g>
            </g>
            <path id="Trazado_841419" data-name="Trazado 841419" d="M128.134,27.709a3.483,3.483,0,0,0-3.51.346,10.965,10.965,0,0,0-4.962,8.6,3.478,3.478,0,0,0,1.464,3.217c.235.134,1.511.877,1.749,1.014a3.484,3.484,0,0,0,3.508-.346,10.969,10.969,0,0,0,4.962-8.6,3.486,3.486,0,0,0-1.452-3.211" fill="#4adbd1"/>
            <path id="Trazado_841420" data-name="Trazado 841420" d="M126.382,29.074a10.972,10.972,0,0,0-4.962,8.6c0,3.165,2.222,4.448,4.963,2.865a10.962,10.962,0,0,0,4.962-8.6c0-3.164-2.225-4.447-4.963-2.865" fill="#4adbd1"/>
            <path id="Trazado_841421" data-name="Trazado 841421" d="M129.122,36.1v.361a7.96,7.96,0,0,1-2.74,2.87,2.769,2.769,0,0,1-2.74.291v-.749A4.876,4.876,0,0,1,125.875,35l.72-.414a1.712,1.712,0,0,1,1.747-.134,1.8,1.8,0,0,1,.78,1.644" fill="#4adbd1"/>
            <g id="Grupo_1041072" data-name="Grupo 1041072" opacity="0.4">
              <g id="Grupo_1041071" data-name="Grupo 1041071">
                <g id="Grupo_1041070" data-name="Grupo 1041070" clip-path="url(#clip-path-5)">
                  <path id="Trazado_841422" data-name="Trazado 841422" d="M128.134,27.709l1.759,1.019a3.483,3.483,0,0,0-3.51.346,10.812,10.812,0,0,0-4.238,5.2l-1.759-1.02a10.807,10.807,0,0,1,4.238-5.2,3.485,3.485,0,0,1,3.51-.345" fill="#fff"/>
                </g>
              </g>
            </g>
            <g id="Grupo_1041075" data-name="Grupo 1041075" opacity="0.2">
              <g id="Grupo_1041074" data-name="Grupo 1041074">
                <g id="Grupo_1041073" data-name="Grupo 1041073" clip-path="url(#clip-path-6)">
                  <path id="Trazado_841423" data-name="Trazado 841423" d="M122.808,40.843c-.31-.179-1.466-.852-1.683-.976a3.477,3.477,0,0,1-1.464-3.217l1.759,1.021a3.535,3.535,0,0,0,1.388,3.172"/>
                </g>
              </g>
            </g>
            <g id="Grupo_1041078" data-name="Grupo 1041078" opacity="0.1">
              <g id="Grupo_1041077" data-name="Grupo 1041077">
                <g id="Grupo_1041076" data-name="Grupo 1041076" clip-path="url(#clip-path-7)">
                  <path id="Trazado_841424" data-name="Trazado 841424" d="M120.385,33.251l1.759,1.02a9.209,9.209,0,0,0-.724,3.4h0l-1.759-1.02a9.221,9.221,0,0,1,.724-3.4"/>
                </g>
              </g>
            </g>
            <path id="Trazado_841425" data-name="Trazado 841425" d="M125.759,34.417a.946.946,0,0,1-.477-.124,1.17,1.17,0,0,1-.519-1.077,3.092,3.092,0,0,1,1.418-2.455,1.06,1.06,0,0,1,1.709.988,3.091,3.091,0,0,1-1.416,2.454,1.45,1.45,0,0,1-.715.214" fill="#fff"/>
            <path id="Trazado_841426" data-name="Trazado 841426" d="M128.343,34.452a1.715,1.715,0,0,0-1.747.134l-.72.415a4.875,4.875,0,0,0-2.233,3.869v.748a2.766,2.766,0,0,0,2.74-.29,7.968,7.968,0,0,0,2.74-2.87V36.1a1.8,1.8,0,0,0-.78-1.644" fill="#fff"/>
            <path id="Trazado_841427" data-name="Trazado 841427" d="M102.661,70.485a8.813,8.813,0,0,0,.77-3.65,6.788,6.788,0,0,0,.631-1.237,4.419,4.419,0,0,1-.726.684,3.363,3.363,0,0,0,.556-1.253,5.007,5.007,0,0,1-.8.873.771.771,0,0,0-.923,0,2.992,2.992,0,0,0-1.232,2.781,2.072,2.072,0,0,1-2.6-.257c-.332.949-.172,1.849.391,2.025a.908.908,0,0,1-.573.12c-.014.789.406,1.277,1.014,1.089a1.562,1.562,0,0,1-.571.358.745.745,0,0,0,1.181.489A4.367,4.367,0,0,1,97.9,74.286a2.529,2.529,0,0,0,1.939-.362,7.261,7.261,0,0,0,2.823-3.439" fill="#4adbd1"/>
            <path id="Trazado_841428" data-name="Trazado 841428" d="M6.182,65.922a3.483,3.483,0,0,1,3.51.346,10.965,10.965,0,0,1,4.962,8.6,3.478,3.478,0,0,1-1.464,3.217c-.235.134-1.511.877-1.749,1.014a3.484,3.484,0,0,1-3.508-.346,10.969,10.969,0,0,1-4.962-8.6,3.486,3.486,0,0,1,1.452-3.211" fill="#4adbd1"/>
            <path id="Trazado_841429" data-name="Trazado 841429" d="M7.933,67.288a10.972,10.972,0,0,1,4.962,8.6c0,3.165-2.222,4.448-4.963,2.865a10.962,10.962,0,0,1-4.962-8.6c0-3.164,2.225-4.447,4.963-2.865" fill="#4adbd1"/>
            <path id="Trazado_841430" data-name="Trazado 841430" d="M7.582,71.382c-.609-.351-1.1.022-1.1.834a2.641,2.641,0,0,0,1.1,2.106c.609.351,1.1-.022,1.1-.834a2.641,2.641,0,0,0-1.1-2.106m0,2.424a1.713,1.713,0,0,1-.715-1.367c0-.527.32-.769.715-.541A1.714,1.714,0,0,1,8.3,73.265c0,.527-.321.769-.716.541" fill="#fff"/>
            <path id="Trazado_841431" data-name="Trazado 841431" d="M9.2,71.979c0,.19-.115.277-.258.2a.618.618,0,0,1-.257-.492c0-.19.115-.277.257-.195a.614.614,0,0,1,.258.492" fill="#fff"/>
            <path id="Trazado_841432" data-name="Trazado 841432" d="M9.646,70.664,5.822,68.457c-.269-.156-.488.009-.488.368v5.1a1.17,1.17,0,0,0,.488.932l1.371.791,1.14.658,1.313.759c.269.155.488-.01.488-.369V71.6a1.17,1.17,0,0,0-.488-.932m.013,5.774L6.006,74.329a.393.393,0,0,1-.2-.341V69.082l3.653,2.109a.4.4,0,0,1,.2.341Z" fill="#fff"/>
            <g id="Grupo_1041081" data-name="Grupo 1041081" opacity="0.4">
              <g id="Grupo_1041080" data-name="Grupo 1041080">
                <g id="Grupo_1041079" data-name="Grupo 1041079" clip-path="url(#clip-path-8)">
                  <path id="Trazado_841433" data-name="Trazado 841433" d="M6.182,65.922,4.423,66.941a3.483,3.483,0,0,1,3.51.346,10.812,10.812,0,0,1,4.238,5.2l1.759-1.02a10.807,10.807,0,0,0-4.238-5.2,3.485,3.485,0,0,0-3.51-.345" fill="#fff"/>
                </g>
              </g>
            </g>
            <g id="Grupo_1041084" data-name="Grupo 1041084" opacity="0.2">
              <g id="Grupo_1041083" data-name="Grupo 1041083">
                <g id="Grupo_1041082" data-name="Grupo 1041082" clip-path="url(#clip-path-9)">
                  <path id="Trazado_841434" data-name="Trazado 841434" d="M11.507,79.057c.31-.179,1.466-.852,1.683-.976a3.477,3.477,0,0,0,1.464-3.217L12.9,75.885a3.537,3.537,0,0,1-1.388,3.172"/>
                </g>
              </g>
            </g>
            <g id="Grupo_1041087" data-name="Grupo 1041087" opacity="0.1">
              <g id="Grupo_1041086" data-name="Grupo 1041086">
                <g id="Grupo_1041085" data-name="Grupo 1041085" clip-path="url(#clip-path-10)">
                  <path id="Trazado_841435" data-name="Trazado 841435" d="M13.93,71.464l-1.759,1.02a9.209,9.209,0,0,1,.724,3.4h0l1.759-1.02a9.221,9.221,0,0,0-.724-3.4"/>
                </g>
              </g>
            </g>
            <path id="Trazado_841436" data-name="Trazado 841436" d="M100.128,3.4a3.483,3.483,0,0,0-3.51.346,10.965,10.965,0,0,0-4.962,8.6,3.478,3.478,0,0,0,1.464,3.217c.235.134,1.511.877,1.749,1.014a3.484,3.484,0,0,0,3.508-.346,10.969,10.969,0,0,0,4.962-8.6,3.486,3.486,0,0,0-1.452-3.211" fill="#4adbd1"/>
            <path id="Trazado_841437" data-name="Trazado 841437" d="M98.377,4.764a10.972,10.972,0,0,0-4.962,8.6c0,3.165,2.222,4.448,4.963,2.865a10.962,10.962,0,0,0,4.962-8.6c0-3.164-2.225-4.447-4.963-2.865" fill="#4adbd1"/>
            <g id="Grupo_1041090" data-name="Grupo 1041090" opacity="0.4">
              <g id="Grupo_1041089" data-name="Grupo 1041089">
                <g id="Grupo_1041088" data-name="Grupo 1041088" clip-path="url(#clip-path-11)">
                  <path id="Trazado_841438" data-name="Trazado 841438" d="M100.128,3.4l1.759,1.019a3.483,3.483,0,0,0-3.51.346,10.812,10.812,0,0,0-4.238,5.2L92.38,8.94a10.807,10.807,0,0,1,4.238-5.2,3.485,3.485,0,0,1,3.51-.345" fill="#fff"/>
                </g>
              </g>
            </g>
            <g id="Grupo_1041093" data-name="Grupo 1041093" opacity="0.2">
              <g id="Grupo_1041092" data-name="Grupo 1041092">
                <g id="Grupo_1041091" data-name="Grupo 1041091" clip-path="url(#clip-path-12)">
                  <path id="Trazado_841439" data-name="Trazado 841439" d="M94.8,16.533c-.31-.179-1.466-.852-1.683-.976a3.477,3.477,0,0,1-1.464-3.217l1.759,1.021A3.537,3.537,0,0,0,94.8,16.533"/>
                </g>
              </g>
            </g>
            <g id="Grupo_1041096" data-name="Grupo 1041096" opacity="0.1">
              <g id="Grupo_1041095" data-name="Grupo 1041095">
                <g id="Grupo_1041094" data-name="Grupo 1041094" clip-path="url(#clip-path-13)">
                  <path id="Trazado_841440" data-name="Trazado 841440" d="M92.38,8.94l1.759,1.02a9.209,9.209,0,0,0-.724,3.4h0l-1.759-1.02a9.221,9.221,0,0,1,.724-3.4"/>
                </g>
              </g>
            </g>
            <path id="Trazado_841441" data-name="Trazado 841441" d="M97.587,15.32l1.262-.729V10.376l.881-.509L99.824,8.4l-.975.563v-.8c0-.333.051-.493.292-.632l.683-.395V5.668l-.874.5a2.566,2.566,0,0,0-1.363,2.395V9.693l-.657.379V11.5l.657-.379Z" fill="#fff"/>
            <path id="Trazado_841442" data-name="Trazado 841442" d="M85.851,89.084a3.483,3.483,0,0,0-3.51.346,10.965,10.965,0,0,0-4.962,8.6,3.478,3.478,0,0,0,1.464,3.217c.235.134,1.511.877,1.749,1.014a3.484,3.484,0,0,0,3.508-.346,10.969,10.969,0,0,0,4.962-8.6A3.486,3.486,0,0,0,87.61,90.1" fill="#4adbd1"/>
            <path id="Trazado_841443" data-name="Trazado 841443" d="M84.1,90.45a10.972,10.972,0,0,0-4.962,8.6c0,3.165,2.222,4.448,4.963,2.865a10.962,10.962,0,0,0,4.962-8.6c0-3.164-2.225-4.447-4.963-2.865" fill="#4adbd1"/>
            <g id="Grupo_1041099" data-name="Grupo 1041099" opacity="0.4">
              <g id="Grupo_1041098" data-name="Grupo 1041098">
                <g id="Grupo_1041097" data-name="Grupo 1041097" clip-path="url(#clip-path-14)">
                  <path id="Trazado_841444" data-name="Trazado 841444" d="M85.851,89.084,87.61,90.1a3.483,3.483,0,0,0-3.51.346,10.812,10.812,0,0,0-4.238,5.2L78.1,94.626a10.807,10.807,0,0,1,4.238-5.2,3.485,3.485,0,0,1,3.51-.345" fill="#fff"/>
                </g>
              </g>
            </g>
            <g id="Grupo_1041102" data-name="Grupo 1041102" opacity="0.2">
              <g id="Grupo_1041101" data-name="Grupo 1041101">
                <g id="Grupo_1041100" data-name="Grupo 1041100" clip-path="url(#clip-path-15)">
                  <path id="Trazado_841445" data-name="Trazado 841445" d="M80.525,102.219c-.31-.179-1.466-.852-1.683-.976a3.477,3.477,0,0,1-1.464-3.217l1.759,1.021a3.537,3.537,0,0,0,1.388,3.172"/>
                </g>
              </g>
            </g>
            <g id="Grupo_1041105" data-name="Grupo 1041105" opacity="0.1">
              <g id="Grupo_1041104" data-name="Grupo 1041104">
                <g id="Grupo_1041103" data-name="Grupo 1041103" clip-path="url(#clip-path-16)">
                  <path id="Trazado_841446" data-name="Trazado 841446" d="M78.1,94.626l1.759,1.02a9.209,9.209,0,0,0-.724,3.4h0l-1.759-1.02a9.221,9.221,0,0,1,.724-3.4"/>
                </g>
              </g>
            </g>
            <path id="Trazado_841447" data-name="Trazado 841447" d="M82.947,95.883s.8-1.849.88-2.116a8.162,8.162,0,0,0-.006-1.377c0-.178.732-.672.966-.163a2.649,2.649,0,0,1,.123,1.709L86.693,92.9c.377-.22.533.09.534.334A1.329,1.329,0,0,1,86.94,94s.357-.108.36.37a1.258,1.258,0,0,1-.432.875s.117.088.118.421a1.4,1.4,0,0,1-.5.892,1.019,1.019,0,0,1,.079.421A1.368,1.368,0,0,1,85.914,98l-2.95,1.72Z" fill="#fff"/>
            <path id="Trazado_841448" data-name="Trazado 841448" d="M81.256,101.24l1.285-.75-.019-4.471-1.286.75Z" fill="#fff"/>
            <path id="Trazado_841449" data-name="Trazado 841449" d="M24.351,43.216l.82-.065c1.078-.087,2.365-.513,2.365-2.054A3.621,3.621,0,0,0,25.9,38.259c-.7-.407-1.306-.24-1.537.347a3.661,3.661,0,0,0-1.537-2.122c-.905-.523-1.639-.1-1.639.946,0,1.512,1.279,3.428,2.352,4.768Z" fill="#4adbd1"/>
            <path id="Trazado_841450" data-name="Trazado 841450" d="M43.427,88.018a3.483,3.483,0,0,1,3.51.346,10.965,10.965,0,0,1,4.962,8.6,3.478,3.478,0,0,1-1.464,3.217c-.235.134-1.511.877-1.749,1.014a3.484,3.484,0,0,1-3.508-.346,10.969,10.969,0,0,1-4.962-8.6,3.486,3.486,0,0,1,1.452-3.211" fill="#4adbd1"/>
            <path id="Trazado_841451" data-name="Trazado 841451" d="M45.178,89.383a10.972,10.972,0,0,1,4.962,8.6c0,3.165-2.222,4.448-4.963,2.865a10.962,10.962,0,0,1-4.962-8.6c0-3.164,2.225-4.447,4.963-2.865" fill="#4adbd1"/>
            <g id="Grupo_1041108" data-name="Grupo 1041108" opacity="0.4">
              <g id="Grupo_1041107" data-name="Grupo 1041107">
                <g id="Grupo_1041106" data-name="Grupo 1041106" clip-path="url(#clip-path-17)">
                  <path id="Trazado_841452" data-name="Trazado 841452" d="M43.427,88.018l-1.759,1.019a3.483,3.483,0,0,1,3.51.346,10.812,10.812,0,0,1,4.238,5.2l1.759-1.02a10.807,10.807,0,0,0-4.238-5.2,3.485,3.485,0,0,0-3.51-.345" fill="#fff"/>
                </g>
              </g>
            </g>
            <g id="Grupo_1041111" data-name="Grupo 1041111" opacity="0.2">
              <g id="Grupo_1041110" data-name="Grupo 1041110">
                <g id="Grupo_1041109" data-name="Grupo 1041109" clip-path="url(#clip-path-18)">
                  <path id="Trazado_841453" data-name="Trazado 841453" d="M48.752,101.152c.31-.179,1.466-.852,1.683-.976A3.477,3.477,0,0,0,51.9,96.959L50.14,97.98a3.537,3.537,0,0,1-1.388,3.172"/>
                </g>
              </g>
            </g>
            <g id="Grupo_1041114" data-name="Grupo 1041114" opacity="0.1">
              <g id="Grupo_1041113" data-name="Grupo 1041113">
                <g id="Grupo_1041112" data-name="Grupo 1041112" clip-path="url(#clip-path-19)">
                  <path id="Trazado_841454" data-name="Trazado 841454" d="M51.175,93.56l-1.759,1.02a9.209,9.209,0,0,1,.724,3.4h0L51.9,96.96a9.221,9.221,0,0,0-.724-3.4"/>
                </g>
              </g>
            </g>
            <path id="Trazado_841455" data-name="Trazado 841455" d="M43.615,91.964V96.77c0,.36.143.624.32.59l3.328-.64c.177-.034.1-.357-.168-.72L44.1,91.971c-.269-.364-.488-.367-.488-.007" fill="#fff"/>
            <path id="Trazado_841456" data-name="Trazado 841456" d="M3.211,25.195a3.483,3.483,0,0,1,3.51.346,10.965,10.965,0,0,1,4.962,8.6,3.478,3.478,0,0,1-1.464,3.217c-.235.134-1.511.877-1.749,1.014a3.484,3.484,0,0,1-3.508-.346A10.969,10.969,0,0,1,0,29.426a3.486,3.486,0,0,1,1.452-3.211" fill="#4adbd1"/>
            <path id="Trazado_841457" data-name="Trazado 841457" d="M4.963,26.56a10.972,10.972,0,0,1,4.962,8.6c0,3.165-2.222,4.448-4.963,2.865A10.962,10.962,0,0,1,0,29.425c0-3.164,2.225-4.447,4.963-2.865" fill="#4adbd1"/>
            <g id="Grupo_1041117" data-name="Grupo 1041117" opacity="0.4">
              <g id="Grupo_1041116" data-name="Grupo 1041116">
                <g id="Grupo_1041115" data-name="Grupo 1041115" clip-path="url(#clip-path-20)">
                  <path id="Trazado_841458" data-name="Trazado 841458" d="M3.211,25.195,1.452,26.214a3.483,3.483,0,0,1,3.51.346,10.812,10.812,0,0,1,4.238,5.2l1.759-1.02a10.807,10.807,0,0,0-4.238-5.2,3.485,3.485,0,0,0-3.51-.345" fill="#fff"/>
                </g>
              </g>
            </g>
            <g id="Grupo_1041120" data-name="Grupo 1041120" opacity="0.2">
              <g id="Grupo_1041119" data-name="Grupo 1041119">
                <g id="Grupo_1041118" data-name="Grupo 1041118" clip-path="url(#clip-path-21)">
                  <path id="Trazado_841459" data-name="Trazado 841459" d="M8.537,38.329c.31-.179,1.466-.852,1.683-.976a3.477,3.477,0,0,0,1.464-3.217L9.925,35.157a3.537,3.537,0,0,1-1.388,3.172"/>
                </g>
              </g>
            </g>
            <g id="Grupo_1041123" data-name="Grupo 1041123" opacity="0.1">
              <g id="Grupo_1041122" data-name="Grupo 1041122">
                <g id="Grupo_1041121" data-name="Grupo 1041121" clip-path="url(#clip-path-22)">
                  <path id="Trazado_841460" data-name="Trazado 841460" d="M10.96,30.736,9.2,31.756a9.209,9.209,0,0,1,.724,3.4h0l1.759-1.02a9.221,9.221,0,0,0-.724-3.4"/>
                </g>
              </g>
            </g>
            <path id="Trazado_841461" data-name="Trazado 841461" d="M3.8,28.045v4.93a1.751,1.751,0,0,0-.327-.251c-.374-.216-.677.076-.677.652a1.784,1.784,0,0,0,.678,1.433c.374.216.822,0,.822-.574V29.718l2.172,1.273V34.53a1.784,1.784,0,0,0-.327-.251c-.375-.216-.553.14-.553.716a1.787,1.787,0,0,0,.677,1.434c.374.215.677-.076.677-.651h0V29.869Z" fill="#fff"/>
            <path id="Trazado_841462" data-name="Trazado 841462" d="M125.883,68.015a3.483,3.483,0,0,0-3.51.346,10.965,10.965,0,0,0-4.962,8.6,3.478,3.478,0,0,0,1.464,3.217c.235.134,1.511.877,1.749,1.014a3.484,3.484,0,0,0,3.508-.346,10.969,10.969,0,0,0,4.962-8.6,3.486,3.486,0,0,0-1.452-3.211" fill="#4adbd1"/>
            <path id="Trazado_841463" data-name="Trazado 841463" d="M124.132,69.38a10.972,10.972,0,0,0-4.962,8.6c0,3.165,2.222,4.448,4.963,2.865a10.962,10.962,0,0,0,4.962-8.6c0-3.164-2.225-4.447-4.963-2.865" fill="#4adbd1"/>
            <g id="Grupo_1041126" data-name="Grupo 1041126" opacity="0.4">
              <g id="Grupo_1041125" data-name="Grupo 1041125">
                <g id="Grupo_1041124" data-name="Grupo 1041124" clip-path="url(#clip-path-23)">
                  <path id="Trazado_841464" data-name="Trazado 841464" d="M125.883,68.015l1.759,1.019a3.483,3.483,0,0,0-3.51.346,10.812,10.812,0,0,0-4.238,5.2l-1.759-1.02a10.807,10.807,0,0,1,4.238-5.2,3.485,3.485,0,0,1,3.51-.345" fill="#fff"/>
                </g>
              </g>
            </g>
            <g id="Grupo_1041129" data-name="Grupo 1041129" opacity="0.2">
              <g id="Grupo_1041128" data-name="Grupo 1041128">
                <g id="Grupo_1041127" data-name="Grupo 1041127" clip-path="url(#clip-path-24)">
                  <path id="Trazado_841465" data-name="Trazado 841465" d="M120.558,81.149c-.31-.179-1.466-.852-1.683-.976a3.477,3.477,0,0,1-1.464-3.217l1.759,1.021a3.537,3.537,0,0,0,1.388,3.172"/>
                </g>
              </g>
            </g>
            <g id="Grupo_1041132" data-name="Grupo 1041132" opacity="0.1">
              <g id="Grupo_1041131" data-name="Grupo 1041131">
                <g id="Grupo_1041130" data-name="Grupo 1041130" clip-path="url(#clip-path-25)">
                  <path id="Trazado_841466" data-name="Trazado 841466" d="M118.135,73.557l1.759,1.02a9.209,9.209,0,0,0-.724,3.4h0l-1.759-1.02a9.221,9.221,0,0,1,.724-3.4"/>
                </g>
              </g>
            </g>
            <path id="Trazado_841467" data-name="Trazado 841467" d="M121.651,73.426v6.235c0,.187.131.263.293.169L126.32,77.3a.647.647,0,0,0,.293-.507V70.561c0-.186-.131-.262-.293-.169l-4.376,2.527a.645.645,0,0,0-.293.507m4.393,3.612-3.824,2.207c-.162.094-.293.018-.293-.169V73.692a.645.645,0,0,1,.293-.507l3.824-2.208c.162-.093.293-.017.293.169v5.385a.645.645,0,0,1-.293.507" fill="#fff"/>
            <path id="Trazado_841468" data-name="Trazado 841468" d="M121.928,79.414V77.659l1.392-2.669,1.445,1.587-.312-.768.575-1.055,1.309.9v1.217Z" fill="#fff"/>
            <path id="Trazado_841469" data-name="Trazado 841469" d="M125.242,72.579c.176-.1.319.036.319.307a.842.842,0,0,1-.319.675c-.176.1-.319-.036-.319-.307a.842.842,0,0,1,.319-.675" fill="#fff"/>
            <path id="Trazado_841470" data-name="Trazado 841470" d="M36.237,18.148,35.256,16.3l.789-2.278V12.63L33.63,14.025v1.394l1.038,1.8a.148.148,0,0,0,.071.063h0Z" fill="#4adbd1"/>
            <g id="Grupo_1041135" data-name="Grupo 1041135" opacity="0.2">
              <g id="Grupo_1041134" data-name="Grupo 1041134">
                <g id="Grupo_1041133" data-name="Grupo 1041133" clip-path="url(#clip-path-26)">
                  <path id="Trazado_841471" data-name="Trazado 841471" d="M36.237,18.148,35.256,16.3l.789-2.278V12.63L33.63,14.025v1.394l1.038,1.8a.148.148,0,0,0,.071.063h0Z"/>
                </g>
              </g>
            </g>
            <path id="Trazado_841472" data-name="Trazado 841472" d="M46.622,1.768A1.6,1.6,0,0,0,45.9.513l-.59-.34a1.6,1.6,0,0,0-1.449,0L30.2,8.065a1.6,1.6,0,0,0-.725,1.255v7.064a1.6,1.6,0,0,0,.725,1.255l.589.34a1.6,1.6,0,0,0,1.449,0l2.909-1.68,1.036,1.8a.155.155,0,0,0,.28-.027l1.1-3.162L45.9,10.087a1.6,1.6,0,0,0,.724-1.254Z" fill="#4adbd1"/>
            <g id="Grupo_1041138" data-name="Grupo 1041138" opacity="0.2">
              <g id="Grupo_1041137" data-name="Grupo 1041137">
                <g id="Grupo_1041136" data-name="Grupo 1041136" clip-path="url(#clip-path-27)">
                  <path id="Trazado_841473" data-name="Trazado 841473" d="M29.475,16.384a1.6,1.6,0,0,0,.724,1.254l.59.341a1.617,1.617,0,0,0,1.325.058c-.341.129-.6-.063-.6-.476V10.5a1.481,1.481,0,0,1,.212-.714L29.687,8.606a1.481,1.481,0,0,0-.212.714Z"/>
                </g>
              </g>
            </g>
            <g id="Grupo_1041141" data-name="Grupo 1041141" opacity="0.2">
              <g id="Grupo_1041140" data-name="Grupo 1041140">
                <g id="Grupo_1041139" data-name="Grupo 1041139" clip-path="url(#clip-path-28)">
                  <path id="Trazado_841474" data-name="Trazado 841474" d="M46.6,1.562c-.084-.308-.365-.405-.7-.213L32.237,9.242a1.442,1.442,0,0,0-.51.541L29.69,8.607a1.439,1.439,0,0,1,.51-.54L43.858.173a1.608,1.608,0,0,1,1.449,0L45.9.514a1.6,1.6,0,0,1,.7,1.048" fill="#fff"/>
                </g>
              </g>
            </g>
            <path id="Trazado_841475" data-name="Trazado 841475" d="M35.5,10.61a2.136,2.136,0,0,0-.967,1.674c0,.617.433.866.967.558a2.135,2.135,0,0,0,.967-1.674c0-.616-.433-.866-.967-.558" fill="#fff"/>
            <path id="Trazado_841476" data-name="Trazado 841476" d="M39.068,8.548a2.136,2.136,0,0,0-.967,1.674c0,.617.433.866.967.558a2.136,2.136,0,0,0,.967-1.674c0-.616-.433-.866-.967-.558" fill="#fff"/>
            <path id="Trazado_841477" data-name="Trazado 841477" d="M42.632,6.487a2.135,2.135,0,0,0-.968,1.674c0,.617.433.867.968.558A2.137,2.137,0,0,0,43.6,7.045c0-.616-.433-.866-.966-.558" fill="#fff"/>
            <path id="Trazado_841478" data-name="Trazado 841478" d="M102.6,42.237l6.271-3.621a.517.517,0,0,0,.217-.413V32.559c0-.159-.1-.232-.217-.163l-6.271,3.62a.518.518,0,0,0-.216.414v5.643c0,.16.1.233.216.164" fill="#4adbd1"/>
            <path id="Trazado_841479" data-name="Trazado 841479" d="M102.386,42.073v-.111l2.592-4.3-2.559-1.418c.006-.016.012-.031.019-.046l3.189,1.329c.068.028.154-.022.222-.129l3.185-5a.2.2,0,0,1,.019.021L106.5,36.788l2.592,1.3V38.2a.577.577,0,0,1-.065.255l-2.659-1.443-.377.643c-.149.255-.353.373-.5.29l-.377-.209-2.654,4.507a.2.2,0,0,1-.07-.172" fill="#fff"/>
            <path id="Trazado_841480" data-name="Trazado 841480" d="M31.353,65.307a3.952,3.952,0,0,1,.522.66,5.433,5.433,0,0,1,.4.755,5.305,5.305,0,0,1,.263.762,3.034,3.034,0,0,1,.1.674.232.232,0,0,1-.042.152.067.067,0,0,1-.093.021l-.839-.485a.429.429,0,0,1-.144-.129,1.268,1.268,0,0,1-.112-.2c-.013-.03-.033-.08-.061-.149a1.833,1.833,0,0,0-.118-.234,1.736,1.736,0,0,0-.193-.259,1.136,1.136,0,0,0-.282-.225,1.219,1.219,0,0,0-.233-.107.439.439,0,0,0-.2-.023.2.2,0,0,0-.141.1.459.459,0,0,0-.055.253.848.848,0,0,0,.061.32,1.4,1.4,0,0,0,.2.329,4.395,4.395,0,0,0,.381.408c.159.152.355.338.59.557a5.37,5.37,0,0,1,.615.674,3.754,3.754,0,0,1,.439.738,3.854,3.854,0,0,1,.263.835,5.166,5.166,0,0,1,.086.978,2.866,2.866,0,0,1-.1.818,1.384,1.384,0,0,1-.288.54.826.826,0,0,1-.449.253,1.192,1.192,0,0,1-.577-.037v.809a.288.288,0,0,1-.051.187.087.087,0,0,1-.122.021l-.839-.485a.324.324,0,0,1-.122-.161.631.631,0,0,1-.051-.246v-.843a4.091,4.091,0,0,1-.554-.679,5.217,5.217,0,0,1-.423-.774,4.564,4.564,0,0,1-.273-.8,3.53,3.53,0,0,1-.1-.759.237.237,0,0,1,.042-.153.065.065,0,0,1,.092-.02l.84.485a.446.446,0,0,1,.141.121,1.053,1.053,0,0,1,.1.179c.017.04.043.1.077.192a2.387,2.387,0,0,0,.138.29,1.834,1.834,0,0,0,.218.314,1.432,1.432,0,0,0,.89.463q.228,0,.228-.342a.725.725,0,0,0-.083-.332,1.919,1.919,0,0,0-.25-.355,5.466,5.466,0,0,0-.427-.434c-.172-.161-.376-.354-.611-.581a3.947,3.947,0,0,1-.964-1.394,4.667,4.667,0,0,1-.305-1.742,2.909,2.909,0,0,1,.083-.721,1.594,1.594,0,0,1,.241-.539.9.9,0,0,1,.384-.313.953.953,0,0,1,.516-.056v-.843a.287.287,0,0,1,.051-.186.086.086,0,0,1,.122-.022l.839.485a.328.328,0,0,1,.122.162.622.622,0,0,1,.051.245Z" fill="#4adbd1"/>
            <path id="Trazado_841481" data-name="Trazado 841481" d="M69.987,6.581l-1.152-.662a2,2,0,0,0-2.159.135,6.935,6.935,0,0,0-3.034,5.486v.47c0,2.062,2.773,4.3,2.773,4.3l1.134.641s-.681-.776-.6-.935c.743-1.525,2.765-5.829,2.765-7.512v-.47a3.671,3.671,0,0,0-.13-1.007l.13.075Zm-3.311,4.728c-.838.484-1.517.092-1.517-.876a4.358,4.358,0,0,0,1.517-2.627c.838-.484,1.517-.092,1.517.876a3.353,3.353,0,0,1-1.517,2.627" fill="#4adbd1"/>
            <g id="Grupo_1041144" data-name="Grupo 1041144" opacity="0.2">
              <g id="Grupo_1041143" data-name="Grupo 1041143">
                <g id="Grupo_1041142" data-name="Grupo 1041142" clip-path="url(#clip-path-29)">
                  <path id="Trazado_841482" data-name="Trazado 841482" d="M69.987,6.581l-1.152-.662a2,2,0,0,0-2.159.135,6.935,6.935,0,0,0-3.034,5.486v.47c0,2.062,2.773,4.3,2.773,4.3l1.134.641s-.681-.776-.6-.935c.743-1.525,2.765-5.829,2.765-7.512v-.47a3.671,3.671,0,0,0-.13-1.007l.13.075Zm-3.311,4.728c-.838.484-1.517.092-1.517-.876a4.358,4.358,0,0,0,1.517-2.627c.838-.484,1.517-.092,1.517.876a3.353,3.353,0,0,1-1.517,2.627"/>
                </g>
              </g>
            </g>
            <path id="Trazado_841483" data-name="Trazado 841483" d="M70.923,8.738c0-2.063-1.359-2.951-3.034-1.983a6.935,6.935,0,0,0-3.034,5.486v.47c0,1.588,1.8,3.43,2.627,4.194a.409.409,0,0,0,.645-.12c.714-1.463,2.8-5.869,2.8-7.578Zm-3.034,3.271c-.838.484-1.517.093-1.517-.876a3.352,3.352,0,0,1,1.517-2.626c.838-.485,1.517-.092,1.517.875a3.35,3.35,0,0,1-1.517,2.627" fill="#4adbd1"/>
            <g id="Grupo_1041147" data-name="Grupo 1041147" opacity="0.8">
              <g id="Grupo_1041146" data-name="Grupo 1041146">
                <g id="Grupo_1041145" data-name="Grupo 1041145" clip-path="url(#clip-path-30)">
                  <line id="Línea_3562" data-name="Línea 3562" x2="22.401" y2="18.225" transform="translate(101.433 11.686)" fill="none" stroke="#4adbd1" stroke-linecap="round" stroke-miterlimit="10" stroke-width="0.27"/>
                  <line id="Línea_3563" data-name="Línea 3563" x1="1.309" y2="28.366" transform="translate(123.454 40.247)" fill="none" stroke="#4adbd1" stroke-linecap="round" stroke-miterlimit="10" stroke-width="0.27"/>
                  <line id="Línea_3564" data-name="Línea 3564" x1="14.829" y1="27.898" transform="translate(106.608 42.454)" fill="none" stroke="#4adbd1" stroke-linecap="round" stroke-miterlimit="10" stroke-width="0.27"/>
                  <line id="Línea_3565" data-name="Línea 3565" y1="2.205" x2="11.104" transform="translate(110.13 33.064)" fill="none" stroke="#4adbd1" stroke-linecap="round" stroke-miterlimit="10" stroke-width="0.27"/>
                  <line id="Línea_3566" data-name="Línea 3566" x2="7.278" y2="16.718" transform="translate(97.134 16.533)" fill="none" stroke="#4adbd1" stroke-linecap="round" stroke-miterlimit="10" stroke-width="0.27"/>
                  <line id="Línea_3567" data-name="Línea 3567" x1="23.815" y2="3.894" transform="translate(70.988 7.406)" fill="none" stroke="#4adbd1" stroke-linecap="round" stroke-miterlimit="10" stroke-width="0.27"/>
                  <line id="Línea_3568" data-name="Línea 3568" x2="31.914" y2="20.478" transform="translate(70.759 13.878)" fill="none" stroke="#4adbd1" stroke-linecap="round" stroke-miterlimit="10" stroke-width="0.27"/>
                  <line id="Línea_3569" data-name="Línea 3569" x1="2.448" y2="21.734" transform="translate(102.543 42.454)" fill="none" stroke="#4adbd1" stroke-linecap="round" stroke-miterlimit="10" stroke-width="0.27"/>
                  <line id="Línea_3570" data-name="Línea 3570" x1="30.441" y2="17.722" transform="translate(87.962 77.532)" fill="none" stroke="#4adbd1" stroke-linecap="round" stroke-miterlimit="10" stroke-width="0.27"/>
                  <line id="Línea_3571" data-name="Línea 3571" x2="14.281" y2="4.156" transform="translate(104.703 69.894)" fill="none" stroke="#4adbd1" stroke-linecap="round" stroke-miterlimit="10" stroke-width="0.27"/>
                  <line id="Línea_3572" data-name="Línea 3572" x1="10.796" y2="14.505" transform="translate(87.61 75.599)" fill="none" stroke="#4adbd1" stroke-linecap="round" stroke-miterlimit="10" stroke-width="0.27"/>
                  <line id="Línea_3573" data-name="Línea 3573" x2="11.905" y2="15.247" transform="translate(33.762 73.459)" fill="none" stroke="#4adbd1" stroke-linecap="round" stroke-miterlimit="10" stroke-width="0.27"/>
                  <line id="Línea_3574" data-name="Línea 3574" y1="5.142" x2="12.905" transform="translate(13.413 68.702)" fill="none" stroke="#4adbd1" stroke-linecap="round" stroke-miterlimit="10" stroke-width="0.27"/>
                  <line id="Línea_3575" data-name="Línea 3575" x1="3.946" y1="16.185" transform="translate(25.783 45.29)" fill="none" stroke="#4adbd1" stroke-linecap="round" stroke-miterlimit="10" stroke-width="0.27"/>
                  <line id="Línea_3576" data-name="Línea 3576" x1="12.337" y2="24.565" transform="translate(9.671 42.911)" fill="none" stroke="#4adbd1" stroke-linecap="round" stroke-miterlimit="10" stroke-width="0.27"/>
                  <line id="Línea_3577" data-name="Línea 3577" x1="2.808" y1="29.347" transform="translate(5.125 37.263)" fill="none" stroke="#4adbd1" stroke-linecap="round" stroke-miterlimit="10" stroke-width="0.27"/>
                  <line id="Línea_3578" data-name="Línea 3578" x2="29.655" y2="17.121" transform="translate(12.895 77.806)" fill="none" stroke="#4adbd1" stroke-linecap="round" stroke-miterlimit="10" stroke-width="0.27"/>
                  <line id="Línea_3579" data-name="Línea 3579" y1="18.042" x2="7.895" transform="translate(25.458 18.576)" fill="none" stroke="#4adbd1" stroke-linecap="round" stroke-miterlimit="10" stroke-width="0.27"/>
                  <line id="Línea_3580" data-name="Línea 3580" x2="14.987" y2="3.697" transform="translate(48.085 7.434)" fill="none" stroke="#4adbd1" stroke-linecap="round" stroke-miterlimit="10" stroke-width="0.27"/>
                  <line id="Línea_3581" data-name="Línea 3581" x1="20.145" y2="14.551" transform="translate(8.175 13.901)" fill="none" stroke="#4adbd1" stroke-linecap="round" stroke-miterlimit="10" stroke-width="0.27"/>
                  <line id="Línea_3582" data-name="Línea 3582" x2="9.378" y2="4.389" transform="translate(10.818 32.549)" fill="none" stroke="#4adbd1" stroke-linecap="round" stroke-miterlimit="10" stroke-width="0.27"/>
                  <line id="Línea_3583" data-name="Línea 3583" x1="34.075" y2="24.325" transform="translate(27.76 14.388)" fill="none" stroke="#4adbd1" stroke-linecap="round" stroke-miterlimit="10" stroke-width="0.27"/>
                  <line id="Línea_3584" data-name="Línea 3584" x2="27.962" y2="0.02" transform="translate(50.658 94.858)" fill="none" stroke="#4adbd1" stroke-linecap="round" stroke-miterlimit="10" stroke-width="0.259"/>
                </g>
              </g>
            </g>
            <path id="Trazado_841484" data-name="Trazado 841484" d="M48.125,116.981,43.6,114.367a1.186,1.186,0,0,1-.7-.974c0-.353,0-.629,0-.629l4.691-2.645a1,1,0,0,0,.45-.78v-5.574l7.9,4.563V113.9a1,1,0,0,1-.45.78l-3.991,2.3a3.73,3.73,0,0,1-3.375,0" fill="#263238"/>
            <g id="Grupo_1041150" data-name="Grupo 1041150" opacity="0.3">
              <g id="Grupo_1041149" data-name="Grupo 1041149">
                <g id="Grupo_1041148" data-name="Grupo 1041148" clip-path="url(#clip-path-31)">
                  <path id="Trazado_841485" data-name="Trazado 841485" d="M54.044,114.889v.626l1.447-.834a1,1,0,0,0,.45-.779v-5.574l-1.505-.868c-.031.382-.065.777-.1,1.162l1.055.61v4.355a.99.99,0,0,1-.449.78Z"/>
                </g>
              </g>
            </g>
            <path id="Trazado_841486" data-name="Trazado 841486" d="M55.4,113.588a.992.992,0,0,1-.45.779L51.5,116.352a3.733,3.733,0,0,1-3.376,0L43.6,113.738a1.028,1.028,0,0,1,0-1.948l3.447-1.986a.992.992,0,0,0,.45-.779v-4.356l7.9,4.563Z" fill="#455a64"/>
            <path id="Trazado_841487" data-name="Trazado 841487" d="M46.132,110.335h0l.917-.529a.994.994,0,0,0,.45-.779V104.67l7.9,4.563v4.356a.993.993,0,0,1-.451.779l-.9.52Z" fill="#37474f"/>
            <path id="Trazado_841488" data-name="Trazado 841488" d="M42.9,112.764v.629a1.188,1.188,0,0,0,.7.974l4.522,2.613a3.389,3.389,0,0,0,1.611.4v-.626a3.389,3.389,0,0,1-1.611-.4L43.6,113.738a1.184,1.184,0,0,1-.7-.974" fill="#37474f"/>
            <path id="Trazado_841489" data-name="Trazado 841489" d="M35.309,75.806v24.236a1.242,1.242,0,0,0,.562.974l30.9,17.806c.017.01.034.018.053.027a.032.032,0,0,0,.015.006c.279.123.5-.027.5-.36v.468a1.067,1.067,0,0,0,.528-.121,1.2,1.2,0,0,0,.526-.954V93.652a1.248,1.248,0,0,0-.561-.974l-30.9-17.805a1.05,1.05,0,0,0-1.611.837.586.586,0,0,0-.007.1" fill="#455a64"/>
            <path id="Trazado_841490" data-name="Trazado 841490" d="M35.309,75.806v24.236a1.242,1.242,0,0,0,.562.974l30.9,17.806c.017.01.036.018.053.027a.032.032,0,0,0,.015.006c.279.123.5-.027.5-.36V94.261a1.24,1.24,0,0,0-.564-.974l-30.9-17.806c-.283-.163-.515-.058-.555.229a.586.586,0,0,0-.007.1" fill="#37474f"/>
            <path id="Trazado_841491" data-name="Trazado 841491" d="M67.333,118.5v-1.648l1.054-.609v1.65a1.2,1.2,0,0,1-.526.953,1.067,1.067,0,0,1-.528.122,1.121,1.121,0,0,1-.13-.009,1,1,0,0,1-.124-.018l-.012,0a.863.863,0,0,1-.1-.025l-.005,0a.094.094,0,0,1-.031-.01.9.9,0,0,1-.1-.04c.279.123.5-.027.5-.36" fill="#263238"/>
            <path id="Trazado_841492" data-name="Trazado 841492" d="M35.309,98.388v1.655a1.243,1.243,0,0,0,.562.974l30.9,17.805a.439.439,0,0,0,.053.027.026.026,0,0,0,.015.007c.279.123.5-.027.5-.36v-1.648Z" fill="#455a64"/>
            <path id="Trazado_841493" data-name="Trazado 841493" d="M67.167,93.705a1.193,1.193,0,0,1,.166.556v22.587l1.055-.611V93.653a1.17,1.17,0,0,0-.166-.556Z" fill="#263238"/>
            <path id="Trazado_841494" data-name="Trazado 841494" d="M66.277,114.026V94.612a.747.747,0,0,0-.338-.585L36.7,77.181c-.187-.108-.338-.021-.338.194V96.79a.747.747,0,0,0,.338.585L65.94,114.221c.186.108.337.02.337-.195" fill="#4adbd1"/>
            <path id="Trazado_841495" data-name="Trazado 841495" d="M46.106,92.69a12.829,12.829,0,0,0,1.528,5.8,10.251,10.251,0,0,0,3.687,4.165,3.216,3.216,0,0,0,3.687.092,4.9,4.9,0,0,0,1.527-4.034,12.828,12.828,0,0,0-1.527-5.8l-.042-.079c-.026-.05-.053-.1-.081-.149a10.076,10.076,0,0,0-3.564-3.937,3.219,3.219,0,0,0-3.677-.1l-.01.007-.068.054a4.976,4.976,0,0,0-1.46,3.981m.11.136V92.68a4.826,4.826,0,0,1,1.43-3.822l.079-.061a2.852,2.852,0,0,1,2.781-.287,4.725,4.725,0,0,1,.574.253c.08.04.16.084.241.131s.16.1.24.146a6.994,6.994,0,0,1,.575.411,10.9,10.9,0,0,1,2.671,3.3c.028.049.054.1.081.149a12.7,12.7,0,0,1,1.537,5.679c0,.025,0,.049,0,.074s0,.048,0,.072c-.026,3.336-1.878,5.045-4.289,4.171a4.737,4.737,0,0,1-.575-.253c-.08-.041-.16-.084-.24-.131s-.161-.1-.241-.147a6.748,6.748,0,0,1-.574-.411,12.711,12.711,0,0,1-4.29-9.123" fill="#fff"/>
            <path id="Trazado_841496" data-name="Trazado 841496" d="M47.467,98.614a13.4,13.4,0,0,1-1.6-6.061A5.209,5.209,0,0,1,47.4,88.392c.023-.019.047-.037.071-.055l.012-.009a3.367,3.367,0,0,1,3.842.1,10.571,10.571,0,0,1,3.725,4.114c.029.052.057.105.085.158.015.027.029.054.043.082a13.4,13.4,0,0,1,1.6,6.06c0,1.941-.567,3.439-1.6,4.217a3.36,3.36,0,0,1-3.853-.1,10.709,10.709,0,0,1-3.854-4.353m3.624-9.531a4.484,4.484,0,0,0-.548-.241,2.709,2.709,0,0,0-2.652.274c-.025.019-.05.038-.075.059a4.61,4.61,0,0,0-1.364,3.644c0,.023,0,.047,0,.07s0,.047,0,.07a12.067,12.067,0,0,0,4.091,8.7,6.464,6.464,0,0,0,.549.392c.149.1.308.188.458.265a4.976,4.976,0,0,0,.548.241c2.346.85,4.066-.823,4.091-3.978,0-.023,0-.046,0-.07s0-.047,0-.069a12.032,12.032,0,0,0-1.466-5.417c-.025-.048-.051-.1-.077-.143A10.335,10.335,0,0,0,52.1,89.74a6.462,6.462,0,0,0-.549-.392c-.074-.048-.151-.1-.228-.14s-.155-.086-.23-.125" fill="#fff"/>
            <path id="Trazado_841497" data-name="Trazado 841497" d="M47.478,88.546l.07-.055.012-.009.085-.059.084.158c.028.052.053.1.079.146a12.311,12.311,0,0,0,.953,1.485l.094.125A9.321,9.321,0,0,0,50.364,91.9c.033.027.067.054.105.083a6.469,6.469,0,0,0,.742.5,4.962,4.962,0,0,0,.952.428l.105.031a3.018,3.018,0,0,0,1.472.08L53.833,93a2.482,2.482,0,0,0,.889-.424c.029-.022.053-.04.076-.059l.082-.068.088.16.083.153.086.162L55.054,93l-.071.055-.01.008a2.682,2.682,0,0,1-.968.46l-.1.021a3.232,3.232,0,0,1-1.576-.094l-.111-.034a5.346,5.346,0,0,1-1.009-.456,7.128,7.128,0,0,1-.788-.532l-.111-.088A9.881,9.881,0,0,1,48.7,90.673l-.1-.131a13.32,13.32,0,0,1-1.035-1.613l-.084-.154-.085-.162Z" fill="#fff"/>
            <path id="Trazado_841498" data-name="Trazado 841498" d="M47.48,98.191c.028-.021.056-.04.083-.058a2.645,2.645,0,0,1,1.036-.417c.031-.006.064-.011.1-.016a3.443,3.443,0,0,1,1.612.2l.111.04a5.548,5.548,0,0,1,.789.379,7.219,7.219,0,0,1,1.008.708l.111.094a10.391,10.391,0,0,1,1.576,1.725l.1.135a13.752,13.752,0,0,1,.968,1.578.151.151,0,0,1,.011.022c.024.045.047.09.07.135l.083.164-.086.062-.082.058-.088.058-.083-.164c-.022-.043-.046-.09-.076-.146a12.605,12.605,0,0,0-.888-1.45l-.093-.129a9.838,9.838,0,0,0-1.472-1.62l-.105-.09a6.784,6.784,0,0,0-.952-.671,5.054,5.054,0,0,0-.743-.355c-.037-.014-.071-.027-.1-.038a3.217,3.217,0,0,0-1.508-.177c-.03,0-.061.009-.1.016a2.472,2.472,0,0,0-.953.384l-.079.056-.084.06-.084-.157-.013-.023c-.023-.045-.047-.09-.069-.135l-.083-.163Z" fill="#fff"/>
            <path id="Trazado_841499" data-name="Trazado 841499" d="M48.558,94.105a18.819,18.819,0,0,0,.787,5.44,5.766,5.766,0,0,0,1.976,3.269c.752.435,1.454.084,1.975-.988a10.917,10.917,0,0,0,.787-4.531,18.785,18.785,0,0,0-.787-5.44,5.766,5.766,0,0,0-1.975-3.269c-.753-.435-1.454-.084-1.976.988a10.936,10.936,0,0,0-.787,4.531m1.036,5.326a17.924,17.924,0,0,1-.738-5.154,10.468,10.468,0,0,1,.738-4.3c.466-.967,1.08-1.294,1.727-.92a5.177,5.177,0,0,1,1.727,2.914,17.924,17.924,0,0,1,.738,5.154,10.468,10.468,0,0,1-.738,4.3c-.467.967-1.08,1.294-1.727.92a5.172,5.172,0,0,1-1.727-2.914" fill="#fff"/>
            <path id="Trazado_841500" data-name="Trazado 841500" d="M46.161,92.483,56.48,98.441a.456.456,0,0,1,.176.353c0,.129-.079.206-.176.15L46.161,92.986a.456.456,0,0,1-.176-.353c0-.129.079-.206.176-.15" fill="#fff"/>
            <path id="Trazado_841501" data-name="Trazado 841501" d="M51.135,102.485V88.726c0-.129.092-.182.189-.126a.447.447,0,0,1,.188.344V102.7c0,.129-.091.182-.188.126a.449.449,0,0,1-.189-.344" fill="#fff"/>
            <path id="Trazado_841502" data-name="Trazado 841502" d="M25.448,115.512a.306.306,0,0,1,.179-.25l7.256-4.188a.955.955,0,0,1,.865,0l22.141,12.8a.306.306,0,0,1,.178.25v.761a.3.3,0,0,1-.18.25l-7.252,4.188a.961.961,0,0,1-.866,0L25.627,116.542a.3.3,0,0,1-.179-.249v-.781" fill="#4adbd1"/>
            <g id="Grupo_1041153" data-name="Grupo 1041153" opacity="0.5">
              <g id="Grupo_1041152" data-name="Grupo 1041152">
                <g id="Grupo_1041151" data-name="Grupo 1041151" clip-path="url(#clip-path-32)">
                  <path id="Trazado_841503" data-name="Trazado 841503" d="M25.448,115.512a.306.306,0,0,1,.179-.25l7.256-4.188a.955.955,0,0,1,.865,0l22.141,12.8a.306.306,0,0,1,.178.25v.761a.3.3,0,0,1-.18.25l-7.252,4.188a.961.961,0,0,1-.866,0L25.627,116.542a.3.3,0,0,1-.179-.249v-.781"/>
                </g>
              </g>
            </g>
            <path id="Trazado_841504" data-name="Trazado 841504" d="M48.636,128.545l7.252-4.169a.263.263,0,0,0,0-.5l-22.14-12.8a.955.955,0,0,0-.865,0l-7.256,4.189a.263.263,0,0,0,0,.5L47.77,128.544a.957.957,0,0,0,.866,0" fill="#4adbd1"/>
            <g id="Grupo_1041156" data-name="Grupo 1041156" opacity="0.3">
              <g id="Grupo_1041155" data-name="Grupo 1041155">
                <g id="Grupo_1041154" data-name="Grupo 1041154" clip-path="url(#clip-path-33)">
                  <path id="Trazado_841505" data-name="Trazado 841505" d="M48.636,128.545l7.252-4.169a.263.263,0,0,0,0-.5l-22.14-12.8a.955.955,0,0,0-.865,0l-7.256,4.189a.263.263,0,0,0,0,.5L47.77,128.544a.957.957,0,0,0,.866,0"/>
                </g>
              </g>
            </g>
            <path id="Trazado_841506" data-name="Trazado 841506" d="M48.23,128.648v.778a.889.889,0,0,0,.406-.1l7.25-4.188a.306.306,0,0,0,.18-.25v-.763a.306.306,0,0,1-.18.25l-7.25,4.171a.878.878,0,0,1-.406.1" fill="#4adbd1"/>
            <g id="Grupo_1041159" data-name="Grupo 1041159" opacity="0.7">
              <g id="Grupo_1041158" data-name="Grupo 1041158">
                <g id="Grupo_1041157" data-name="Grupo 1041157" clip-path="url(#clip-path-34)">
                  <path id="Trazado_841507" data-name="Trazado 841507" d="M48.23,128.648v.778a.889.889,0,0,0,.406-.1l7.25-4.188a.306.306,0,0,0,.18-.25v-.763a.306.306,0,0,1-.18.25l-7.25,4.171a.878.878,0,0,1-.406.1"/>
                </g>
              </g>
            </g>
            <path id="Trazado_841508" data-name="Trazado 841508" d="M46.618,120.895l-.826.477c-.02.012-.022.025-.022.031l.735.44.865-.514Z" fill="#37474f"/>
            <path id="Trazado_841509" data-name="Trazado 841509" d="M47.613,121.47l-.83.479a.035.035,0,0,0-.018.028l0,.018.732.422.865-.513Z" fill="#37474f"/>
            <path id="Trazado_841510" data-name="Trazado 841510" d="M44.943,119.928l-.83.479a.035.035,0,0,0-.018.028l1.2.712.866-.513Z" fill="#37474f"/>
            <path id="Trazado_841511" data-name="Trazado 841511" d="M43.948,119.354l-.829.479a.035.035,0,0,0-.019.028l.734.44.866-.513Z" fill="#37474f"/>
            <path id="Trazado_841512" data-name="Trazado 841512" d="M30.934,116.731l.734.44.865-.513-.752-.435-.83.48a.033.033,0,0,0-.017.028" fill="#37474f"/>
            <path id="Trazado_841513" data-name="Trazado 841513" d="M42.954,118.78l-.825.476c-.02.012-.023.025-.023.031l.734.441.866-.514Z" fill="#37474f"/>
            <path id="Trazado_841514" data-name="Trazado 841514" d="M46.246,121.979l-.752-.434-.828.478a.035.035,0,0,0-.02.029l.735.44Z" fill="#37474f"/>
            <path id="Trazado_841515" data-name="Trazado 841515" d="M39.491,120.374l.735.44.865-.513-.751-.435-.829.479a.035.035,0,0,0-.02.029" fill="#37474f"/>
            <path id="Trazado_841516" data-name="Trazado 841516" d="M45.64,122.626l.735.44.866-.513-.753-.434-.83.479a.035.035,0,0,0-.018.028" fill="#37474f"/>
            <path id="Trazado_841517" data-name="Trazado 841517" d="M38.5,119.8l.735.44.866-.513-.752-.434-.826.476c-.02.011-.023.024-.023.031" fill="#37474f"/>
            <path id="Trazado_841518" data-name="Trazado 841518" d="M37.5,119.225l.735.44.866-.513-.752-.435-.83.479a.039.039,0,0,0-.019.029" fill="#37474f"/>
            <path id="Trazado_841519" data-name="Trazado 841519" d="M41.48,121.522l1.572.923,1.99-1.161-.856-.5-1.052.608a.163.163,0,0,1-.141,0l-.664-.383-.824.476c-.022.011-.025.024-.025.031" fill="#37474f"/>
            <path id="Trazado_841520" data-name="Trazado 841520" d="M40.965,117.631l-.83.479a.036.036,0,0,0-.019.028l.735.441.866-.514Z" fill="#37474f"/>
            <path id="Trazado_841521" data-name="Trazado 841521" d="M40.485,120.948l.735.44.866-.513-.752-.434-.824.476c-.023.011-.025.025-.025.031" fill="#37474f"/>
            <path id="Trazado_841522" data-name="Trazado 841522" d="M31.4,114.406l.735.44.866-.513-.753-.435-.825.477c-.021.012-.023.026-.023.031" fill="#37474f"/>
            <path id="Trazado_841523" data-name="Trazado 841523" d="M33.008,113.038l-.832.48a.037.037,0,0,0-.016.027l0,.018.732.422.865-.513Z" fill="#37474f"/>
            <path id="Trazado_841524" data-name="Trazado 841524" d="M30.54,115.206l0,.018.732.422.865-.513-.752-.434-.83.479a.035.035,0,0,0-.018.028" fill="#37474f"/>
            <path id="Trazado_841525" data-name="Trazado 841525" d="M28.944,115.583l.735.44.866-.513-.753-.435-.825.477c-.021.012-.023.026-.023.031" fill="#37474f"/>
            <path id="Trazado_841526" data-name="Trazado 841526" d="M34,113.612l-.83.479a.035.035,0,0,0-.018.028l.734.44.866-.513Z" fill="#37474f"/>
            <path id="Trazado_841527" data-name="Trazado 841527" d="M29.938,116.157l.735.44.865-.513-.751-.435-.829.479a.037.037,0,0,0-.02.029" fill="#37474f"/>
            <path id="Trazado_841528" data-name="Trazado 841528" d="M36.987,115.334l-.829.479a.035.035,0,0,0-.02.029l.735.44.866-.514Z" fill="#37474f"/>
            <path id="Trazado_841529" data-name="Trazado 841529" d="M37.981,115.909l-.827.478a.037.037,0,0,0-.022.03l.735.44.865-.514Z" fill="#37474f"/>
            <path id="Trazado_841530" data-name="Trazado 841530" d="M38.976,116.483l-.826.477c-.02.011-.023.024-.023.03l.735.441.866-.514Z" fill="#37474f"/>
            <path id="Trazado_841531" data-name="Trazado 841531" d="M35.992,114.76l-.826.477c-.02.011-.023.024-.023.03l.735.441.866-.514Z" fill="#37474f"/>
            <path id="Trazado_841532" data-name="Trazado 841532" d="M39.97,117.057l-.829.479a.038.038,0,0,0-.019.028l.734.44.866-.513Z" fill="#37474f"/>
            <path id="Trazado_841533" data-name="Trazado 841533" d="M35,114.186l-.829.479a.035.035,0,0,0-.02.029l.735.44.866-.514Z" fill="#37474f"/>
            <path id="Trazado_841534" data-name="Trazado 841534" d="M41.96,118.206l-.832.48a.034.034,0,0,0-.017.027l.735.441.865-.514Z" fill="#37474f"/>
            <path id="Trazado_841535" data-name="Trazado 841535" d="M42.2,119.64l-.826.477a.037.037,0,0,0-.022.031l0,.017.731.422.866-.513Z" fill="#37474f"/>
            <path id="Trazado_841536" data-name="Trazado 841536" d="M49.811,122.739l-.826.477a.035.035,0,0,0-.022.03l.734.44.866-.513Z" fill="#37474f"/>
            <path id="Trazado_841537" data-name="Trazado 841537" d="M50.806,123.313l-.827.477c-.014.009-.022.019-.022.03l.735.441.865-.514Z" fill="#37474f"/>
            <path id="Trazado_841538" data-name="Trazado 841538" d="M41.2,119.066l-.827.478a.035.035,0,0,0-.021.03l.735.44.865-.514Z" fill="#37474f"/>
            <path id="Trazado_841539" data-name="Trazado 841539" d="M51.8,123.888l-.826.477a.035.035,0,0,0-.022.03l.734.44.866-.513Z" fill="#37474f"/>
            <path id="Trazado_841540" data-name="Trazado 841540" d="M42.343,120.722l0,.018.731.422.866-.513-.752-.435-.826.478c-.019.011-.022.023-.022.03" fill="#37474f"/>
            <path id="Trazado_841541" data-name="Trazado 841541" d="M48.687,123.388l-.824.476c-.022.012-.025.025-.025.032l.735.44.866-.514Z" fill="#37474f"/>
            <path id="Trazado_841542" data-name="Trazado 841542" d="M50.677,124.536l-.824.476c-.022.012-.025.026-.025.032l.735.44.866-.514Z" fill="#37474f"/>
            <path id="Trazado_841543" data-name="Trazado 841543" d="M48.833,124.47l.735.44.866-.513-.752-.435-.829.479a.035.035,0,0,0-.02.029" fill="#37474f"/>
            <path id="Trazado_841544" data-name="Trazado 841544" d="M49.715,126.24a.039.039,0,0,0-.017.027l0,.018.731.422,1.99-1.162-.752-.434Z" fill="#37474f"/>
            <path id="Trazado_841545" data-name="Trazado 841545" d="M40.207,118.492l-.826.477a.037.037,0,0,0-.022.03l0,.018.731.423.866-.514Z" fill="#37474f"/>
            <path id="Trazado_841546" data-name="Trazado 841546" d="M47.709,125.119l0,.018.732.422.865-.513-.752-.435-.826.478c-.019.011-.022.023-.022.03" fill="#37474f"/>
            <path id="Trazado_841547" data-name="Trazado 841547" d="M48.7,125.693l.735.44.865-.513-.752-.435-.823.476c-.022.011-.025.025-.025.032" fill="#37474f"/>
            <path id="Trazado_841548" data-name="Trazado 841548" d="M35.234,115.621l-.825.477c-.02.011-.023.024-.023.031l.734.44.866-.514Z" fill="#37474f"/>
            <path id="Trazado_841549" data-name="Trazado 841549" d="M33.245,114.472l-.825.476c-.02.012-.023.025-.023.031l0,.018.732.422.865-.513Z" fill="#37474f"/>
            <path id="Trazado_841550" data-name="Trazado 841550" d="M32.528,116.354l.735.44.866-.514-.752-.434-.83.48a.039.039,0,0,0-.019.028" fill="#37474f"/>
            <path id="Trazado_841551" data-name="Trazado 841551" d="M31.534,115.78l.734.44.866-.513-.752-.434-.83.479a.037.037,0,0,0-.018.028" fill="#37474f"/>
            <path id="Trazado_841552" data-name="Trazado 841552" d="M33.523,116.928l0,.018.731.422.866-.513-.752-.435-.825.477c-.021.012-.023.026-.023.031" fill="#37474f"/>
            <path id="Trazado_841553" data-name="Trazado 841553" d="M39.212,117.918l-.827.478a.036.036,0,0,0-.021.03l0,.017.732.423.865-.514Z" fill="#37474f"/>
            <path id="Trazado_841554" data-name="Trazado 841554" d="M35.512,118.077l.735.44.866-.513-.752-.435-.826.477c-.021.012-.023.026-.023.031" fill="#37474f"/>
            <path id="Trazado_841555" data-name="Trazado 841555" d="M34.518,117.5l.734.44.866-.513L35.367,117l-.831.48a.037.037,0,0,0-.018.028" fill="#37474f"/>
            <path id="Trazado_841556" data-name="Trazado 841556" d="M37.223,116.769l-.825.477c-.02.011-.023.024-.023.031l.735.44.865-.514Z" fill="#37474f"/>
            <path id="Trazado_841557" data-name="Trazado 841557" d="M34.239,115.046l-.825.477c-.02.011-.023.024-.023.031l.735.44.865-.514Z" fill="#37474f"/>
            <path id="Trazado_841558" data-name="Trazado 841558" d="M38.218,117.343l-.826.477a.037.037,0,0,0-.022.031l.735.44.865-.514Z" fill="#37474f"/>
            <path id="Trazado_841559" data-name="Trazado 841559" d="M36.229,116.195l-.825.476a.037.037,0,0,0-.023.032l0,.017.732.422.865-.513Z" fill="#37474f"/>
            <path id="Trazado_841560" data-name="Trazado 841560" d="M36.507,118.651l.735.44.865-.513-.751-.434-.829.478a.035.035,0,0,0-.02.029" fill="#37474f"/>
            <path id="Trazado_841561" data-name="Trazado 841561" d="M48.607,122.044l-.83.479a.035.035,0,0,0-.018.028l.735.44.865-.513Z" fill="#37474f"/>
            <path id="Trazado_841562" data-name="Trazado 841562" d="M32.765,112.9l-.752-.434-.83.479a.037.037,0,0,0-.018.028l0,.018.731.423Z" fill="#37474f"/>
            <path id="Trazado_841563" data-name="Trazado 841563" d="M32.008,113.758l-1.119-.646-.83.479a.037.037,0,0,0-.018.029l0,.017,1.1.634Z" fill="#37474f"/>
            <path id="Trazado_841564" data-name="Trazado 841564" d="M34.287,112.2l-.909-.525-.826.477a.037.037,0,0,0-.022.031l.891.53Z" fill="#37474f"/>
            <path id="Trazado_841565" data-name="Trazado 841565" d="M29.55,114.935l-.909-.525-.826.477c-.021.011-.023.025-.023.03l.892.531Z" fill="#37474f"/>
            <path id="Trazado_841566" data-name="Trazado 841566" d="M31.145,114.558l-1.38-.8-.83.479a.035.035,0,0,0-.018.029l0,.017,1.36.786Z" fill="#37474f"/>
            <path id="Trazado_841567" data-name="Trazado 841567" d="M34.113,113.1l.735.44.866-.513-.752-.435-.826.477c-.02.011-.023.024-.023.031" fill="#37474f"/>
            <path id="Trazado_841568" data-name="Trazado 841568" d="M27.517,115.059l-.826.477a.037.037,0,0,0-.022.03l1.1.652.866-.513Z" fill="#37474f"/>
            <path id="Trazado_841569" data-name="Trazado 841569" d="M35.108,113.672l.735.44.866-.513-.753-.434-.83.479a.034.034,0,0,0-.018.028" fill="#37474f"/>
            <path id="Trazado_841570" data-name="Trazado 841570" d="M39.519,116.219l0,.018.732.422.866-.513-.753-.434-.827.477a.038.038,0,0,0-.021.03" fill="#37474f"/>
            <path id="Trazado_841571" data-name="Trazado 841571" d="M40.514,116.793l.735.44.866-.513-.753-.435-.827.478a.036.036,0,0,0-.021.03" fill="#37474f"/>
            <path id="Trazado_841572" data-name="Trazado 841572" d="M38.525,115.645l0,.018.732.422.866-.513-.753-.435-.825.477c-.021.012-.023.026-.023.031" fill="#37474f"/>
            <path id="Trazado_841573" data-name="Trazado 841573" d="M37.1,114.82l0,.018.732.422.866-.513-.753-.434-.827.477a.038.038,0,0,0-.021.03" fill="#37474f"/>
            <path id="Trazado_841574" data-name="Trazado 841574" d="M36.1,114.246l.735.44.866-.513-.753-.434-.829.478a.036.036,0,0,0-.019.029" fill="#37474f"/>
            <path id="Trazado_841575" data-name="Trazado 841575" d="M47.3,126.484l-.832.48a.037.037,0,0,0-.016.027l0,.018.732.422.865-.513Z" fill="#37474f"/>
            <path id="Trazado_841576" data-name="Trazado 841576" d="M42.122,123.491l-.825.477c-.021.011-.024.024-.024.031l.735.44.866-.514Z" fill="#37474f"/>
            <path id="Trazado_841577" data-name="Trazado 841577" d="M45.315,125.335l-.826.477c-.02.012-.022.025-.022.031l0,.017,1.726,1,.866-.513Z" fill="#37474f"/>
            <path id="Trazado_841578" data-name="Trazado 841578" d="M43.117,124.065l-.825.476a.037.037,0,0,0-.024.032l.734.44.866-.514Z" fill="#37474f"/>
            <path id="Trazado_841579" data-name="Trazado 841579" d="M44.111,124.64l-.822.475c-.023.011-.027.025-.027.033l.735.44.866-.514Z" fill="#37474f"/>
            <path id="Trazado_841580" data-name="Trazado 841580" d="M41.509,117.367l0,.018.732.422.866-.513-.753-.434-.825.476c-.02.011-.023.024-.023.031" fill="#37474f"/>
            <path id="Trazado_841581" data-name="Trazado 841581" d="M50.175,126.843l-.752-.434-1.956,1.129a.034.034,0,0,0-.017.027l0,.018.732.422Z" fill="#37474f"/>
            <path id="Trazado_841582" data-name="Trazado 841582" d="M30.029,116.51l-.825.476c-.021.012-.023.026-.023.031l.892.531.866-.513Z" fill="#37474f"/>
            <path id="Trazado_841583" data-name="Trazado 841583" d="M31.181,117.175l-.824.476c-.021.011-.024.024-.024.031l0,.018,5.651,3.263.867-.513Z" fill="#37474f"/>
            <path id="Trazado_841584" data-name="Trazado 841584" d="M31.928,117.305l.734.44.866-.513-.751-.435-.83.479a.036.036,0,0,0-.019.029" fill="#37474f"/>
            <path id="Trazado_841585" data-name="Trazado 841585" d="M28.878,115.845l-.826.477c-.02.011-.023.024-.023.03l.892.531.866-.513Z" fill="#37474f"/>
            <path id="Trazado_841586" data-name="Trazado 841586" d="M37.1,120.59l-.826.477c-.02.011-.023.024-.023.031l0,.017.888.513.866-.513Z" fill="#37474f"/>
            <path id="Trazado_841587" data-name="Trazado 841587" d="M39.4,121.92l-.829.478a.036.036,0,0,0-.02.03l0,.017.889.513.866-.513Z" fill="#37474f"/>
            <path id="Trazado_841588" data-name="Trazado 841588" d="M38.248,121.255l-.83.479a.038.038,0,0,0-.019.029l.893.53.865-.513Z" fill="#37474f"/>
            <path id="Trazado_841589" data-name="Trazado 841589" d="M40.551,122.585l-.826.477a.037.037,0,0,0-.022.031l0,.017,1.1.634.866-.513Z" fill="#37474f"/>
            <path id="Trazado_841590" data-name="Trazado 841590" d="M46.635,123.2l0,.018.732.422.866-.513-.753-.435-.828.479a.035.035,0,0,0-.02.029" fill="#37474f"/>
            <path id="Trazado_841591" data-name="Trazado 841591" d="M43.392,123.924l0,.018.732.422.866-.513-.752-.435-.829.479a.035.035,0,0,0-.02.029" fill="#37474f"/>
            <path id="Trazado_841592" data-name="Trazado 841592" d="M39.884,121.9l2.044,1.195.866-.513-2.061-1.19-.83.48a.038.038,0,0,0-.019.028" fill="#37474f"/>
            <path id="Trazado_841593" data-name="Trazado 841593" d="M45.591,125.194l0,.018.733.422.865-.513-.753-.435-.83.48a.035.035,0,0,0-.018.028" fill="#37474f"/>
            <path id="Trazado_841594" data-name="Trazado 841594" d="M46.585,125.768l0,.018.732.422.866-.513-.753-.434-.828.478a.035.035,0,0,0-.02.029" fill="#37474f"/>
            <path id="Trazado_841595" data-name="Trazado 841595" d="M38.89,121.325l.735.44.866-.513-.752-.434-.827.477a.037.037,0,0,0-.022.03" fill="#37474f"/>
            <path id="Trazado_841596" data-name="Trazado 841596" d="M46.715,124.545l0,.018.732.422.865-.513-.752-.435-.823.476c-.022.011-.025.025-.025.032" fill="#37474f"/>
            <path id="Trazado_841597" data-name="Trazado 841597" d="M33.917,118.454l.735.44.865-.513-.752-.435-.829.479a.036.036,0,0,0-.019.029" fill="#37474f"/>
            <path id="Trazado_841598" data-name="Trazado 841598" d="M37.9,120.751l.735.44.866-.513-.752-.435-.832.481a.035.035,0,0,0-.017.027" fill="#37474f"/>
            <path id="Trazado_841599" data-name="Trazado 841599" d="M32.923,117.88l0,.018.732.422.865-.513-.752-.435-.83.48a.037.037,0,0,0-.018.028" fill="#37474f"/>
            <path id="Trazado_841600" data-name="Trazado 841600" d="M34.911,119.028l.735.44.866-.513-.752-.435-.832.481a.038.038,0,0,0-.017.027" fill="#37474f"/>
            <path id="Trazado_841601" data-name="Trazado 841601" d="M35.907,119.6l0,.018.732.422.865-.513-.752-.435-.825.477c-.02.011-.023.024-.023.031" fill="#37474f"/>
            <path id="Trazado_841602" data-name="Trazado 841602" d="M36.9,120.177l0,.018.731.422.866-.513-.752-.435-.83.48a.035.035,0,0,0-.018.028" fill="#37474f"/>
            <path id="Trazado_841603" data-name="Trazado 841603" d="M43.931,118.766l.734.44.865-.513-.752-.435-.825.477a.035.035,0,0,0-.022.031" fill="#37474f"/>
            <path id="Trazado_841604" data-name="Trazado 841604" d="M47.58,126.342l0,.018.732.422.866-.513-.753-.434-.83.479a.035.035,0,0,0-.018.028" fill="#37474f"/>
            <path id="Trazado_841605" data-name="Trazado 841605" d="M45.92,119.914l.735.44.865-.513-.752-.435-.825.477c-.02.011-.023.024-.023.031" fill="#37474f"/>
            <path id="Trazado_841606" data-name="Trazado 841606" d="M48.129,121.19l.735.44.866-.513-.753-.435-.826.478c-.019.011-.022.023-.022.03" fill="#37474f"/>
            <path id="Trazado_841607" data-name="Trazado 841607" d="M47.134,120.615l.735.44.866-.513-.753-.435-.826.478a.034.034,0,0,0-.022.03" fill="#37474f"/>
            <path id="Trazado_841608" data-name="Trazado 841608" d="M42.936,118.191l.735.44.866-.513-.753-.435-.827.478a.036.036,0,0,0-.021.03" fill="#37474f"/>
            <path id="Trazado_841609" data-name="Trazado 841609" d="M44.925,119.34l0,.018.732.422.865-.513-.752-.435-.825.477c-.02.011-.023.024-.023.031" fill="#37474f"/>
            <path id="Trazado_841610" data-name="Trazado 841610" d="M49.123,121.764l.735.44.866-.513-.753-.435-.826.477a.037.037,0,0,0-.022.031" fill="#37474f"/>
            <path id="Trazado_841611" data-name="Trazado 841611" d="M53.6,124.015l.735.44.452-.279-.752-.435-.414.244a.037.037,0,0,0-.021.03" fill="#37474f"/>
            <path id="Trazado_841612" data-name="Trazado 841612" d="M51.947,124.969l.735.44.866-.513-.753-.434-.826.477a.035.035,0,0,0-.022.03" fill="#37474f"/>
            <path id="Trazado_841613" data-name="Trazado 841613" d="M50.616,122.292l0,.018.732.422.452-.279-.753-.435-.412.244c-.019.011-.022.023-.022.03" fill="#37474f"/>
            <path id="Trazado_841614" data-name="Trazado 841614" d="M51.611,122.866l0,.018.732.422.452-.279-.753-.435-.416.246a.036.036,0,0,0-.018.028" fill="#37474f"/>
            <path id="Trazado_841615" data-name="Trazado 841615" d="M52.6,123.441l.735.44.452-.279-.753-.434-.416.245a.037.037,0,0,0-.018.028" fill="#37474f"/>
            <path id="Trazado_841616" data-name="Trazado 841616" d="M21.8,98.609c-.9.175-1.311.482-1.824,1.732a26.311,26.311,0,0,0-1.638,5.128c0,.658,2.272,3.721,2.17,3.672-.031-.016,1.292-1.545,1.292-1.545l-1.375-2.172,1.09-2.117Z" fill="#ffa8a7"/>
            <path id="Trazado_841617" data-name="Trazado 841617" d="M23.8,125.393a1.934,1.934,0,0,1-.053.878,1.983,1.983,0,0,1-.71.856,3.456,3.456,0,0,0-.59.715,3.008,3.008,0,0,1-.616.77,1.235,1.235,0,0,1-1,.071c-.261-.109-.348-.208-.332-.625s1.28-.559,1.28-.559Z" fill="#455a64"/>
            <path id="Trazado_841618" data-name="Trazado 841618" d="M20.668,126.815c-.108.041-.135.246-.151.655-.013.309-.143.761.283.956a1.041,1.041,0,0,0,1.124-.239c.29-.363.485-.683.9-1.127.358-.385.731-.514.89-1.284.1-.494.022-.7-.31-.841-.458-.195-1.177.443-1.535.543-.309.086-1.092,1.3-1.2,1.337" fill="#4adbd1"/>
            <g id="Grupo_1041162" data-name="Grupo 1041162" opacity="0.2">
              <g id="Grupo_1041161" data-name="Grupo 1041161">
                <g id="Grupo_1041160" data-name="Grupo 1041160" clip-path="url(#clip-path-35)">
                  <path id="Trazado_841619" data-name="Trazado 841619" d="M20.668,126.815c-.108.041-.135.246-.151.655-.013.309-.143.761.283.956a1.041,1.041,0,0,0,1.124-.239c.29-.363.485-.683.9-1.127.358-.385.731-.514.89-1.284.1-.494.022-.7-.31-.841-.458-.195-1.177.443-1.535.543-.309.086-1.092,1.3-1.2,1.337"/>
                </g>
              </g>
            </g>
            <path id="Trazado_841620" data-name="Trazado 841620" d="M21.868,125.478a.635.635,0,0,0,.061-.021,1.178,1.178,0,0,1,.99.649c.061.135-.127.24-.239.135a1.258,1.258,0,0,0-.989-.646.522.522,0,0,1,.177-.117" fill="#fafafa"/>
            <path id="Trazado_841621" data-name="Trazado 841621" d="M21.572,125.71a1.169,1.169,0,0,1,.92.644c.061.135-.127.239-.239.135a1.2,1.2,0,0,0-.825-.617c.049-.058.1-.113.144-.162" fill="#fafafa"/>
            <path id="Trazado_841622" data-name="Trazado 841622" d="M23.5,126.345s-.036-.915-1.273-1.043l-.071.041a1.067,1.067,0,0,1,.608-.47.843.843,0,0,1,.953.273,1.2,1.2,0,0,1-.217,1.2" fill="#fafafa"/>
            <path id="Trazado_841623" data-name="Trazado 841623" d="M29.551,131.711c.07.346-.055.527-.5.785a2.493,2.493,0,0,1-1.885.131c-.738-.214-1.09-.536-1.4-.613s-1.064-.083-1.367-.171-.3-.245-.3-.609Z" fill="#455a64"/>
            <path id="Trazado_841624" data-name="Trazado 841624" d="M24.4,129.479a8.375,8.375,0,0,0-.221.817,2.208,2.208,0,0,0-.044,1.038c.106.228.52.375,1.162.37a3.775,3.775,0,0,1,1.507.527,2.306,2.306,0,0,0,1.44.2A1.806,1.806,0,0,0,29.5,131.8c.092-.236.116-.414-1.23-.987a7.019,7.019,0,0,1-2.213-1.3Z" fill="#4adbd1"/>
            <g id="Grupo_1041165" data-name="Grupo 1041165" opacity="0.2">
              <g id="Grupo_1041164" data-name="Grupo 1041164">
                <g id="Grupo_1041163" data-name="Grupo 1041163" clip-path="url(#clip-path-36)">
                  <path id="Trazado_841625" data-name="Trazado 841625" d="M24.4,129.479a8.375,8.375,0,0,0-.221.817,2.208,2.208,0,0,0-.044,1.038c.106.228.52.375,1.162.37a3.775,3.775,0,0,1,1.507.527,2.306,2.306,0,0,0,1.44.2A1.806,1.806,0,0,0,29.5,131.8c.092-.236.116-.414-1.23-.987a7.019,7.019,0,0,1-2.213-1.3Z"/>
                </g>
              </g>
            </g>
            <path id="Trazado_841626" data-name="Trazado 841626" d="M26.987,132.32a1.842,1.842,0,0,1,1.055-1.486c.849-.3,1.591.33,1.508.877-.055.368-1.089,1.2-2.563.609" fill="#fafafa"/>
            <path id="Trazado_841627" data-name="Trazado 841627" d="M27.805,130.617a1.093,1.093,0,0,0-.641.285c-.271.228-.279.379-.279.379a.142.142,0,0,1-.245-.117.882.882,0,0,1,.83-.7.312.312,0,0,1,.335.155" fill="#fafafa"/>
            <path id="Trazado_841628" data-name="Trazado 841628" d="M27.267,130.36a.957.957,0,0,0-.647.257c-.271.228-.273.407-.273.407a.142.142,0,0,1-.245-.117.882.882,0,0,1,.83-.7.312.312,0,0,1,.335.155" fill="#fafafa"/>
            <path id="Trazado_841629" data-name="Trazado 841629" d="M26.734,130.055a.958.958,0,0,0-.663.212c-.286.209-.3.388-.3.388a.143.143,0,0,1-.237-.134.884.884,0,0,1,.877-.644.312.312,0,0,1,.323.178" fill="#fafafa"/>
            <path id="Trazado_841630" data-name="Trazado 841630" d="M20.668,126.154v.784a1.226,1.226,0,0,0,1.267.034c.022-.048.085-.818.085-.818Z" fill="#ffa8a7"/>
            <path id="Trazado_841631" data-name="Trazado 841631" d="M24.4,128.937s0,.372,0,.585.249.529.9.506c.457-.016.776-.139.758-.515v-.542Z" fill="#ffa8a7"/>
            <path id="Trazado_841632" data-name="Trazado 841632" d="M19.823,119.5a6.535,6.535,0,0,1,.383-2.379s-.243-2.033-.4-4.544a10.962,10.962,0,0,1,1.346-6.569s5.93-.389,6.014,2.281c.113,3.616.042,10.107-.046,11.279s-.087.089-.371,2.461c-.225,1.876-.691,6.941-.691,6.941a1.756,1.756,0,0,1-1.656-.034s-.524-6.2-.469-7.55a15.378,15.378,0,0,1,.16-2.071s-.749-5.344-.865-6.205c0,0-.1,1.54-.192,2.712s-.081,2.115-.328,4.539c-.193,1.9-.663,6.006-.663,6.006a1.572,1.572,0,0,1-1.4-.1s-.857-5.426-.823-6.764" fill="#455a64"/>
            <path id="Trazado_841633" data-name="Trazado 841633" d="M23.226,113.111l-.121-1.295a4.89,4.89,0,0,1-1.955-.74,2.654,2.654,0,0,0,1.558.971l.258,1.262.068,2.514Z" fill="#37474f"/>
            <path id="Trazado_841634" data-name="Trazado 841634" d="M25.081,97.747l-.3,2.476-2.177-.2.248-2.749Z" fill="#ffa8a7"/>
            <path id="Trazado_841635" data-name="Trazado 841635" d="M20.479,99.807A1.524,1.524,0,0,1,22.1,98.629c.218.04.409.072.615.113.019.571,1.094.866,2.165.52q.483.138.885.282c.766.274,1.436,1.736,1.453,3.865s-.362,5.515-.362,5.515a3.733,3.733,0,0,1-4.311,1.011c-2.125-.691-2.483-1.292-2.483-1.292s.741-1.765,1.258-3.219c-1.155-3.07-1.2-4.65-.845-5.617" fill="#ffa8a7"/>
            <path id="Trazado_841636" data-name="Trazado 841636" d="M20.479,99.807A1.524,1.524,0,0,1,22.1,98.629c.218.04.409.072.615.113.019.571,1.094.866,2.165.52q.483.138.885.282c.766.274,1.436,1.736,1.453,3.865s.076,8.5.076,8.5-.617-.425-1.076-2.415a3.322,3.322,0,0,1-4.244,2.824c-2.126-.691-2.2-1.609-2.333-2.628a17.464,17.464,0,0,1,1.679-4.27c-1.155-3.07-1.2-4.65-.845-5.617" fill="#4adbd1"/>
            <path id="Trazado_841637" data-name="Trazado 841637" d="M26.7,94.6a1.912,1.912,0,0,0-.164-1.841c-.731-1.148-2.14-1.343-3.81-.9a2.964,2.964,0,0,0-2.089,2.689c-.079,1.225,3.336,2.128,3.258,2.967Z" fill="#263238"/>
            <path id="Trazado_841638" data-name="Trazado 841638" d="M26.772,95.066s.463.743.4.819a1.161,1.161,0,0,1-.374.149Z" fill="#f28f8f"/>
            <circle id="Elipse_8701" data-name="Elipse 8701" cx="0.531" cy="0.531" r="0.531" transform="translate(26.15 94.39)" fill="none" stroke="#263238" stroke-miterlimit="10" stroke-width="0.078"/>
            <path id="Trazado_841639" data-name="Trazado 841639" d="M25.359,92.713a2.671,2.671,0,0,1,1.424,2.46c.167,1.782-.245,2.388-.494,2.614a2.288,2.288,0,0,1-1.448.039,4.579,4.579,0,0,1-2.256-1.739c-.628-1.1-.725-2.536.049-3.079a2.836,2.836,0,0,1,2.725-.3" fill="#ffa8a7"/>
            <path id="Trazado_841640" data-name="Trazado 841640" d="M25.143,97.52l-.078.359a2.551,2.551,0,0,0,1.147-.049,1.966,1.966,0,0,1-.417-.05,2.692,2.692,0,0,1-.652-.26" fill="#f28f8f"/>
            <path id="Trazado_841641" data-name="Trazado 841641" d="M25.336,94.809a1.764,1.764,0,0,0,1.13-1.423c.175-1.13-1.237-1.609-1.237-1.609Z" fill="#263238"/>
            <path id="Trazado_841642" data-name="Trazado 841642" d="M25.5,92.791a4.743,4.743,0,0,1-.152,2.641s-.27-.64-.819-.473a.741.741,0,0,0-.158,1.284.557.557,0,0,0,.714.01,3.661,3.661,0,0,1-.82,1.3,2.26,2.26,0,0,1-2.836-.745c-1.275-1.439-.91-4,.915-4.542a3.369,3.369,0,0,1,3.156.521" fill="#263238"/>
            <path id="Trazado_841643" data-name="Trazado 841643" d="M31.28,103.467c.316-.361.368-1.158.79-1.707s.344-1.1.608-.856c.283.264.067,1.146.067,1.146a5.366,5.366,0,0,1,.532,1.375c.041.466-1.191,1.635-1.191,1.635Z" fill="#ffa8a7"/>
            <path id="Trazado_841644" data-name="Trazado 841644" d="M32.678,101.987s.5.7,2.746-.213c.621-.252.2,1.082-.559,1.635-.705.512-1.587.67-2.292,1.147,0-.068.1-2.569.1-2.569" fill="#ffa8a7"/>
            <path id="Trazado_841645" data-name="Trazado 841645" d="M25.579,99.479a2.081,2.081,0,0,1,2,1.547c.637,1.5,1.964,4.325,1.964,4.325l1.74-1.884s.253-.356.724.422.263.993.263.993-2.024,2.711-2.4,3.056-.982.077-1.38-.466-2.527-3.957-2.527-3.957-1.29-2.672-.385-4.036" fill="#ffa8a7"/>
            <path id="Trazado_841646" data-name="Trazado 841646" d="M20.81,93.7c-.387.991-.746,5.169-.033,6.527A3.744,3.744,0,0,0,24.809,102c.8-.287,1.871-.962,1.221-1.934a3.254,3.254,0,0,0-.634-.634,1.6,1.6,0,0,1-.441-.647,6.131,6.131,0,0,1,.126-2.532s-.215.787-1.692.364c-.674-.192-2.579-2.92-2.579-2.92" fill="#263238"/>
          </g>
        </g>
      </g>
    </g>
  </g>
</svg>
