<svg xmlns="http://www.w3.org/2000/svg" width="63" height="63" viewBox="0 0 63 63">
  <g id="Grupo_1038480" data-name="Grupo 1038480" transform="translate(-1080 -4606)">
    <g id="Grupo_1038479" data-name="Grupo 1038479" transform="translate(856 2320)">
      <rect id="Rect치ngulo_32442" data-name="Rect치ngulo 32442" width="31" height="31" transform="translate(256 2286)" fill="#57dbd8"/>
    </g>
    <rect id="Rect치ngulo_389349" data-name="Rect치ngulo 389349" width="63" height="63" transform="translate(1080 4606)" fill="none"/>
    <g id="layer1" transform="translate(951.94 4462.795)">
      <path id="path26127" d="M159.228,195.465a5.97,5.97,0,0,1-3.54-1.794,5.862,5.862,0,0,1-1.7-3.9,6.038,6.038,0,0,1,4.685-6.174,4.528,4.528,0,0,1,1.284-.116,5.386,5.386,0,0,1,2.684.576,6.037,6.037,0,0,1,.41,10.625,6.09,6.09,0,0,1-3.821.779Zm-6.249-13.512a26.4,26.4,0,0,1-2.739-2.739c-.084-.173-.095-.277-.081-.8a1.684,1.684,0,0,1,.118-.8,11.559,11.559,0,0,1,1.711-1.677,13.253,13.253,0,0,1,5.205-2.53,13.952,13.952,0,0,1,5.668,0,13.256,13.256,0,0,1,5.206,2.53,9.514,9.514,0,0,1,1.72,1.714,4.1,4.1,0,0,1,.068,1.489,23.116,23.116,0,0,1-2.788,2.811,1.411,1.411,0,0,1-1.011.007,2.043,2.043,0,0,1-.509-.441,7.964,7.964,0,0,0-1.705-1.4,7.407,7.407,0,0,0-8.58.675,8.521,8.521,0,0,0-.755.721,2.043,2.043,0,0,1-.509.441,1.431,1.431,0,0,1-1.02-.009Zm-7.049-7.014a29.593,29.593,0,0,1-2.808-2.835,3.445,3.445,0,0,1-.036-.735,1.634,1.634,0,0,1,.117-.773,20.784,20.784,0,0,1,3.143-2.915,23.691,23.691,0,0,1,6.62-3.45,22.9,22.9,0,0,1,15.466.49,23.891,23.891,0,0,1,5.276,2.96,20.783,20.783,0,0,1,3.143,2.915,1.647,1.647,0,0,1,.117.773,3.5,3.5,0,0,1-.036.735,27.755,27.755,0,0,1-2.846,2.855,1.559,1.559,0,0,1-.924-.006,2.744,2.744,0,0,1-.68-.6,17.222,17.222,0,0,0-6.847-4.338,17.687,17.687,0,0,0-11.214,0,17.222,17.222,0,0,0-6.847,4.338,2.744,2.744,0,0,1-.68.6,1.5,1.5,0,0,1-.963-.014Zm-7.1-7.126a22.908,22.908,0,0,1-2.731-2.766,3.2,3.2,0,0,1-.04-.751,1.633,1.633,0,0,1,.117-.772A23.6,23.6,0,0,1,139,160.806a32.572,32.572,0,0,1,16.326-7.307,37.68,37.68,0,0,1,9.4,0,32.572,32.572,0,0,1,16.326,7.307,23.6,23.6,0,0,1,2.824,2.717,1.645,1.645,0,0,1,.117.772,3.313,3.313,0,0,1-.04.751,21.536,21.536,0,0,1-2.748,2.769,1.432,1.432,0,0,1-1.018-.006,6.183,6.183,0,0,1-.993-.861,26.443,26.443,0,0,0-6.814-4.9,27.136,27.136,0,0,0-10.173-2.869,31.8,31.8,0,0,0-5.6.133,27.037,27.037,0,0,0-8.938,2.736,26.442,26.442,0,0,0-6.814,4.9,6.19,6.19,0,0,1-.993.861,1.5,1.5,0,0,1-1.034,0Z" transform="translate(0 0)" fill="#0a3d91"/>
    </g>
  </g>
</svg>
