<svg xmlns="http://www.w3.org/2000/svg" xmlns:xlink="http://www.w3.org/1999/xlink" width="63" height="63" viewBox="0 0 63 63">
  <defs>
    <clipPath id="clip-path">
      <rect id="Rectángulo_389347" data-name="Rectángulo 389347" width="34" height="52" transform="translate(0 0.457)" fill="none"/>
    </clipPath>
  </defs>
  <g id="Grupo_1038481" data-name="Grupo 1038481" transform="translate(-459 -4606)">
    <g id="Grupo_77443" data-name="Grupo 77443" transform="translate(235 2320)">
      <rect id="Rectángulo_32442" data-name="Rectángulo 32442" width="31" height="31" transform="translate(256 2286)" fill="#57dbd8"/>
    </g>
    <g id="Grupo_1038478" data-name="Grupo 1038478" transform="translate(472.853 4611.943)">
      <g id="Grupo_1038477" data-name="Grupo 1038477" transform="translate(0.148 -0.4)" clip-path="url(#clip-path)">
        <path id="Trazado_833678" data-name="Trazado 833678" d="M15.524,0h3.094A15.524,15.524,0,0,1,34.143,15.524V36.544A15.524,15.524,0,0,1,18.619,52.068H15.524A15.524,15.524,0,0,1,0,36.544V15.524A15.524,15.524,0,0,1,15.524,0" transform="translate(-0.072 0.194)" fill="#0a3d91"/>
        <path id="Trazado_833679" data-name="Trazado 833679" d="M146.219,149.5V131.758l-6.026,5.907-1.979-2.019,7.522-7.374-7.535-7.585,2.006-1.993,6.012,6.052V107.839l11.194,12.945-7.665,7.514,7.633,7.683Zm2.827-17.893v10.029l4.523-5.476Zm0-16.173v9.6l4.49-4.4Z" transform="translate(-130.9 -101.892)" fill="#fff"/>
      </g>
    </g>
    <rect id="Rectángulo_389348" data-name="Rectángulo 389348" width="63" height="63" transform="translate(459 4606)" fill="none"/>
  </g>
</svg>
