<svg xmlns="http://www.w3.org/2000/svg" width="359.041" height="212.469" viewBox="0 0 359.041 212.469">
  <g id="Grupo_1045404" data-name="Grupo 1045404" transform="translate(11744 1107.354)">
    <path id="Trazado_853426" data-name="Trazado 853426" d="M349.676,125.5H308.743v-100A20.367,20.367,0,0,0,288.376,5.138H25.506A20.367,20.367,0,0,0,5.139,25.506v97.427H0V25.506A25.507,25.507,0,0,1,25.506,0h262.87a25.505,25.505,0,0,1,25.5,25.506v94.859h35.794Z" transform="translate(-11744 -1107.354)" fill="#727997"/>
    <path id="Trazado_853427" data-name="Trazado 853427" d="M346.145,169.841l22.182-12.809-22.182-12.81Z" transform="translate(-11753.286 -1141.15)" fill="#727997"/>
    <path id="Trazado_853433" data-name="Trazado 853433" d="M284.695,303.152H274.477a2.569,2.569,0,1,1,0-5.139h10.218a2.569,2.569,0,0,1,0,5.139m-30.657,0H243.819a2.569,2.569,0,0,1,0-5.139h10.219a2.569,2.569,0,0,1,0,5.139m-30.657,0H213.163a2.569,2.569,0,0,1,0-5.139h10.219a2.569,2.569,0,0,1,0,5.139m-30.657,0H182.506a2.569,2.569,0,0,1,0-5.139h10.219a2.569,2.569,0,0,1,0,5.139m-30.657,0H151.849a2.569,2.569,0,0,1,0-5.139h10.219a2.569,2.569,0,0,1,0,5.139m-30.656,0h-10.22a2.569,2.569,0,0,1,0-5.139h10.22a2.569,2.569,0,0,1,0,5.139m-30.657,0H90.536a2.569,2.569,0,0,1,0-5.139h10.22a2.569,2.569,0,0,1,0,5.139m-30.657,0H59.879a2.569,2.569,0,0,1,0-5.139H70.1a2.569,2.569,0,0,1,0,5.139m-30.657,0H29.223a2.569,2.569,0,0,1,0-5.139h10.22a2.569,2.569,0,0,1,0,5.139m-29.214-5.829a2.557,2.557,0,0,1-1.709-.653q-.538-.48-1.048-.989a25.355,25.355,0,0,1-5.5-8.185,2.569,2.569,0,1,1,4.739-1.983,20.263,20.263,0,0,0,4.39,6.535c.271.271.55.536.835.789a2.569,2.569,0,0,1-1.711,4.485M303.68,297.3a2.569,2.569,0,0,1-1.715-4.482c.279-.251.551-.508.817-.775a20.288,20.288,0,0,0,4.4-6.56,2.569,2.569,0,0,1,4.742,1.978,25.436,25.436,0,0,1-5.513,8.22c-.333.331-.673.654-1.018.963a2.565,2.565,0,0,1-1.713.656M2.569,268.873A2.57,2.57,0,0,1,0,266.3V256.085a2.569,2.569,0,0,1,5.139,0V266.3a2.57,2.57,0,0,1-2.569,2.569m308.743-.035a2.57,2.57,0,0,1-2.569-2.568V256.048a2.569,2.569,0,0,1,5.138,0v10.222a2.57,2.57,0,0,1-2.568,2.568" transform="translate(-11744 -1198.038)" fill="#727997"/>
  </g>
</svg>
