<svg xmlns="http://www.w3.org/2000/svg" width="1027.999" height="457.001" viewBox="0 0 1027.999 457.001">
  <g id="Grupo_1045395" data-name="Grupo 1045395" transform="translate(-286 -6070.999)">
    <path id="Trazado_780036" data-name="Trazado 780036" d="M49.58,99.159a49.58,49.58,0,1,1,49.58-49.58A49.58,49.58,0,0,1,49.58,99.159Z" transform="translate(1214.84 6401.037)" fill="#ffca28" opacity="0.444" style="mix-blend-mode: multiply;isolation: isolate"/>
    <path id="Trazado_853387" data-name="Trazado 853387" d="M0,0H1022.651V147.137H0Z" transform="translate(291.348 6355.576)" fill="none"/>
    <path id="Trazado_780037" data-name="Trazado 780037" d="M5.658,11.317a5.658,5.658,0,1,1,5.658-5.658A5.658,5.658,0,0,1,5.658,11.317Z" transform="translate(1280.326 6176.289)" fill="#31313c" opacity="0.444" style="mix-blend-mode: multiply;isolation: isolate"/>
    <g id="Grupo_1033206" data-name="Grupo 1033206" transform="translate(340.999 6320.277) rotate(-90)">
      <path id="Trazado_145968" data-name="Trazado 145968" d="M54.64,0A54.639,54.639,0,1,1,0,54.639,54.639,54.639,0,0,1,54.64,0Z" fill="#31313c" opacity="0.444" style="mix-blend-mode: multiply;isolation: isolate"/>
      <g id="Grupo_78276" data-name="Grupo 78276" transform="translate(21.333 22.588)">
        <g id="Grupo_53306" data-name="Grupo 53306" transform="translate(0 0)">
          <path id="Trazado_99200" data-name="Trazado 99200" d="M1.484.709a.726.726,0,0,1-.742.71A.726.726,0,0,1,0,.709.726.726,0,0,1,.742,0,.726.726,0,0,1,1.484.709Z" fill="#fff"/>
          <path id="Trazado_99201" data-name="Trazado 99201" d="M1.484.709a.726.726,0,0,1-.742.71A.726.726,0,0,1,0,.709.726.726,0,0,1,.742,0,.726.726,0,0,1,1.484.709Z" transform="translate(6.677)" fill="#fff"/>
          <path id="Trazado_99202" data-name="Trazado 99202" d="M1.484.709a.726.726,0,0,1-.741.71A.727.727,0,0,1,0,.709.727.727,0,0,1,.742,0,.726.726,0,0,1,1.484.709Z" transform="translate(13.354)" fill="#fff"/>
          <path id="Trazado_99203" data-name="Trazado 99203" d="M1.484.709a.726.726,0,0,1-.742.71A.726.726,0,0,1,0,.709.726.726,0,0,1,.741,0,.726.726,0,0,1,1.484.709Z" transform="translate(20.032)" fill="#fff"/>
          <path id="Trazado_99204" data-name="Trazado 99204" d="M1.484.709a.726.726,0,0,1-.742.71A.726.726,0,0,1,0,.709.726.726,0,0,1,.742,0,.726.726,0,0,1,1.484.709Z" transform="translate(26.71)" fill="#fff"/>
          <path id="Trazado_99205" data-name="Trazado 99205" d="M1.484.709a.726.726,0,0,1-.742.71A.727.727,0,0,1,0,.709.727.727,0,0,1,.742,0,.726.726,0,0,1,1.484.709Z" transform="translate(33.387)" fill="#fff"/>
          <path id="Trazado_99206" data-name="Trazado 99206" d="M1.484.709a.727.727,0,0,1-.742.71A.726.726,0,0,1,0,.709.726.726,0,0,1,.742,0,.727.727,0,0,1,1.484.709Z" transform="translate(40.065)" fill="#fff"/>
          <path id="Trazado_99207" data-name="Trazado 99207" d="M1.484.709a.726.726,0,0,1-.742.71A.726.726,0,0,1,0,.709.726.726,0,0,1,.742,0,.726.726,0,0,1,1.484.709Z" transform="translate(46.742)" fill="#fff"/>
          <path id="Trazado_99208" data-name="Trazado 99208" d="M1.484.709a.726.726,0,0,1-.742.71A.727.727,0,0,1,0,.709.727.727,0,0,1,.742,0,.726.726,0,0,1,1.484.709Z" transform="translate(53.419)" fill="#fff"/>
          <path id="Trazado_99209" data-name="Trazado 99209" d="M1.484.709a.727.727,0,0,1-.742.71A.726.726,0,0,1,0,.709.726.726,0,0,1,.742,0,.727.727,0,0,1,1.484.709Z" transform="translate(60.097)" fill="#fff"/>
          <path id="Trazado_99210" data-name="Trazado 99210" d="M1.484.709a.726.726,0,0,1-.742.71A.726.726,0,0,1,0,.709.726.726,0,0,1,.742,0,.726.726,0,0,1,1.484.709Z" transform="translate(66.774)" fill="#fff"/>
        </g>
        <g id="Grupo_53307" data-name="Grupo 53307" transform="translate(0 5.676)">
          <path id="Trazado_99211" data-name="Trazado 99211" d="M1.484.709a.726.726,0,0,1-.742.71A.726.726,0,0,1,0,.709.726.726,0,0,1,.742,0,.726.726,0,0,1,1.484.709Z" fill="#fff"/>
          <path id="Trazado_99212" data-name="Trazado 99212" d="M1.484.709a.726.726,0,0,1-.742.71A.726.726,0,0,1,0,.709.726.726,0,0,1,.742,0,.726.726,0,0,1,1.484.709Z" transform="translate(6.677)" fill="#fff"/>
          <path id="Trazado_99213" data-name="Trazado 99213" d="M1.484.709a.726.726,0,0,1-.741.71A.727.727,0,0,1,0,.709.727.727,0,0,1,.742,0,.726.726,0,0,1,1.484.709Z" transform="translate(13.354)" fill="#fff"/>
          <path id="Trazado_99214" data-name="Trazado 99214" d="M1.484.709a.726.726,0,0,1-.742.71A.726.726,0,0,1,0,.709.726.726,0,0,1,.741,0,.726.726,0,0,1,1.484.709Z" transform="translate(20.032)" fill="#fff"/>
          <path id="Trazado_99215" data-name="Trazado 99215" d="M1.484.709a.726.726,0,0,1-.742.71A.726.726,0,0,1,0,.709.726.726,0,0,1,.742,0,.726.726,0,0,1,1.484.709Z" transform="translate(26.71)" fill="#fff"/>
          <path id="Trazado_99216" data-name="Trazado 99216" d="M1.484.709a.726.726,0,0,1-.742.71A.727.727,0,0,1,0,.709.727.727,0,0,1,.742,0,.726.726,0,0,1,1.484.709Z" transform="translate(33.387)" fill="#fff"/>
          <path id="Trazado_99217" data-name="Trazado 99217" d="M1.484.709a.727.727,0,0,1-.742.71A.726.726,0,0,1,0,.709.726.726,0,0,1,.742,0,.727.727,0,0,1,1.484.709Z" transform="translate(40.065)" fill="#fff"/>
          <path id="Trazado_99218" data-name="Trazado 99218" d="M1.484.709a.726.726,0,0,1-.742.71A.726.726,0,0,1,0,.709.726.726,0,0,1,.742,0,.726.726,0,0,1,1.484.709Z" transform="translate(46.742)" fill="#fff"/>
          <path id="Trazado_99219" data-name="Trazado 99219" d="M1.484.709a.726.726,0,0,1-.742.71A.727.727,0,0,1,0,.709.727.727,0,0,1,.742,0,.726.726,0,0,1,1.484.709Z" transform="translate(53.419)" fill="#fff"/>
          <path id="Trazado_99220" data-name="Trazado 99220" d="M1.484.709a.727.727,0,0,1-.742.71A.726.726,0,0,1,0,.709.726.726,0,0,1,.742,0,.727.727,0,0,1,1.484.709Z" transform="translate(60.097)" fill="#fff"/>
          <path id="Trazado_99221" data-name="Trazado 99221" d="M1.484.709a.726.726,0,0,1-.742.71A.726.726,0,0,1,0,.709.726.726,0,0,1,.742,0,.726.726,0,0,1,1.484.709Z" transform="translate(66.774)" fill="#fff"/>
        </g>
        <g id="Grupo_53308" data-name="Grupo 53308" transform="translate(0 11.353)">
          <ellipse id="Elipse_3955" data-name="Elipse 3955" cx="0.742" cy="0.71" rx="0.742" ry="0.71" transform="translate(0 0)" fill="#fff"/>
          <path id="Trazado_99222" data-name="Trazado 99222" d="M1.484.709a.726.726,0,0,1-.742.71A.727.727,0,0,1,0,.709.726.726,0,0,1,.742,0,.726.726,0,0,1,1.484.709Z" transform="translate(6.677 0)" fill="#fff"/>
          <ellipse id="Elipse_3956" data-name="Elipse 3956" cx="0.742" cy="0.71" rx="0.742" ry="0.71" transform="translate(13.355 0)" fill="#fff"/>
          <path id="Trazado_99223" data-name="Trazado 99223" d="M1.484.709a.727.727,0,0,1-.742.71A.726.726,0,0,1,0,.709.726.726,0,0,1,.741,0,.726.726,0,0,1,1.484.709Z" transform="translate(20.032 0)" fill="#fff"/>
          <path id="Trazado_99224" data-name="Trazado 99224" d="M1.484.709a.727.727,0,0,1-.742.71A.727.727,0,0,1,0,.709.726.726,0,0,1,.742,0,.726.726,0,0,1,1.484.709Z" transform="translate(26.71 0)" fill="#fff"/>
          <ellipse id="Elipse_3957" data-name="Elipse 3957" cx="0.742" cy="0.71" rx="0.742" ry="0.71" transform="translate(33.387 0)" fill="#fff"/>
          <path id="Trazado_99225" data-name="Trazado 99225" d="M1.484.709a.727.727,0,0,1-.742.71A.727.727,0,0,1,0,.709.726.726,0,0,1,.742,0,.727.727,0,0,1,1.484.709Z" transform="translate(40.065 0)" fill="#fff"/>
          <ellipse id="Elipse_3958" data-name="Elipse 3958" cx="0.742" cy="0.71" rx="0.742" ry="0.71" transform="translate(46.742 0)" fill="#fff"/>
          <ellipse id="Elipse_3959" data-name="Elipse 3959" cx="0.742" cy="0.71" rx="0.742" ry="0.71" transform="translate(53.42 0)" fill="#fff"/>
          <path id="Trazado_99226" data-name="Trazado 99226" d="M1.484.709a.727.727,0,0,1-.742.71A.727.727,0,0,1,0,.709.726.726,0,0,1,.742,0,.727.727,0,0,1,1.484.709Z" transform="translate(60.097 0)" fill="#fff"/>
          <path id="Trazado_99227" data-name="Trazado 99227" d="M1.484.709a.727.727,0,0,1-.742.71A.727.727,0,0,1,0,.709.726.726,0,0,1,.742,0,.726.726,0,0,1,1.484.709Z" transform="translate(66.774 0)" fill="#fff"/>
        </g>
        <g id="Grupo_53309" data-name="Grupo 53309" transform="translate(0 17.028)">
          <ellipse id="Elipse_3960" data-name="Elipse 3960" cx="0.742" cy="0.71" rx="0.742" ry="0.71" transform="translate(0 0)" fill="#fff"/>
          <path id="Trazado_99228" data-name="Trazado 99228" d="M1.484.71a.726.726,0,0,1-.742.709A.726.726,0,0,1,0,.71.727.727,0,0,1,.742,0,.727.727,0,0,1,1.484.71Z" transform="translate(6.677 0)" fill="#fff"/>
          <ellipse id="Elipse_3961" data-name="Elipse 3961" cx="0.742" cy="0.71" rx="0.742" ry="0.71" transform="translate(13.355 0)" fill="#fff"/>
          <path id="Trazado_99229" data-name="Trazado 99229" d="M1.484.71a.726.726,0,0,1-.742.709A.726.726,0,0,1,0,.71.726.726,0,0,1,.741,0,.727.727,0,0,1,1.484.71Z" transform="translate(20.032 0)" fill="#fff"/>
          <path id="Trazado_99230" data-name="Trazado 99230" d="M1.484.71a.726.726,0,0,1-.742.709A.726.726,0,0,1,0,.71.727.727,0,0,1,.742,0,.727.727,0,0,1,1.484.71Z" transform="translate(26.71 0)" fill="#fff"/>
          <ellipse id="Elipse_3962" data-name="Elipse 3962" cx="0.742" cy="0.71" rx="0.742" ry="0.71" transform="translate(33.387 0)" fill="#fff"/>
          <path id="Trazado_99231" data-name="Trazado 99231" d="M1.484.71a.727.727,0,0,1-.742.709A.726.726,0,0,1,0,.71.727.727,0,0,1,.742,0,.727.727,0,0,1,1.484.71Z" transform="translate(40.065 0)" fill="#fff"/>
          <ellipse id="Elipse_3963" data-name="Elipse 3963" cx="0.742" cy="0.71" rx="0.742" ry="0.71" transform="translate(46.742 0)" fill="#fff"/>
          <ellipse id="Elipse_3964" data-name="Elipse 3964" cx="0.742" cy="0.71" rx="0.742" ry="0.71" transform="translate(53.42 0)" fill="#fff"/>
          <path id="Trazado_99232" data-name="Trazado 99232" d="M1.484.71a.727.727,0,0,1-.742.709A.726.726,0,0,1,0,.71.727.727,0,0,1,.742,0,.727.727,0,0,1,1.484.71Z" transform="translate(60.097 0)" fill="#fff"/>
          <path id="Trazado_99233" data-name="Trazado 99233" d="M1.484.71a.726.726,0,0,1-.742.709A.726.726,0,0,1,0,.71.727.727,0,0,1,.742,0,.727.727,0,0,1,1.484.71Z" transform="translate(66.774 0)" fill="#fff"/>
        </g>
        <g id="Grupo_53310" data-name="Grupo 53310" transform="translate(0 22.705)">
          <path id="Trazado_99234" data-name="Trazado 99234" d="M1.484.71a.726.726,0,0,1-.742.709A.726.726,0,0,1,0,.71.726.726,0,0,1,.742,0,.726.726,0,0,1,1.484.71Z" fill="#fff"/>
          <path id="Trazado_99235" data-name="Trazado 99235" d="M1.484.71a.726.726,0,0,1-.742.709A.726.726,0,0,1,0,.71.726.726,0,0,1,.742,0,.726.726,0,0,1,1.484.71Z" transform="translate(6.677)" fill="#fff"/>
          <path id="Trazado_99236" data-name="Trazado 99236" d="M1.484.71a.726.726,0,0,1-.741.709A.727.727,0,0,1,0,.71.727.727,0,0,1,.742,0,.726.726,0,0,1,1.484.71Z" transform="translate(13.354)" fill="#fff"/>
          <path id="Trazado_99237" data-name="Trazado 99237" d="M1.484.71a.726.726,0,0,1-.742.709A.726.726,0,0,1,0,.71.726.726,0,0,1,.741,0,.726.726,0,0,1,1.484.71Z" transform="translate(20.032)" fill="#fff"/>
          <path id="Trazado_99238" data-name="Trazado 99238" d="M1.484.71a.726.726,0,0,1-.742.709A.726.726,0,0,1,0,.71.726.726,0,0,1,.742,0,.726.726,0,0,1,1.484.71Z" transform="translate(26.71)" fill="#fff"/>
          <path id="Trazado_99239" data-name="Trazado 99239" d="M1.484.71a.726.726,0,0,1-.742.709A.727.727,0,0,1,0,.71.727.727,0,0,1,.742,0,.726.726,0,0,1,1.484.71Z" transform="translate(33.387)" fill="#fff"/>
          <path id="Trazado_99240" data-name="Trazado 99240" d="M1.484.71a.727.727,0,0,1-.742.709A.726.726,0,0,1,0,.71.726.726,0,0,1,.742,0,.727.727,0,0,1,1.484.71Z" transform="translate(40.065)" fill="#fff"/>
          <path id="Trazado_99241" data-name="Trazado 99241" d="M1.484.71a.726.726,0,0,1-.742.709A.726.726,0,0,1,0,.71.726.726,0,0,1,.742,0,.726.726,0,0,1,1.484.71Z" transform="translate(46.742)" fill="#fff"/>
          <path id="Trazado_99242" data-name="Trazado 99242" d="M1.484.71a.726.726,0,0,1-.742.709A.727.727,0,0,1,0,.71.727.727,0,0,1,.742,0,.726.726,0,0,1,1.484.71Z" transform="translate(53.419)" fill="#fff"/>
          <path id="Trazado_99243" data-name="Trazado 99243" d="M1.484.71a.727.727,0,0,1-.742.709A.726.726,0,0,1,0,.71.726.726,0,0,1,.742,0,.727.727,0,0,1,1.484.71Z" transform="translate(60.097)" fill="#fff"/>
          <path id="Trazado_99244" data-name="Trazado 99244" d="M1.484.71a.726.726,0,0,1-.742.709A.726.726,0,0,1,0,.71.726.726,0,0,1,.742,0,.726.726,0,0,1,1.484.71Z" transform="translate(66.774)" fill="#fff"/>
        </g>
        <g id="Grupo_53311" data-name="Grupo 53311" transform="translate(0 28.381)">
          <ellipse id="Elipse_3965" data-name="Elipse 3965" cx="0.742" cy="0.71" rx="0.742" ry="0.71" transform="translate(0 0)" fill="#fff"/>
          <path id="Trazado_99245" data-name="Trazado 99245" d="M1.484.71a.726.726,0,0,1-.742.709A.726.726,0,0,1,0,.71.726.726,0,0,1,.742,0,.726.726,0,0,1,1.484.71Z" transform="translate(6.677 0)" fill="#fff"/>
          <ellipse id="Elipse_3966" data-name="Elipse 3966" cx="0.742" cy="0.71" rx="0.742" ry="0.71" transform="translate(13.355 0)" fill="#fff"/>
          <path id="Trazado_99246" data-name="Trazado 99246" d="M1.484.71a.726.726,0,0,1-.742.709A.726.726,0,0,1,0,.71.726.726,0,0,1,.741,0,.726.726,0,0,1,1.484.71Z" transform="translate(20.032 0)" fill="#fff"/>
          <path id="Trazado_99247" data-name="Trazado 99247" d="M1.484.71a.726.726,0,0,1-.742.709A.726.726,0,0,1,0,.71.726.726,0,0,1,.742,0,.726.726,0,0,1,1.484.71Z" transform="translate(26.71 0)" fill="#fff"/>
          <ellipse id="Elipse_3967" data-name="Elipse 3967" cx="0.742" cy="0.71" rx="0.742" ry="0.71" transform="translate(33.387 0)" fill="#fff"/>
          <path id="Trazado_99248" data-name="Trazado 99248" d="M1.484.71a.727.727,0,0,1-.742.709A.726.726,0,0,1,0,.71.726.726,0,0,1,.742,0,.727.727,0,0,1,1.484.71Z" transform="translate(40.065 0)" fill="#fff"/>
          <ellipse id="Elipse_3968" data-name="Elipse 3968" cx="0.742" cy="0.71" rx="0.742" ry="0.71" transform="translate(46.742 0)" fill="#fff"/>
          <ellipse id="Elipse_3969" data-name="Elipse 3969" cx="0.742" cy="0.71" rx="0.742" ry="0.71" transform="translate(53.42 0)" fill="#fff"/>
          <path id="Trazado_99249" data-name="Trazado 99249" d="M1.484.71a.727.727,0,0,1-.742.709A.726.726,0,0,1,0,.71.726.726,0,0,1,.742,0,.727.727,0,0,1,1.484.71Z" transform="translate(60.097 0)" fill="#fff"/>
          <path id="Trazado_99250" data-name="Trazado 99250" d="M1.484.71a.726.726,0,0,1-.742.709A.726.726,0,0,1,0,.71.726.726,0,0,1,.742,0,.726.726,0,0,1,1.484.71Z" transform="translate(66.774 0)" fill="#fff"/>
        </g>
        <g id="Grupo_53312" data-name="Grupo 53312" transform="translate(0 34.057)">
          <ellipse id="Elipse_3970" data-name="Elipse 3970" cx="0.742" cy="0.71" rx="0.742" ry="0.71" transform="translate(0 0)" fill="#fff"/>
          <path id="Trazado_99251" data-name="Trazado 99251" d="M1.484.709a.726.726,0,0,1-.742.71A.726.726,0,0,1,0,.709.726.726,0,0,1,.742,0,.726.726,0,0,1,1.484.709Z" transform="translate(6.677 0)" fill="#fff"/>
          <ellipse id="Elipse_3971" data-name="Elipse 3971" cx="0.742" cy="0.71" rx="0.742" ry="0.71" transform="translate(13.355 0)" fill="#fff"/>
          <path id="Trazado_99252" data-name="Trazado 99252" d="M1.484.709a.726.726,0,0,1-.742.71A.726.726,0,0,1,0,.709.726.726,0,0,1,.741,0,.726.726,0,0,1,1.484.709Z" transform="translate(20.032 0)" fill="#fff"/>
          <path id="Trazado_99253" data-name="Trazado 99253" d="M1.484.709a.726.726,0,0,1-.742.71A.726.726,0,0,1,0,.709.726.726,0,0,1,.742,0,.726.726,0,0,1,1.484.709Z" transform="translate(26.71 0)" fill="#fff"/>
          <ellipse id="Elipse_3972" data-name="Elipse 3972" cx="0.742" cy="0.71" rx="0.742" ry="0.71" transform="translate(33.387 0)" fill="#fff"/>
          <path id="Trazado_99254" data-name="Trazado 99254" d="M1.484.709a.727.727,0,0,1-.742.71A.726.726,0,0,1,0,.709.726.726,0,0,1,.742,0,.727.727,0,0,1,1.484.709Z" transform="translate(40.065 0)" fill="#fff"/>
          <ellipse id="Elipse_3973" data-name="Elipse 3973" cx="0.742" cy="0.71" rx="0.742" ry="0.71" transform="translate(46.742 0)" fill="#fff"/>
          <ellipse id="Elipse_3974" data-name="Elipse 3974" cx="0.742" cy="0.71" rx="0.742" ry="0.71" transform="translate(53.42 0)" fill="#fff"/>
          <path id="Trazado_99255" data-name="Trazado 99255" d="M1.484.709a.727.727,0,0,1-.742.71A.726.726,0,0,1,0,.709.726.726,0,0,1,.742,0,.727.727,0,0,1,1.484.709Z" transform="translate(60.097 0)" fill="#fff"/>
          <path id="Trazado_99256" data-name="Trazado 99256" d="M1.484.709a.726.726,0,0,1-.742.71A.726.726,0,0,1,0,.709.726.726,0,0,1,.742,0,.726.726,0,0,1,1.484.709Z" transform="translate(66.774 0)" fill="#fff"/>
        </g>
        <g id="Grupo_53313" data-name="Grupo 53313" transform="translate(0 39.734)">
          <path id="Trazado_99257" data-name="Trazado 99257" d="M1.484.709a.726.726,0,0,1-.742.71A.726.726,0,0,1,0,.709.726.726,0,0,1,.742,0,.726.726,0,0,1,1.484.709Z" fill="#fff"/>
          <path id="Trazado_99258" data-name="Trazado 99258" d="M1.484.709a.726.726,0,0,1-.742.71A.726.726,0,0,1,0,.709.726.726,0,0,1,.742,0,.726.726,0,0,1,1.484.709Z" transform="translate(6.677)" fill="#fff"/>
          <path id="Trazado_99259" data-name="Trazado 99259" d="M1.484.709a.726.726,0,0,1-.741.71A.727.727,0,0,1,0,.709.727.727,0,0,1,.742,0,.726.726,0,0,1,1.484.709Z" transform="translate(13.354)" fill="#fff"/>
          <path id="Trazado_99260" data-name="Trazado 99260" d="M1.484.709a.726.726,0,0,1-.742.71A.726.726,0,0,1,0,.709.726.726,0,0,1,.741,0,.726.726,0,0,1,1.484.709Z" transform="translate(20.032)" fill="#fff"/>
          <path id="Trazado_99261" data-name="Trazado 99261" d="M1.484.709a.726.726,0,0,1-.742.71A.726.726,0,0,1,0,.709.726.726,0,0,1,.742,0,.726.726,0,0,1,1.484.709Z" transform="translate(26.71)" fill="#fff"/>
          <path id="Trazado_99262" data-name="Trazado 99262" d="M1.484.709a.726.726,0,0,1-.742.71A.727.727,0,0,1,0,.709.727.727,0,0,1,.742,0,.726.726,0,0,1,1.484.709Z" transform="translate(33.387)" fill="#fff"/>
          <path id="Trazado_99263" data-name="Trazado 99263" d="M1.484.709a.727.727,0,0,1-.742.71A.726.726,0,0,1,0,.709.726.726,0,0,1,.742,0,.727.727,0,0,1,1.484.709Z" transform="translate(40.065)" fill="#fff"/>
          <path id="Trazado_99264" data-name="Trazado 99264" d="M1.484.709a.726.726,0,0,1-.742.71A.726.726,0,0,1,0,.709.726.726,0,0,1,.742,0,.726.726,0,0,1,1.484.709Z" transform="translate(46.742)" fill="#fff"/>
          <path id="Trazado_99265" data-name="Trazado 99265" d="M1.484.709a.726.726,0,0,1-.742.71A.727.727,0,0,1,0,.709.727.727,0,0,1,.742,0,.726.726,0,0,1,1.484.709Z" transform="translate(53.419)" fill="#fff"/>
          <path id="Trazado_99266" data-name="Trazado 99266" d="M1.484.709a.727.727,0,0,1-.742.71A.726.726,0,0,1,0,.709.726.726,0,0,1,.742,0,.727.727,0,0,1,1.484.709Z" transform="translate(60.097)" fill="#fff"/>
          <path id="Trazado_99267" data-name="Trazado 99267" d="M1.484.709a.726.726,0,0,1-.742.71A.726.726,0,0,1,0,.709.726.726,0,0,1,.742,0,.726.726,0,0,1,1.484.709Z" transform="translate(66.774)" fill="#fff"/>
        </g>
        <g id="Grupo_53314" data-name="Grupo 53314" transform="translate(0 45.41)">
          <ellipse id="Elipse_3975" data-name="Elipse 3975" cx="0.742" cy="0.71" rx="0.742" ry="0.71" transform="translate(0 0)" fill="#fff"/>
          <path id="Trazado_99268" data-name="Trazado 99268" d="M1.484.709a.727.727,0,0,1-.742.71A.727.727,0,0,1,0,.709.726.726,0,0,1,.742,0,.726.726,0,0,1,1.484.709Z" transform="translate(6.677 0)" fill="#fff"/>
          <ellipse id="Elipse_3976" data-name="Elipse 3976" cx="0.742" cy="0.71" rx="0.742" ry="0.71" transform="translate(13.355 0)" fill="#fff"/>
          <path id="Trazado_99269" data-name="Trazado 99269" d="M1.484.709a.727.727,0,0,1-.742.71A.726.726,0,0,1,0,.709.726.726,0,0,1,.741,0,.726.726,0,0,1,1.484.709Z" transform="translate(20.032 0)" fill="#fff"/>
          <path id="Trazado_99270" data-name="Trazado 99270" d="M1.484.709a.727.727,0,0,1-.742.71A.727.727,0,0,1,0,.709.726.726,0,0,1,.742,0,.726.726,0,0,1,1.484.709Z" transform="translate(26.71 0)" fill="#fff"/>
          <ellipse id="Elipse_3977" data-name="Elipse 3977" cx="0.742" cy="0.71" rx="0.742" ry="0.71" transform="translate(33.387 0)" fill="#fff"/>
          <path id="Trazado_99271" data-name="Trazado 99271" d="M1.484.709a.727.727,0,0,1-.742.71A.727.727,0,0,1,0,.709.726.726,0,0,1,.742,0,.727.727,0,0,1,1.484.709Z" transform="translate(40.065 0)" fill="#fff"/>
          <ellipse id="Elipse_3978" data-name="Elipse 3978" cx="0.742" cy="0.71" rx="0.742" ry="0.71" transform="translate(46.742 0)" fill="#fff"/>
          <ellipse id="Elipse_3979" data-name="Elipse 3979" cx="0.742" cy="0.71" rx="0.742" ry="0.71" transform="translate(53.42 0)" fill="#fff"/>
          <path id="Trazado_99272" data-name="Trazado 99272" d="M1.484.709a.727.727,0,0,1-.742.71A.727.727,0,0,1,0,.709.726.726,0,0,1,.742,0,.727.727,0,0,1,1.484.709Z" transform="translate(60.097 0)" fill="#fff"/>
          <path id="Trazado_99273" data-name="Trazado 99273" d="M1.484.709a.727.727,0,0,1-.742.71A.727.727,0,0,1,0,.709.726.726,0,0,1,.742,0,.726.726,0,0,1,1.484.709Z" transform="translate(66.774 0)" fill="#fff"/>
        </g>
        <g id="Grupo_53315" data-name="Grupo 53315" transform="translate(0 51.086)">
          <path id="Trazado_99274" data-name="Trazado 99274" d="M1.484.71a.727.727,0,0,1-.742.71A.727.727,0,0,1,0,.71.727.727,0,0,1,.742,0,.727.727,0,0,1,1.484.71Z" fill="#fff"/>
          <path id="Trazado_99275" data-name="Trazado 99275" d="M1.484.71a.727.727,0,0,1-.742.71A.727.727,0,0,1,0,.71.727.727,0,0,1,.742,0,.726.726,0,0,1,1.484.71Z" transform="translate(6.677)" fill="#fff"/>
          <path id="Trazado_99276" data-name="Trazado 99276" d="M1.484.71a.727.727,0,0,1-.741.71A.727.727,0,0,1,0,.71.727.727,0,0,1,.742,0,.727.727,0,0,1,1.484.71Z" transform="translate(13.354)" fill="#fff"/>
          <path id="Trazado_99277" data-name="Trazado 99277" d="M1.484.71a.727.727,0,0,1-.742.71A.726.726,0,0,1,0,.71.726.726,0,0,1,.741,0,.727.727,0,0,1,1.484.71Z" transform="translate(20.032)" fill="#fff"/>
          <path id="Trazado_99278" data-name="Trazado 99278" d="M1.484.71a.727.727,0,0,1-.742.71A.727.727,0,0,1,0,.71.727.727,0,0,1,.742,0,.727.727,0,0,1,1.484.71Z" transform="translate(26.71)" fill="#fff"/>
          <path id="Trazado_99279" data-name="Trazado 99279" d="M1.484.71a.727.727,0,0,1-.742.71A.727.727,0,0,1,0,.71.727.727,0,0,1,.742,0,.727.727,0,0,1,1.484.71Z" transform="translate(33.387)" fill="#fff"/>
          <path id="Trazado_99280" data-name="Trazado 99280" d="M1.484.71a.727.727,0,0,1-.742.71A.727.727,0,0,1,0,.71.727.727,0,0,1,.742,0,.727.727,0,0,1,1.484.71Z" transform="translate(40.065)" fill="#fff"/>
          <path id="Trazado_99281" data-name="Trazado 99281" d="M1.484.71a.727.727,0,0,1-.742.71A.727.727,0,0,1,0,.71.727.727,0,0,1,.742,0,.727.727,0,0,1,1.484.71Z" transform="translate(46.742)" fill="#fff"/>
          <path id="Trazado_99282" data-name="Trazado 99282" d="M1.484.71a.727.727,0,0,1-.742.71A.727.727,0,0,1,0,.71.727.727,0,0,1,.742,0,.727.727,0,0,1,1.484.71Z" transform="translate(53.419)" fill="#fff"/>
          <path id="Trazado_99283" data-name="Trazado 99283" d="M1.484.71a.727.727,0,0,1-.742.71A.727.727,0,0,1,0,.71.727.727,0,0,1,.742,0,.727.727,0,0,1,1.484.71Z" transform="translate(60.097)" fill="#fff"/>
          <path id="Trazado_99284" data-name="Trazado 99284" d="M1.484.71a.727.727,0,0,1-.742.71A.727.727,0,0,1,0,.71.727.727,0,0,1,.742,0,.727.727,0,0,1,1.484.71Z" transform="translate(66.774)" fill="#fff"/>
        </g>
        <g id="Grupo_53316" data-name="Grupo 53316" transform="translate(0 56.762)">
          <ellipse id="Elipse_3980" data-name="Elipse 3980" cx="0.742" cy="0.71" rx="0.742" ry="0.71" transform="translate(0 0)" fill="#fff"/>
          <path id="Trazado_99285" data-name="Trazado 99285" d="M1.484.71a.726.726,0,0,1-.742.709A.726.726,0,0,1,0,.71.727.727,0,0,1,.742,0,.727.727,0,0,1,1.484.71Z" transform="translate(6.677 0)" fill="#fff"/>
          <ellipse id="Elipse_3981" data-name="Elipse 3981" cx="0.742" cy="0.71" rx="0.742" ry="0.71" transform="translate(13.355 0)" fill="#fff"/>
          <path id="Trazado_99286" data-name="Trazado 99286" d="M1.484.71a.726.726,0,0,1-.742.709A.726.726,0,0,1,0,.71.726.726,0,0,1,.741,0,.727.727,0,0,1,1.484.71Z" transform="translate(20.032 0)" fill="#fff"/>
          <path id="Trazado_99287" data-name="Trazado 99287" d="M1.484.71a.726.726,0,0,1-.742.709A.726.726,0,0,1,0,.71.727.727,0,0,1,.742,0,.727.727,0,0,1,1.484.71Z" transform="translate(26.71 0)" fill="#fff"/>
          <ellipse id="Elipse_3982" data-name="Elipse 3982" cx="0.742" cy="0.71" rx="0.742" ry="0.71" transform="translate(33.387 0)" fill="#fff"/>
          <path id="Trazado_99288" data-name="Trazado 99288" d="M1.484.71a.727.727,0,0,1-.742.709A.726.726,0,0,1,0,.71.727.727,0,0,1,.742,0,.727.727,0,0,1,1.484.71Z" transform="translate(40.065 0)" fill="#fff"/>
          <ellipse id="Elipse_3983" data-name="Elipse 3983" cx="0.742" cy="0.71" rx="0.742" ry="0.71" transform="translate(46.742 0)" fill="#fff"/>
          <ellipse id="Elipse_3984" data-name="Elipse 3984" cx="0.742" cy="0.71" rx="0.742" ry="0.71" transform="translate(53.42 0)" fill="#fff"/>
          <path id="Trazado_99289" data-name="Trazado 99289" d="M1.484.71a.727.727,0,0,1-.742.709A.726.726,0,0,1,0,.71.727.727,0,0,1,.742,0,.727.727,0,0,1,1.484.71Z" transform="translate(60.097 0)" fill="#fff"/>
          <path id="Trazado_99290" data-name="Trazado 99290" d="M1.484.71a.726.726,0,0,1-.742.709A.726.726,0,0,1,0,.71.727.727,0,0,1,.742,0,.727.727,0,0,1,1.484.71Z" transform="translate(66.774 0)" fill="#fff"/>
        </g>
        <g id="Grupo_53317" data-name="Grupo 53317" transform="translate(0 62.439)">
          <ellipse id="Elipse_3985" data-name="Elipse 3985" cx="0.742" cy="0.71" rx="0.742" ry="0.71" transform="translate(0 0)" fill="#fff"/>
          <path id="Trazado_99291" data-name="Trazado 99291" d="M1.484.71a.726.726,0,0,1-.742.709A.726.726,0,0,1,0,.71.726.726,0,0,1,.742,0,.726.726,0,0,1,1.484.71Z" transform="translate(6.677 0)" fill="#fff"/>
          <ellipse id="Elipse_3986" data-name="Elipse 3986" cx="0.742" cy="0.71" rx="0.742" ry="0.71" transform="translate(13.355 0)" fill="#fff"/>
          <path id="Trazado_99292" data-name="Trazado 99292" d="M1.484.71a.726.726,0,0,1-.742.709A.726.726,0,0,1,0,.71.726.726,0,0,1,.741,0,.726.726,0,0,1,1.484.71Z" transform="translate(20.032 0)" fill="#fff"/>
          <path id="Trazado_99293" data-name="Trazado 99293" d="M1.484.71a.726.726,0,0,1-.742.709A.726.726,0,0,1,0,.71.726.726,0,0,1,.742,0,.726.726,0,0,1,1.484.71Z" transform="translate(26.71 0)" fill="#fff"/>
          <ellipse id="Elipse_3987" data-name="Elipse 3987" cx="0.742" cy="0.71" rx="0.742" ry="0.71" transform="translate(33.387 0)" fill="#fff"/>
          <path id="Trazado_99294" data-name="Trazado 99294" d="M1.484.71a.727.727,0,0,1-.742.709A.726.726,0,0,1,0,.71.726.726,0,0,1,.742,0,.727.727,0,0,1,1.484.71Z" transform="translate(40.065 0)" fill="#fff"/>
          <ellipse id="Elipse_3988" data-name="Elipse 3988" cx="0.742" cy="0.71" rx="0.742" ry="0.71" transform="translate(46.742 0)" fill="#fff"/>
          <ellipse id="Elipse_3989" data-name="Elipse 3989" cx="0.742" cy="0.71" rx="0.742" ry="0.71" transform="translate(53.42 0)" fill="#fff"/>
          <path id="Trazado_99295" data-name="Trazado 99295" d="M1.484.71a.727.727,0,0,1-.742.709A.726.726,0,0,1,0,.71.726.726,0,0,1,.742,0,.727.727,0,0,1,1.484.71Z" transform="translate(60.097 0)" fill="#fff"/>
          <path id="Trazado_99296" data-name="Trazado 99296" d="M1.484.71a.726.726,0,0,1-.742.709A.726.726,0,0,1,0,.71.726.726,0,0,1,.742,0,.726.726,0,0,1,1.484.71Z" transform="translate(66.774 0)" fill="#fff"/>
        </g>
      </g>
    </g>
    <path id="Trazado_853388" data-name="Trazado 853388" d="M0,105.662V0" transform="translate(1301.86 6371.617)" fill="none" stroke="#31313c" stroke-linecap="round" stroke-width="4" stroke-dasharray="8"/>
    <path id="Trazado_853416" data-name="Trazado 853416" d="M104,208A103.537,103.537,0,0,1,45.852,190.24,104.282,104.282,0,0,1,8.173,144.482a103.875,103.875,0,0,1,9.588-98.629A104.293,104.293,0,0,1,63.519,8.173a103.862,103.862,0,0,1,98.628,9.589,104.289,104.289,0,0,1,37.679,45.759,103.875,103.875,0,0,1-9.588,98.629,104.288,104.288,0,0,1-45.757,37.679A103.35,103.35,0,0,1,104,208Zm0-176a72,72,0,1,0,72,72A72.082,72.082,0,0,0,104,32Z" transform="translate(493.998 6279) rotate(180)" fill="#5573c6" opacity="0.58"/>
    <path id="Trazado_853389" data-name="Trazado 853389" d="M0,0H820V424H0Z" transform="translate(391 6104)" fill="none"/>
    <path id="Trazado_853239" data-name="Trazado 853239" d="M-11541-5395.85V-5448h302v52.15" transform="translate(12039.501 11769)" fill="none" stroke="#707070" stroke-linecap="round" stroke-width="2" stroke-dasharray="0 4"/>
    <path id="Trazado_853240" data-name="Trazado 853240" d="M-11390-5521.8V-5548h271v36" transform="translate(12040 11769)" fill="none" stroke="#707070" stroke-linecap="round" stroke-width="2" stroke-dasharray="0 4"/>
    <path id="Trazado_853241" data-name="Trazado 853241" d="M-11390-5483.133v32.867" transform="translate(12040 11769)" fill="none" stroke="#707070" stroke-linecap="round" stroke-width="2" stroke-dasharray="0 4"/>
    <path id="Trazado_853395" data-name="Trazado 853395" d="M0,0H40" transform="translate(950.5 6271.5)" fill="none" stroke="#707070" stroke-linecap="round" stroke-width="2" stroke-dasharray="0 4"/>
    <path id="Trazado_853407" data-name="Trazado 853407" d="M0,0V49" transform="translate(800.5 6170.5)" fill="none" stroke="#707070" stroke-linecap="round" stroke-width="2" stroke-dasharray="0 4"/>
    <path id="Trazado_853242" data-name="Trazado 853242" d="M0,0V61.367" transform="translate(1103.5 6312.5)" fill="none" stroke="#707070" stroke-linecap="round" stroke-width="2" stroke-dasharray="0 4"/>
    <path id="Trazado_853410" data-name="Trazado 853410" d="M10,0H206a10,10,0,0,1,10,10V140a10,10,0,0,1-10,10H10A10,10,0,0,1,0,140V10A10,10,0,0,1,10,0Z" transform="translate(391 6378)" fill="#4adbd1"/>
    <g id="Trazado_853411" data-name="Trazado 853411" transform="translate(398 6385)" fill="none">
      <path d="M10,0H192a10,10,0,0,1,10,10V126a10,10,0,0,1-10,10H10A10,10,0,0,1,0,126V10A10,10,0,0,1,10,0Z" stroke="none"/>
      <path d="M 10 2 C 5.588790893554688 2 2 5.588790893554688 2 10 L 2 126 C 2 130.4112091064453 5.588790893554688 134 10 134 L 192 134 C 196.4112091064453 134 200 130.4112091064453 200 126 L 200 10 C 200 5.588790893554688 196.4112091064453 2 192 2 L 10 2 M 10 0 L 192 0 C 197.5228424072266 0 202 4.477157592773438 202 10 L 202 126 C 202 131.5228424072266 197.5228424072266 136 192 136 L 10 136 C 4.477157592773438 136 0 131.5228424072266 0 126 L 0 10 C 0 4.477157592773438 4.477157592773438 0 10 0 Z" stroke="none" fill="#fff"/>
    </g>
    <path id="Trazado_853412" data-name="Trazado 853412" d="M65.523,11.211A4.025,4.025,0,0,1,64.168,14.1a4.76,4.76,0,0,1-3.223,1.055A4.281,4.281,0,0,1,57.5,13.684,6.038,6.038,0,0,1,56.25,9.641v-.7a6.819,6.819,0,0,1,.578-2.891A4.332,4.332,0,0,1,58.48,4.137a5.164,5.164,0,0,1,5.668.387,4.326,4.326,0,0,1,1.391,2.961H63.2a2.376,2.376,0,0,0-.613-1.6,2.271,2.271,0,0,0-1.605-.5,1.991,1.991,0,0,0-1.754.84,4.707,4.707,0,0,0-.6,2.605V9.7a5.038,5.038,0,0,0,.559,2.7,1.954,1.954,0,0,0,1.762.852,2.314,2.314,0,0,0,1.621-.5,2.241,2.241,0,0,0,.613-1.535ZM69.3,15H67.031V3H69.3Zm4.242,0H71.273V6.547h2.266Zm-2.4-10.641a1.112,1.112,0,0,1,.34-.836,1.465,1.465,0,0,1,1.848,0,1.105,1.105,0,0,1,.344.836,1.108,1.108,0,0,1-.348.844,1.448,1.448,0,0,1-1.836,0A1.108,1.108,0,0,1,71.141,4.359Zm8.148,10.8a4.15,4.15,0,0,1-3.027-1.141,4.054,4.054,0,0,1-1.168-3.039v-.219a5.106,5.106,0,0,1,.492-2.277A3.612,3.612,0,0,1,76.98,6.934a3.914,3.914,0,0,1,2.059-.543,3.508,3.508,0,0,1,2.73,1.094,4.444,4.444,0,0,1,1,3.1v.922H77.383a2.1,2.1,0,0,0,.66,1.328,2,2,0,0,0,1.395.5,2.437,2.437,0,0,0,2.039-.945l1.109,1.242a3.389,3.389,0,0,1-1.375,1.121A4.511,4.511,0,0,1,79.289,15.156Zm-.258-6.945a1.411,1.411,0,0,0-1.09.455,2.357,2.357,0,0,0-.535,1.3h3.141V9.788a1.681,1.681,0,0,0-.406-1.165A1.456,1.456,0,0,0,79.031,8.211Zm7.094-1.664.07.977a2.951,2.951,0,0,1,2.43-1.133,2.453,2.453,0,0,1,2,.789A3.682,3.682,0,0,1,91.3,9.539V15H89.039V9.581a1.47,1.47,0,0,0-.312-1.045,1.4,1.4,0,0,0-1.039-.325,1.553,1.553,0,0,0-1.43.814V15H84V6.547Zm9.586-2.078V6.547h1.445V8.2H95.711v4.219a1.007,1.007,0,0,0,.18.672.9.9,0,0,0,.688.2,3.6,3.6,0,0,0,.664-.055v1.711a4.648,4.648,0,0,1-1.367.2,2.156,2.156,0,0,1-2.422-2.4V8.2H92.219V6.547h1.234V4.469ZM102.3,15.156a4.15,4.15,0,0,1-3.027-1.141,4.054,4.054,0,0,1-1.168-3.039v-.219A5.106,5.106,0,0,1,98.6,8.48,3.612,3.612,0,0,1,100,6.934a3.914,3.914,0,0,1,2.059-.543,3.508,3.508,0,0,1,2.73,1.094,4.444,4.444,0,0,1,1,3.1v.922H100.4a2.1,2.1,0,0,0,.66,1.328,2,2,0,0,0,1.395.5,2.437,2.437,0,0,0,2.039-.945l1.109,1.242a3.389,3.389,0,0,1-1.375,1.121A4.511,4.511,0,0,1,102.3,15.156Zm-.258-6.945a1.411,1.411,0,0,0-1.09.455,2.357,2.357,0,0,0-.535,1.3h3.141V9.788a1.681,1.681,0,0,0-.406-1.165A1.456,1.456,0,0,0,102.047,8.211Zm9.594,4.453a.727.727,0,0,0-.41-.652,4.659,4.659,0,0,0-1.316-.426q-3.016-.633-3.016-2.562a2.323,2.323,0,0,1,.934-1.879,3.766,3.766,0,0,1,2.441-.754,4.053,4.053,0,0,1,2.574.758,2.388,2.388,0,0,1,.965,1.969h-2.258a1.092,1.092,0,0,0-.312-.8A1.322,1.322,0,0,0,110.266,8a1.351,1.351,0,0,0-.883.258.814.814,0,0,0-.312.656.7.7,0,0,0,.355.605,3.657,3.657,0,0,0,1.2.4,9.8,9.8,0,0,1,1.422.379,2.336,2.336,0,0,1,1.789,2.273,2.2,2.2,0,0,1-.992,1.871,4.28,4.28,0,0,1-2.562.715,4.47,4.47,0,0,1-1.887-.379,3.166,3.166,0,0,1-1.293-1.039,2.414,2.414,0,0,1-.469-1.426h2.141a1.179,1.179,0,0,0,.445.922,1.766,1.766,0,0,0,1.109.32,1.635,1.635,0,0,0,.98-.246A.766.766,0,0,0,111.641,12.664Z" transform="translate(414 6403)" fill="#12263f"/>
    <path id="Trazado_853398" data-name="Trazado 853398" d="M10,0H206a10,10,0,0,1,10,10V140a10,10,0,0,1-10,10H10A10,10,0,0,1,0,140V10A10,10,0,0,1,10,0Z" transform="translate(693 6378)" fill="#f0dcc0"/>
    <g id="Trazado_853400" data-name="Trazado 853400" transform="translate(700 6385)" fill="none">
      <path d="M10,0H192a10,10,0,0,1,10,10V126a10,10,0,0,1-10,10H10A10,10,0,0,1,0,126V10A10,10,0,0,1,10,0Z" stroke="none"/>
      <path d="M 10 2 C 5.588790893554688 2 2 5.588790893554688 2 10 L 2 126 C 2 130.4112091064453 5.588790893554688 134 10 134 L 192 134 C 196.4112091064453 134 200 130.4112091064453 200 126 L 200 10 C 200 5.588790893554688 196.4112091064453 2 192 2 L 10 2 M 10 0 L 192 0 C 197.5228424072266 0 202 4.477157592773438 202 10 L 202 126 C 202 131.5228424072266 197.5228424072266 136 192 136 L 10 136 C 4.477157592773438 136 0 131.5228424072266 0 126 L 0 10 C 0 4.477157592773438 4.477157592773438 0 10 0 Z" stroke="none" fill="#fff"/>
    </g>
    <path id="Trazado_853402" data-name="Trazado 853402" d="M53.207,12.016A1.2,1.2,0,0,0,52.738,11a6.148,6.148,0,0,0-1.687-.75,11.963,11.963,0,0,1-1.93-.777,3.153,3.153,0,0,1-1.937-2.82A2.747,2.747,0,0,1,47.7,5,3.389,3.389,0,0,1,49.2,3.875a5.616,5.616,0,0,1,2.184-.406,5.112,5.112,0,0,1,2.172.441,3.458,3.458,0,0,1,1.48,1.246,3.261,3.261,0,0,1,.527,1.828H53.215a1.534,1.534,0,0,0-.492-1.215,2.023,2.023,0,0,0-1.383-.434A2.162,2.162,0,0,0,50,5.7a1.146,1.146,0,0,0-.477.957,1.1,1.1,0,0,0,.559.93,6.311,6.311,0,0,0,1.645.7,7.106,7.106,0,0,1,2.914,1.492A2.972,2.972,0,0,1,55.559,12a2.737,2.737,0,0,1-1.117,2.316,4.891,4.891,0,0,1-3.008.84,5.808,5.808,0,0,1-2.391-.48A3.783,3.783,0,0,1,47.4,13.359a3.371,3.371,0,0,1-.566-1.937h2.352q0,1.883,2.25,1.883a2.189,2.189,0,0,0,1.3-.34A1.106,1.106,0,0,0,53.207,12.016Zm7.68,3.141a4.15,4.15,0,0,1-3.027-1.141,4.054,4.054,0,0,1-1.168-3.039v-.219a5.106,5.106,0,0,1,.492-2.277,3.612,3.612,0,0,1,1.395-1.547,3.914,3.914,0,0,1,2.059-.543,3.508,3.508,0,0,1,2.73,1.094,4.444,4.444,0,0,1,1,3.1v.922H58.98a2.1,2.1,0,0,0,.66,1.328,2,2,0,0,0,1.395.5,2.437,2.437,0,0,0,2.039-.945l1.109,1.242a3.389,3.389,0,0,1-1.375,1.121A4.511,4.511,0,0,1,60.887,15.156Zm-.258-6.945a1.411,1.411,0,0,0-1.09.455A2.357,2.357,0,0,0,59,9.969h3.141V9.788a1.681,1.681,0,0,0-.406-1.165A1.456,1.456,0,0,0,60.629,8.211Zm9.766.453a6.134,6.134,0,0,0-.812-.062,1.654,1.654,0,0,0-1.68.867V15H65.645V6.547h2.133l.063,1.008a2.092,2.092,0,0,1,1.883-1.164,2.366,2.366,0,0,1,.7.1Zm4.391,3.578,1.57-5.7h2.359L75.863,15H73.707L70.855,6.547h2.359ZM82.09,15H79.824V6.547H82.09Zm-2.4-10.641a1.112,1.112,0,0,1,.34-.836,1.465,1.465,0,0,1,1.848,0,1.105,1.105,0,0,1,.344.836,1.108,1.108,0,0,1-.348.844,1.448,1.448,0,0,1-1.836,0A1.108,1.108,0,0,1,79.691,4.359ZM83.6,10.711a5.094,5.094,0,0,1,.887-3.148A2.877,2.877,0,0,1,86.91,6.391a2.589,2.589,0,0,1,2.039.922V3h2.266V15H89.176l-.109-.9a2.657,2.657,0,0,1-2.172,1.055A2.869,2.869,0,0,1,84.5,13.98,5.258,5.258,0,0,1,83.6,10.711Zm2.258.161A3.355,3.355,0,0,0,86.27,12.7a1.348,1.348,0,0,0,1.2.636,1.51,1.51,0,0,0,1.477-.887V9.1a1.489,1.489,0,0,0-1.461-.887Q85.855,8.211,85.855,10.872Zm6.758-.176A5.013,5.013,0,0,1,93.1,8.453,3.546,3.546,0,0,1,94.492,6.93a4.069,4.069,0,0,1,2.113-.539A3.849,3.849,0,0,1,99.4,7.438a4.2,4.2,0,0,1,1.207,2.844l.016.578a4.418,4.418,0,0,1-1.086,3.121,4.209,4.209,0,0,1-5.832,0,4.5,4.5,0,0,1-1.09-3.187Zm2.258.16a3.16,3.16,0,0,0,.453,1.843,1.628,1.628,0,0,0,2.578.008,3.457,3.457,0,0,0,.461-2.015A3.128,3.128,0,0,0,97.9,8.86a1.5,1.5,0,0,0-1.3-.649,1.474,1.474,0,0,0-1.281.646A3.516,3.516,0,0,0,94.871,10.856Zm11.891-2.192a6.134,6.134,0,0,0-.812-.062,1.654,1.654,0,0,0-1.68.867V15h-2.258V6.547h2.133l.063,1.008a2.092,2.092,0,0,1,1.883-1.164,2.366,2.366,0,0,1,.7.1Zm4.828,6.492a4.15,4.15,0,0,1-3.027-1.141,4.054,4.054,0,0,1-1.168-3.039v-.219a5.106,5.106,0,0,1,.492-2.277,3.612,3.612,0,0,1,1.395-1.547,3.914,3.914,0,0,1,2.059-.543,3.508,3.508,0,0,1,2.73,1.094,4.444,4.444,0,0,1,1,3.1v.922h-5.383a2.1,2.1,0,0,0,.66,1.328,2,2,0,0,0,1.395.5,2.437,2.437,0,0,0,2.039-.945l1.109,1.242a3.389,3.389,0,0,1-1.375,1.121A4.511,4.511,0,0,1,111.59,15.156Zm-.258-6.945a1.411,1.411,0,0,0-1.09.455,2.357,2.357,0,0,0-.535,1.3h3.141V9.788a1.681,1.681,0,0,0-.406-1.165A1.456,1.456,0,0,0,111.332,8.211Zm9.594,4.453a.727.727,0,0,0-.41-.652,4.659,4.659,0,0,0-1.316-.426q-3.016-.633-3.016-2.562a2.323,2.323,0,0,1,.934-1.879,3.766,3.766,0,0,1,2.441-.754,4.053,4.053,0,0,1,2.574.758,2.388,2.388,0,0,1,.965,1.969H120.84a1.092,1.092,0,0,0-.312-.8A1.322,1.322,0,0,0,119.551,8a1.351,1.351,0,0,0-.883.258.814.814,0,0,0-.312.656.7.7,0,0,0,.355.605,3.657,3.657,0,0,0,1.2.4,9.8,9.8,0,0,1,1.422.379,2.336,2.336,0,0,1,1.789,2.273,2.2,2.2,0,0,1-.992,1.871,4.28,4.28,0,0,1-2.562.715,4.47,4.47,0,0,1-1.887-.379,3.166,3.166,0,0,1-1.293-1.039,2.414,2.414,0,0,1-.469-1.426h2.141a1.179,1.179,0,0,0,.445.922,1.766,1.766,0,0,0,1.109.32,1.635,1.635,0,0,0,.98-.246A.766.766,0,0,0,120.926,12.664Z" transform="translate(716 6403)" fill="#12263f"/>
    <path id="Trazado_853399" data-name="Trazado 853399" d="M10,0H206a10,10,0,0,1,10,10V79a10,10,0,0,1-10,10H10A10,10,0,0,1,0,79V10A10,10,0,0,1,10,0Z" transform="translate(693 6104)" fill="#5573c6"/>
    <g id="Trazado_853401" data-name="Trazado 853401" transform="translate(700 6111)" fill="none">
      <path d="M10,0H192a10,10,0,0,1,10,10V65a10,10,0,0,1-10,10H10A10,10,0,0,1,0,65V10A10,10,0,0,1,10,0Z" stroke="none"/>
      <path d="M 10 2 C 5.588790893554688 2 2 5.588790893554688 2 10 L 2 65 C 2 69.41120910644531 5.588790893554688 73 10 73 L 192 73 C 196.4112091064453 73 200 69.41120910644531 200 65 L 200 10 C 200 5.588790893554688 196.4112091064453 2 192 2 L 10 2 M 10 0 L 192 0 C 197.5228424072266 0 202 4.477157592773438 202 10 L 202 65 C 202 70.52284240722656 197.5228424072266 75 192 75 L 10 75 C 4.477157592773438 75 0 70.52284240722656 0 65 L 0 10 C 0 4.477157592773438 4.477157592773438 0 10 0 Z" stroke="none" fill="#fff"/>
    </g>
    <path id="Trazado_853403" data-name="Trazado 853403" d="M26.4,15H24.055V10.125h-4.57V15H17.141V3.625h2.344V8.234h4.57V3.625H26.4Zm1.547-4.3a5.013,5.013,0,0,1,.484-2.242A3.546,3.546,0,0,1,29.824,6.93a4.069,4.069,0,0,1,2.113-.539A3.849,3.849,0,0,1,34.73,7.438a4.2,4.2,0,0,1,1.207,2.844l.016.578a4.418,4.418,0,0,1-1.086,3.121,3.775,3.775,0,0,1-2.914,1.176,3.793,3.793,0,0,1-2.918-1.172,4.5,4.5,0,0,1-1.09-3.187Zm2.258.16a3.16,3.16,0,0,0,.453,1.843,1.628,1.628,0,0,0,2.578.008,3.457,3.457,0,0,0,.461-2.015,3.128,3.128,0,0,0-.461-1.831,1.5,1.5,0,0,0-1.3-.649,1.474,1.474,0,0,0-1.281.646A3.516,3.516,0,0,0,30.2,10.856Zm11.719,1.808a.727.727,0,0,0-.41-.652,4.659,4.659,0,0,0-1.316-.426q-3.016-.633-3.016-2.562a2.323,2.323,0,0,1,.934-1.879,3.766,3.766,0,0,1,2.441-.754,4.053,4.053,0,0,1,2.574.758,2.388,2.388,0,0,1,.965,1.969H41.836a1.092,1.092,0,0,0-.312-.8A1.322,1.322,0,0,0,40.547,8a1.351,1.351,0,0,0-.883.258.814.814,0,0,0-.312.656.7.7,0,0,0,.355.605,3.657,3.657,0,0,0,1.2.4,9.8,9.8,0,0,1,1.422.379,2.336,2.336,0,0,1,1.789,2.273,2.2,2.2,0,0,1-.992,1.871,4.28,4.28,0,0,1-2.562.715,4.47,4.47,0,0,1-1.887-.379,3.166,3.166,0,0,1-1.293-1.039,2.414,2.414,0,0,1-.469-1.426h2.141a1.179,1.179,0,0,0,.445.922,1.766,1.766,0,0,0,1.109.32,1.635,1.635,0,0,0,.98-.246A.766.766,0,0,0,41.922,12.664Zm6.352-8.2V6.547h1.445V8.2H48.273v4.219a1.007,1.007,0,0,0,.18.672.9.9,0,0,0,.688.2,3.6,3.6,0,0,0,.664-.055v1.711a4.648,4.648,0,0,1-1.367.2,2.156,2.156,0,0,1-2.422-2.4V8.2H44.781V6.547h1.234V4.469Zm7.094,6.57h-4.4V9.219h4.4Zm7.859.977A1.2,1.2,0,0,0,62.758,11a6.148,6.148,0,0,0-1.687-.75,11.963,11.963,0,0,1-1.93-.777A3.153,3.153,0,0,1,57.2,6.648,2.747,2.747,0,0,1,57.723,5a3.389,3.389,0,0,1,1.492-1.129A5.616,5.616,0,0,1,61.4,3.469a5.112,5.112,0,0,1,2.172.441,3.458,3.458,0,0,1,1.48,1.246,3.261,3.261,0,0,1,.527,1.828H63.234a1.534,1.534,0,0,0-.492-1.215,2.023,2.023,0,0,0-1.383-.434,2.162,2.162,0,0,0-1.336.363,1.146,1.146,0,0,0-.477.957,1.1,1.1,0,0,0,.559.93,6.311,6.311,0,0,0,1.645.7,7.106,7.106,0,0,1,2.914,1.492A2.972,2.972,0,0,1,65.578,12a2.737,2.737,0,0,1-1.117,2.316,4.891,4.891,0,0,1-3.008.84,5.808,5.808,0,0,1-2.391-.48,3.783,3.783,0,0,1-1.645-1.316,3.371,3.371,0,0,1-.566-1.937H59.2q0,1.883,2.25,1.883a2.189,2.189,0,0,0,1.3-.34A1.106,1.106,0,0,0,63.227,12.016ZM69.4,15H67.133V6.547H69.4ZM67,4.359a1.112,1.112,0,0,1,.34-.836,1.465,1.465,0,0,1,1.848,0,1.105,1.105,0,0,1,.344.836,1.108,1.108,0,0,1-.348.844,1.448,1.448,0,0,1-1.836,0A1.108,1.108,0,0,1,67,4.359Zm8.836,8.3a.727.727,0,0,0-.41-.652,4.659,4.659,0,0,0-1.316-.426q-3.016-.633-3.016-2.562a2.323,2.323,0,0,1,.934-1.879,3.766,3.766,0,0,1,2.441-.754,4.053,4.053,0,0,1,2.574.758,2.388,2.388,0,0,1,.965,1.969H75.75a1.092,1.092,0,0,0-.312-.8A1.322,1.322,0,0,0,74.461,8a1.351,1.351,0,0,0-.883.258.814.814,0,0,0-.312.656.7.7,0,0,0,.355.605,3.657,3.657,0,0,0,1.2.4,9.8,9.8,0,0,1,1.422.379,2.336,2.336,0,0,1,1.789,2.273,2.2,2.2,0,0,1-.992,1.871,4.28,4.28,0,0,1-2.562.715,4.47,4.47,0,0,1-1.887-.379A3.166,3.166,0,0,1,71.3,13.738a2.414,2.414,0,0,1-.469-1.426h2.141a1.179,1.179,0,0,0,.445.922,1.766,1.766,0,0,0,1.109.32,1.635,1.635,0,0,0,.98-.246A.766.766,0,0,0,75.836,12.664Zm6.352-8.2V6.547h1.445V8.2H82.188v4.219a1.007,1.007,0,0,0,.18.672.9.9,0,0,0,.688.2,3.6,3.6,0,0,0,.664-.055v1.711a4.648,4.648,0,0,1-1.367.2,2.156,2.156,0,0,1-2.422-2.4V8.2H78.7V6.547H79.93V4.469Zm6.594,10.688a4.15,4.15,0,0,1-3.027-1.141,4.054,4.054,0,0,1-1.168-3.039v-.219a5.106,5.106,0,0,1,.492-2.277,3.612,3.612,0,0,1,1.395-1.547,3.914,3.914,0,0,1,2.059-.543,3.508,3.508,0,0,1,2.73,1.094,4.444,4.444,0,0,1,1,3.1v.922H86.875a2.1,2.1,0,0,0,.66,1.328,2,2,0,0,0,1.395.5,2.437,2.437,0,0,0,2.039-.945l1.109,1.242A3.389,3.389,0,0,1,90.7,14.754,4.511,4.511,0,0,1,88.781,15.156Zm-.258-6.945a1.411,1.411,0,0,0-1.09.455,2.357,2.357,0,0,0-.535,1.3h3.141V9.788a1.681,1.681,0,0,0-.406-1.165A1.456,1.456,0,0,0,88.523,8.211Zm7.133-1.664.07.945a2.971,2.971,0,0,1,2.43-1.1A2.255,2.255,0,0,1,100.4,7.68a2.9,2.9,0,0,1,2.539-1.289,2.521,2.521,0,0,1,2.047.8,3.681,3.681,0,0,1,.672,2.41V15h-2.266V9.6a1.616,1.616,0,0,0-.281-1.053,1.245,1.245,0,0,0-.992-.333,1.409,1.409,0,0,0-1.406.971L100.719,15H98.461V9.6a1.6,1.6,0,0,0-.289-1.065,1.257,1.257,0,0,0-.984-.329,1.463,1.463,0,0,0-1.391.8V15H93.539V6.547ZM112.289,15a2.507,2.507,0,0,1-.227-.758,2.732,2.732,0,0,1-2.133.914,3,3,0,0,1-2.059-.719,2.312,2.312,0,0,1-.816-1.812,2.389,2.389,0,0,1,1-2.062,4.915,4.915,0,0,1,2.879-.727h1.039V9.352a1.393,1.393,0,0,0-.3-.937,1.183,1.183,0,0,0-.949-.352,1.345,1.345,0,0,0-.895.273.929.929,0,0,0-.324.75h-2.258a2.268,2.268,0,0,1,.453-1.359,3,3,0,0,1,1.281-.98,4.669,4.669,0,0,1,1.859-.355,3.689,3.689,0,0,1,2.48.785,2.747,2.747,0,0,1,.918,2.207v3.664a4.041,4.041,0,0,0,.336,1.82V15Zm-1.867-1.57a1.945,1.945,0,0,0,.922-.223,1.462,1.462,0,0,0,.625-.6V11.156h-.844q-1.7,0-1.8,1.172l-.008.133a.9.9,0,0,0,.3.7A1.153,1.153,0,0,0,110.422,13.43Zm16.523-3.078h-4.5V15H120.1V3.625h7.406v1.9h-5.062V8.461h4.5ZM131.1,15h-2.266V6.547H131.1ZM128.7,4.359a1.112,1.112,0,0,1,.34-.836,1.465,1.465,0,0,1,1.848,0,1.105,1.105,0,0,1,.344.836,1.109,1.109,0,0,1-.348.844,1.448,1.448,0,0,1-1.836,0A1.109,1.109,0,0,1,128.7,4.359Zm6.336,2.188.07.977a2.951,2.951,0,0,1,2.43-1.133,2.453,2.453,0,0,1,2,.789,3.682,3.682,0,0,1,.672,2.359V15h-2.258V9.581a1.47,1.47,0,0,0-.312-1.045,1.4,1.4,0,0,0-1.039-.325,1.553,1.553,0,0,0-1.43.814V15h-2.258V6.547ZM146.82,15a2.507,2.507,0,0,1-.227-.758,2.732,2.732,0,0,1-2.133.914,3,3,0,0,1-2.059-.719,2.312,2.312,0,0,1-.816-1.812,2.389,2.389,0,0,1,1-2.062,4.915,4.915,0,0,1,2.879-.727H146.5V9.352a1.393,1.393,0,0,0-.3-.937,1.183,1.183,0,0,0-.949-.352,1.345,1.345,0,0,0-.895.273.929.929,0,0,0-.324.75h-2.258a2.268,2.268,0,0,1,.453-1.359,3,3,0,0,1,1.281-.98,4.669,4.669,0,0,1,1.859-.355,3.689,3.689,0,0,1,2.48.785,2.747,2.747,0,0,1,.918,2.207v3.664a4.041,4.041,0,0,0,.336,1.82V15Zm-1.867-1.57a1.945,1.945,0,0,0,.922-.223,1.462,1.462,0,0,0,.625-.6V11.156h-.844q-1.7,0-1.8,1.172l-.008.133a.9.9,0,0,0,.3.7A1.153,1.153,0,0,0,144.953,13.43Zm7.93,1.57h-2.266V3h2.266Z" transform="translate(716 6139)" fill="#fff"/>
    <path id="Trazado_853390" data-name="Trazado 853390" d="M10,0H206a10,10,0,0,1,10,10V79a10,10,0,0,1-10,10H10A10,10,0,0,1,0,79V10A10,10,0,0,1,10,0Z" transform="translate(995 6227)" fill="#f4a338"/>
    <g id="Trazado_853391" data-name="Trazado 853391" transform="translate(1002 6234)" fill="none">
      <path d="M10,0H192a10,10,0,0,1,10,10V65a10,10,0,0,1-10,10H10A10,10,0,0,1,0,65V10A10,10,0,0,1,10,0Z" stroke="none"/>
      <path d="M 10 2 C 5.588790893554688 2 2 5.588790893554688 2 10 L 2 65 C 2 69.41120910644531 5.588790893554688 73 10 73 L 192 73 C 196.4112091064453 73 200 69.41120910644531 200 65 L 200 10 C 200 5.588790893554688 196.4112091064453 2 192 2 L 10 2 M 10 0 L 192 0 C 197.5228424072266 0 202 4.477157592773438 202 10 L 202 65 C 202 70.52284240722656 197.5228424072266 75 192 75 L 10 75 C 4.477157592773438 75 0 70.52284240722656 0 65 L 0 10 C 0 4.477157592773438 4.477157592773438 0 10 0 Z" stroke="none" fill="#fff"/>
    </g>
    <path id="Trazado_853393" data-name="Trazado 853393" d="M38.09,10.992V15H35.746V3.625h4.438a5.134,5.134,0,0,1,2.254.469,3.454,3.454,0,0,1,1.5,1.332,3.714,3.714,0,0,1,.523,1.965,3.266,3.266,0,0,1-1.145,2.637,4.767,4.767,0,0,1-3.168.965Zm0-1.9h2.094A2.059,2.059,0,0,0,41.6,8.656a1.591,1.591,0,0,0,.488-1.25A1.876,1.876,0,0,0,41.6,6.055a1.839,1.839,0,0,0-1.359-.531H38.09Zm12.578-.43a6.134,6.134,0,0,0-.812-.062,1.654,1.654,0,0,0-1.68.867V15H45.918V6.547h2.133l.063,1.008A2.092,2.092,0,0,1,50,6.391a2.366,2.366,0,0,1,.7.1Zm.453,2.031a5.013,5.013,0,0,1,.484-2.242A3.546,3.546,0,0,1,53,6.93a4.069,4.069,0,0,1,2.113-.539,3.849,3.849,0,0,1,2.793,1.047,4.2,4.2,0,0,1,1.207,2.844l.016.578a4.418,4.418,0,0,1-1.086,3.121,4.209,4.209,0,0,1-5.832,0,4.5,4.5,0,0,1-1.09-3.187Zm2.258.16a3.16,3.16,0,0,0,.453,1.843,1.628,1.628,0,0,0,2.578.008,3.457,3.457,0,0,0,.461-2.015A3.128,3.128,0,0,0,56.41,8.86a1.5,1.5,0,0,0-1.3-.649,1.474,1.474,0,0,0-1.281.646A3.516,3.516,0,0,0,53.379,10.856Zm6.813-.145a4.954,4.954,0,0,1,.926-3.133,3,3,0,0,1,2.5-1.187,2.631,2.631,0,0,1,2.164.953l.094-.8h2.047v8.172a3.613,3.613,0,0,1-.5,1.93A3.236,3.236,0,0,1,66,17.9a4.985,4.985,0,0,1-2.141.43,4.635,4.635,0,0,1-1.812-.371A3.217,3.217,0,0,1,60.707,17l1-1.375a2.645,2.645,0,0,0,2.047.945,1.936,1.936,0,0,0,1.4-.48,1.8,1.8,0,0,0,.5-1.363v-.453a2.612,2.612,0,0,1-2.055.883,2.992,2.992,0,0,1-2.465-1.191,4.953,4.953,0,0,1-.941-3.16Zm2.258.161a3.1,3.1,0,0,0,.461,1.809,1.465,1.465,0,0,0,1.266.655,1.567,1.567,0,0,0,1.477-.777V8.988a1.563,1.563,0,0,0-1.461-.777,1.474,1.474,0,0,0-1.277.667A3.5,3.5,0,0,0,62.449,10.872ZM74.4,8.664A6.134,6.134,0,0,0,73.59,8.6a1.654,1.654,0,0,0-1.68.867V15H69.652V6.547h2.133l.063,1.008A2.092,2.092,0,0,1,73.73,6.391a2.366,2.366,0,0,1,.7.1ZM80.152,15a2.507,2.507,0,0,1-.227-.758,2.732,2.732,0,0,1-2.133.914,3,3,0,0,1-2.059-.719,2.312,2.312,0,0,1-.816-1.812,2.389,2.389,0,0,1,1-2.062,4.915,4.915,0,0,1,2.879-.727h1.039V9.352a1.393,1.393,0,0,0-.3-.937,1.183,1.183,0,0,0-.949-.352,1.345,1.345,0,0,0-.895.273.929.929,0,0,0-.324.75H75.105a2.268,2.268,0,0,1,.453-1.359,3,3,0,0,1,1.281-.98A4.669,4.669,0,0,1,78.7,6.391a3.689,3.689,0,0,1,2.48.785A2.747,2.747,0,0,1,82.1,9.383v3.664a4.041,4.041,0,0,0,.336,1.82V15Zm-1.867-1.57a1.945,1.945,0,0,0,.922-.223,1.462,1.462,0,0,0,.625-.6V11.156h-.844q-1.7,0-1.8,1.172l-.008.133a.9.9,0,0,0,.3.7A1.153,1.153,0,0,0,78.285,13.43Zm7.664-6.883.07.945a2.971,2.971,0,0,1,2.43-1.1A2.255,2.255,0,0,1,90.691,7.68,2.9,2.9,0,0,1,93.23,6.391a2.521,2.521,0,0,1,2.047.8,3.681,3.681,0,0,1,.672,2.41V15H93.684V9.6A1.616,1.616,0,0,0,93.4,8.544a1.245,1.245,0,0,0-.992-.333A1.409,1.409,0,0,0,91,9.182L91.012,15H88.754V9.6a1.6,1.6,0,0,0-.289-1.065,1.257,1.257,0,0,0-.984-.329,1.463,1.463,0,0,0-1.391.8V15H83.832V6.547ZM102.582,15a2.507,2.507,0,0,1-.227-.758,2.732,2.732,0,0,1-2.133.914,3,3,0,0,1-2.059-.719,2.312,2.312,0,0,1-.816-1.812,2.389,2.389,0,0,1,1-2.062,4.915,4.915,0,0,1,2.879-.727h1.039V9.352a1.393,1.393,0,0,0-.3-.937,1.183,1.183,0,0,0-.949-.352,1.345,1.345,0,0,0-.895.273.929.929,0,0,0-.324.75H97.535a2.268,2.268,0,0,1,.453-1.359,3,3,0,0,1,1.281-.98,4.669,4.669,0,0,1,1.859-.355,3.689,3.689,0,0,1,2.48.785,2.747,2.747,0,0,1,.918,2.207v3.664a4.041,4.041,0,0,0,.336,1.82V15Zm-1.867-1.57a1.945,1.945,0,0,0,.922-.223,1.462,1.462,0,0,0,.625-.6V11.156h-.844q-1.7,0-1.8,1.172l-.008.133a.9.9,0,0,0,.3.7A1.153,1.153,0,0,0,100.715,13.43Zm10.125-.766a.727.727,0,0,0-.41-.652,4.659,4.659,0,0,0-1.316-.426q-3.016-.633-3.016-2.562a2.323,2.323,0,0,1,.934-1.879,3.766,3.766,0,0,1,2.441-.754,4.053,4.053,0,0,1,2.574.758,2.388,2.388,0,0,1,.965,1.969h-2.258a1.092,1.092,0,0,0-.312-.8A1.322,1.322,0,0,0,109.465,8a1.351,1.351,0,0,0-.883.258.814.814,0,0,0-.312.656.7.7,0,0,0,.355.605,3.657,3.657,0,0,0,1.2.4,9.8,9.8,0,0,1,1.422.379,2.336,2.336,0,0,1,1.789,2.273,2.2,2.2,0,0,1-.992,1.871,4.28,4.28,0,0,1-2.562.715,4.47,4.47,0,0,1-1.887-.379,3.166,3.166,0,0,1-1.293-1.039,2.414,2.414,0,0,1-.469-1.426h2.141a1.179,1.179,0,0,0,.445.922,1.766,1.766,0,0,0,1.109.32,1.635,1.635,0,0,0,.98-.246A.766.766,0,0,0,110.84,12.664Zm7.281-1.953a5.094,5.094,0,0,1,.887-3.148,2.877,2.877,0,0,1,2.426-1.172,2.589,2.589,0,0,1,2.039.922V3h2.266V15H123.7l-.109-.9a2.657,2.657,0,0,1-2.172,1.055,2.869,2.869,0,0,1-2.395-1.176A5.258,5.258,0,0,1,118.121,10.711Zm2.258.161a3.355,3.355,0,0,0,.414,1.829,1.348,1.348,0,0,0,1.2.636,1.51,1.51,0,0,0,1.477-.887V9.1a1.489,1.489,0,0,0-1.461-.887Q120.379,8.211,120.379,10.872Zm11,4.285a4.15,4.15,0,0,1-3.027-1.141,4.054,4.054,0,0,1-1.168-3.039v-.219a5.106,5.106,0,0,1,.492-2.277,3.612,3.612,0,0,1,1.395-1.547,3.914,3.914,0,0,1,2.059-.543,3.508,3.508,0,0,1,2.73,1.094,4.444,4.444,0,0,1,1,3.1v.922h-5.383a2.1,2.1,0,0,0,.66,1.328,2,2,0,0,0,1.395.5,2.437,2.437,0,0,0,2.039-.945l1.109,1.242a3.389,3.389,0,0,1-1.375,1.121A4.511,4.511,0,0,1,131.379,15.156Zm-.258-6.945a1.411,1.411,0,0,0-1.09.455,2.357,2.357,0,0,0-.535,1.3h3.141V9.788a1.681,1.681,0,0,0-.406-1.165A1.456,1.456,0,0,0,131.121,8.211ZM45.535,35a2.507,2.507,0,0,1-.227-.758,2.732,2.732,0,0,1-2.133.914,3,3,0,0,1-2.059-.719,2.312,2.312,0,0,1-.816-1.812,2.389,2.389,0,0,1,1-2.062,4.915,4.915,0,0,1,2.879-.727h1.039v-.484a1.393,1.393,0,0,0-.3-.937,1.183,1.183,0,0,0-.949-.352,1.345,1.345,0,0,0-.895.273.929.929,0,0,0-.324.75H40.488a2.268,2.268,0,0,1,.453-1.359,3,3,0,0,1,1.281-.98,4.669,4.669,0,0,1,1.859-.355,3.689,3.689,0,0,1,2.48.785,2.747,2.747,0,0,1,.918,2.207v3.664a4.041,4.041,0,0,0,.336,1.82V35Zm-1.867-1.57a1.945,1.945,0,0,0,.922-.223,1.462,1.462,0,0,0,.625-.6V31.156h-.844q-1.7,0-1.8,1.172l-.008.133a.9.9,0,0,0,.3.7A1.153,1.153,0,0,0,43.668,33.43Zm13.156-2.578a5.07,5.07,0,0,1-.887,3.129,2.843,2.843,0,0,1-2.395,1.176,2.633,2.633,0,0,1-2.07-.891V38.25H49.215v-11.7h2.094l.078.828a2.654,2.654,0,0,1,2.141-.984,2.862,2.862,0,0,1,2.43,1.156,5.207,5.207,0,0,1,.867,3.188Zm-2.258-.172a3.345,3.345,0,0,0-.418-1.826,1.36,1.36,0,0,0-1.215-.643,1.478,1.478,0,0,0-1.461.815V32.5a1.5,1.5,0,0,0,1.477.839Q54.566,33.336,54.566,30.679ZM60.605,35H58.34V23h2.266Zm4.242,0H62.582V26.547h2.266Zm-2.4-10.641a1.112,1.112,0,0,1,.34-.836,1.465,1.465,0,0,1,1.848,0,1.193,1.193,0,0,1,0,1.68,1.448,1.448,0,0,1-1.836,0A1.108,1.108,0,0,1,62.449,24.359Zm7.773,8.977a1.481,1.481,0,0,0,1.016-.344,1.2,1.2,0,0,0,.406-.914h2.117a2.9,2.9,0,0,1-.469,1.574,3.093,3.093,0,0,1-1.262,1.109,3.949,3.949,0,0,1-1.77.395A3.67,3.67,0,0,1,67.4,34a4.56,4.56,0,0,1-1.047-3.184v-.148a4.508,4.508,0,0,1,1.039-3.117,3.627,3.627,0,0,1,2.852-1.164,3.555,3.555,0,0,1,2.543.9,3.2,3.2,0,0,1,.973,2.4H71.645a1.551,1.551,0,0,0-.406-1.072,1.51,1.51,0,0,0-2.223.163,3.333,3.333,0,0,0-.4,1.866v.235a3.375,3.375,0,0,0,.4,1.878A1.377,1.377,0,0,0,70.223,33.336ZM79.949,35a2.507,2.507,0,0,1-.227-.758,2.732,2.732,0,0,1-2.133.914,3,3,0,0,1-2.059-.719,2.312,2.312,0,0,1-.816-1.812,2.389,2.389,0,0,1,1-2.062,4.915,4.915,0,0,1,2.879-.727h1.039v-.484a1.393,1.393,0,0,0-.3-.937,1.183,1.183,0,0,0-.949-.352,1.345,1.345,0,0,0-.895.273.929.929,0,0,0-.324.75H74.9a2.268,2.268,0,0,1,.453-1.359,3,3,0,0,1,1.281-.98,4.669,4.669,0,0,1,1.859-.355,3.689,3.689,0,0,1,2.48.785,2.747,2.747,0,0,1,.918,2.207v3.664a4.041,4.041,0,0,0,.336,1.82V35Zm-1.867-1.57A1.945,1.945,0,0,0,79,33.207a1.462,1.462,0,0,0,.625-.6V31.156h-.844q-1.7,0-1.8,1.172l-.008.133a.9.9,0,0,0,.3.7A1.153,1.153,0,0,0,78.082,33.43Zm9.063-.094a1.481,1.481,0,0,0,1.016-.344,1.2,1.2,0,0,0,.406-.914h2.117a2.9,2.9,0,0,1-.469,1.574,3.093,3.093,0,0,1-1.262,1.109,3.949,3.949,0,0,1-1.77.395A3.67,3.67,0,0,1,84.324,34a4.56,4.56,0,0,1-1.047-3.184v-.148a4.508,4.508,0,0,1,1.039-3.117,3.627,3.627,0,0,1,2.852-1.164,3.555,3.555,0,0,1,2.543.9,3.2,3.2,0,0,1,.973,2.4H88.566a1.551,1.551,0,0,0-.406-1.072,1.51,1.51,0,0,0-2.223.163,3.333,3.333,0,0,0-.4,1.866v.235a3.375,3.375,0,0,0,.4,1.878A1.377,1.377,0,0,0,87.145,33.336ZM94.355,35H92.09V26.547h2.266Zm-2.4-10.641a1.112,1.112,0,0,1,.34-.836,1.465,1.465,0,0,1,1.848,0,1.193,1.193,0,0,1,0,1.68,1.448,1.448,0,0,1-1.836,0A1.108,1.108,0,0,1,91.957,24.359ZM95.863,30.7a5.013,5.013,0,0,1,.484-2.242,3.546,3.546,0,0,1,1.395-1.523,4.069,4.069,0,0,1,2.113-.539,3.849,3.849,0,0,1,2.793,1.047,4.2,4.2,0,0,1,1.207,2.844l.016.578a4.418,4.418,0,0,1-1.086,3.121,4.209,4.209,0,0,1-5.832,0,4.5,4.5,0,0,1-1.09-3.187Zm2.258.16a3.16,3.16,0,0,0,.453,1.843,1.628,1.628,0,0,0,2.578.008,3.457,3.457,0,0,0,.461-2.015,3.128,3.128,0,0,0-.461-1.831,1.5,1.5,0,0,0-1.3-.649,1.474,1.474,0,0,0-1.281.646A3.516,3.516,0,0,0,98.121,30.856Zm9.219-4.309.07.977a2.951,2.951,0,0,1,2.43-1.133,2.453,2.453,0,0,1,2,.789,3.682,3.682,0,0,1,.672,2.359V35h-2.258V29.581a1.47,1.47,0,0,0-.312-1.045,1.4,1.4,0,0,0-1.039-.325,1.553,1.553,0,0,0-1.43.814V35h-2.258V26.547Zm10.773,8.609a4.15,4.15,0,0,1-3.027-1.141,4.054,4.054,0,0,1-1.168-3.039v-.219a5.106,5.106,0,0,1,.492-2.277,3.612,3.612,0,0,1,1.395-1.547,3.914,3.914,0,0,1,2.059-.543,3.508,3.508,0,0,1,2.73,1.094,4.444,4.444,0,0,1,1,3.1v.922h-5.383a2.1,2.1,0,0,0,.66,1.328,2,2,0,0,0,1.395.5,2.437,2.437,0,0,0,2.039-.945l1.109,1.242a3.389,3.389,0,0,1-1.375,1.121A4.511,4.511,0,0,1,118.113,35.156Zm-.258-6.945a1.411,1.411,0,0,0-1.09.455,2.357,2.357,0,0,0-.535,1.3h3.141v-.181a1.681,1.681,0,0,0-.406-1.165A1.456,1.456,0,0,0,117.855,28.211Zm9.594,4.453a.727.727,0,0,0-.41-.652,4.659,4.659,0,0,0-1.316-.426q-3.016-.633-3.016-2.562a2.323,2.323,0,0,1,.934-1.879,3.766,3.766,0,0,1,2.441-.754,4.053,4.053,0,0,1,2.574.758,2.388,2.388,0,0,1,.965,1.969h-2.258a1.092,1.092,0,0,0-.312-.8,1.322,1.322,0,0,0-.977-.316,1.351,1.351,0,0,0-.883.258.814.814,0,0,0-.312.656.7.7,0,0,0,.355.605,3.657,3.657,0,0,0,1.2.4,9.8,9.8,0,0,1,1.422.379,2.336,2.336,0,0,1,1.789,2.273,2.205,2.205,0,0,1-.992,1.871,4.28,4.28,0,0,1-2.562.715,4.47,4.47,0,0,1-1.887-.379,3.166,3.166,0,0,1-1.293-1.039,2.414,2.414,0,0,1-.469-1.426h2.141a1.179,1.179,0,0,0,.445.922,1.766,1.766,0,0,0,1.109.32,1.635,1.635,0,0,0,.98-.246A.766.766,0,0,0,127.449,32.664Z" transform="translate(1018 6252)" fill="#12263f"/>
    <g id="Trazado_853392" data-name="Trazado 853392" transform="translate(995 6378)" fill="#fff">
      <path d="M 206 149 L 10 149 C 5.037388801574707 149 1 144.9626159667969 1 140 L 1 10 C 1 5.037388801574707 5.037388801574707 1 10 1 L 206 1 C 210.9626159667969 1 215 5.037388801574707 215 10 L 215 140 C 215 144.9626159667969 210.9626159667969 149 206 149 Z" stroke="none"/>
      <path d="M 10 2 C 5.588790893554688 2 2 5.588790893554688 2 10 L 2 140 C 2 144.4112091064453 5.588790893554688 148 10 148 L 206 148 C 210.4112091064453 148 214 144.4112091064453 214 140 L 214 10 C 214 5.588790893554688 210.4112091064453 2 206 2 L 10 2 M 10 0 L 206 0 C 211.5228576660156 0 216 4.477142333984375 216 10 L 216 140 C 216 145.5228576660156 211.5228576660156 150 206 150 L 10 150 C 4.477142333984375 150 0 145.5228576660156 0 140 L 0 10 C 0 4.477142333984375 4.477142333984375 0 10 0 Z" stroke="none" fill="#f4a338"/>
    </g>
    <path id="Trazado_853415" data-name="Trazado 853415" d="M4.5,0,9,11H0Z" transform="translate(503 6378) rotate(180)" fill="#636363"/>
    <path id="Trazado_853408" data-name="Trazado 853408" d="M4.5,0,9,11H0Z" transform="translate(805 6378) rotate(180)" fill="#636363"/>
    <path id="Trazado_853394" data-name="Trazado 853394" d="M4.5,0,9,11H0Z" transform="translate(1108 6378) rotate(180)" fill="#636363"/>
    <path id="Trazado_853396" data-name="Trazado 853396" d="M4.5,0,9,11H0Z" transform="translate(995 6267) rotate(90)" fill="#636363"/>
    <g id="Grupo_1045377" data-name="Grupo 1045377" transform="translate(12042 11766)">
      <text id="Programa_de_navegacin_web_Programa_de_servidor_web_Programa_de_servidor_de_correo" data-name="Programa de navegacin web
Programa de servidor web
Programa de servidor de correo" transform="translate(-11016 -5367)" fill="#12263f" font-size="15" font-family="Roboto-Medium, Roboto" font-weight="500"><tspan x="0" y="14">Programa de </tspan><tspan x="0" y="32">navegacin web</tspan><tspan x="0" y="50">Programa de servidor </tspan><tspan x="0" y="68">web</tspan><tspan x="0" y="86">Programa de servidor </tspan><tspan x="0" y="104">de correo</tspan></text>
      <circle id="Elipse_8702" data-name="Elipse 8702" cx="2.5" cy="2.5" r="2.5" transform="translate(-11026 -5360)" fill="#f4a338"/>
      <circle id="Elipse_8704" data-name="Elipse 8704" cx="2.5" cy="2.5" r="2.5" transform="translate(-11026 -5290)" fill="#f4a338"/>
      <circle id="Elipse_8703" data-name="Elipse 8703" cx="2.5" cy="2.5" r="2.5" transform="translate(-11026 -5324)" fill="#f4a338"/>
    </g>
    <path id="Trazado_853409" data-name="Trazado 853409" d="M12.169,7.88A5.731,5.731,0,0,1,9.887,6.773a2.116,2.116,0,0,1-.714-1.622,2.236,2.236,0,0,1,.873-1.806,3.469,3.469,0,0,1,2.269-.714,3.786,3.786,0,0,1,1.7.368,2.792,2.792,0,0,1,1.155,1.016,2.6,2.6,0,0,1,.409,1.416H14.353a1.69,1.69,0,0,0-.533-1.322,2.168,2.168,0,0,0-1.5-.481,2.22,2.22,0,0,0-1.406.4,1.326,1.326,0,0,0-.5,1.1,1.193,1.193,0,0,0,.479.957,4.7,4.7,0,0,0,1.631.715,7.569,7.569,0,0,1,1.8.715,2.736,2.736,0,0,1,.965.911A2.325,2.325,0,0,1,15.6,9.651a2.159,2.159,0,0,1-.876,1.8,3.735,3.735,0,0,1-2.342.676,4.344,4.344,0,0,1-1.777-.365,2.991,2.991,0,0,1-1.273-1,2.44,2.44,0,0,1-.448-1.441h1.225a1.592,1.592,0,0,0,.619,1.323,2.606,2.606,0,0,0,1.654.486,2.4,2.4,0,0,0,1.479-.394,1.278,1.278,0,0,0,.514-1.073A1.255,1.255,0,0,0,13.9,8.614,5.489,5.489,0,0,0,12.169,7.88Zm7.655,4.247a3,3,0,0,1-2.272-.917,3.4,3.4,0,0,1-.876-2.453V8.541a4.121,4.121,0,0,1,.39-1.825,3.045,3.045,0,0,1,1.092-1.257A2.745,2.745,0,0,1,19.679,5a2.572,2.572,0,0,1,2.082.882A3.82,3.82,0,0,1,22.5,8.414V8.9H17.851a2.441,2.441,0,0,0,.594,1.641,1.866,1.866,0,0,0,1.444.625,2.045,2.045,0,0,0,1.054-.254,2.648,2.648,0,0,0,.755-.673l.717.559A2.884,2.884,0,0,1,19.825,12.127ZM19.679,5.97a1.566,1.566,0,0,0-1.193.517,2.515,2.515,0,0,0-.6,1.45h3.44V7.849a2.237,2.237,0,0,0-.482-1.387A1.475,1.475,0,0,0,19.679,5.97Zm7.116,2.539a4.023,4.023,0,0,1,.749-2.542,2.548,2.548,0,0,1,3.872-.136V2.25H32.59V12H31.511l-.057-.736a2.391,2.391,0,0,1-1.961.863,2.346,2.346,0,0,1-1.946-.978A4.069,4.069,0,0,1,26.794,8.6Zm1.174.133a3.046,3.046,0,0,0,.482,1.828,1.56,1.56,0,0,0,1.333.66,1.713,1.713,0,0,0,1.631-1V6.973A1.726,1.726,0,0,0,29.8,6a1.567,1.567,0,0,0-1.346.667A3.354,3.354,0,0,0,27.969,8.642ZM35.688,12H34.513V5.132h1.174Zm-1.27-8.69a.7.7,0,0,1,.175-.482.655.655,0,0,1,.517-.2.666.666,0,0,1,.521.2.694.694,0,0,1,.178.482.671.671,0,0,1-.178.476.678.678,0,0,1-.521.19.667.667,0,0,1-.517-.19A.678.678,0,0,1,34.418,3.31Zm5.415,7.1,1.7-5.275h1.2L40.271,12h-.9L36.887,5.132h1.2ZM45.139,12H43.965V5.132h1.174ZM43.87,3.31a.7.7,0,0,1,.175-.482.655.655,0,0,1,.517-.2.666.666,0,0,1,.521.2.694.694,0,0,1,.178.482.671.671,0,0,1-.178.476.678.678,0,0,1-.521.19.667.667,0,0,1-.517-.19A.678.678,0,0,1,43.87,3.31Zm2.863,5.2a4.023,4.023,0,0,1,.749-2.542,2.548,2.548,0,0,1,3.872-.136V2.25h1.174V12H51.449l-.057-.736a2.391,2.391,0,0,1-1.961.863,2.346,2.346,0,0,1-1.946-.978A4.069,4.069,0,0,1,46.732,8.6Zm1.174.133a3.046,3.046,0,0,0,.482,1.828,1.56,1.56,0,0,0,1.333.66,1.713,1.713,0,0,0,1.631-1V6.973A1.726,1.726,0,0,0,49.735,6a1.567,1.567,0,0,0-1.346.667A3.354,3.354,0,0,0,47.907,8.642ZM57.2,12.127a3,3,0,0,1-2.272-.917,3.4,3.4,0,0,1-.876-2.453V8.541a4.121,4.121,0,0,1,.39-1.825,3.045,3.045,0,0,1,1.092-1.257A2.745,2.745,0,0,1,57.054,5a2.572,2.572,0,0,1,2.082.882,3.82,3.82,0,0,1,.743,2.526V8.9H55.226a2.441,2.441,0,0,0,.594,1.641,1.866,1.866,0,0,0,1.444.625,2.045,2.045,0,0,0,1.054-.254,2.648,2.648,0,0,0,.755-.673l.717.559A2.884,2.884,0,0,1,57.2,12.127ZM57.054,5.97a1.566,1.566,0,0,0-1.193.517,2.515,2.515,0,0,0-.6,1.45H58.7V7.849a2.237,2.237,0,0,0-.482-1.387A1.475,1.475,0,0,0,57.054,5.97Zm10.251,6.157a3,3,0,0,1-2.272-.917,3.4,3.4,0,0,1-.876-2.453V8.541a4.121,4.121,0,0,1,.39-1.825,3.045,3.045,0,0,1,1.092-1.257A2.745,2.745,0,0,1,67.159,5a2.572,2.572,0,0,1,2.082.882,3.82,3.82,0,0,1,.743,2.526V8.9H65.331a2.441,2.441,0,0,0,.594,1.641,1.866,1.866,0,0,0,1.444.625,2.045,2.045,0,0,0,1.054-.254,2.648,2.648,0,0,0,.755-.673l.717.559A2.884,2.884,0,0,1,67.305,12.127ZM67.159,5.97a1.566,1.566,0,0,0-1.193.517,2.515,2.515,0,0,0-.6,1.45h3.44V7.849a2.237,2.237,0,0,0-.482-1.387A1.475,1.475,0,0,0,67.159,5.97Zm5.294-.838L72.491,6A2.5,2.5,0,0,1,74.548,5q2.177,0,2.2,2.457V12H75.57V7.455a1.581,1.581,0,0,0-.34-1.1A1.361,1.361,0,0,0,74.192,6a1.7,1.7,0,0,0-1,.3,2.069,2.069,0,0,0-.673.8V12H71.342V5.132ZM.718,24.509a4.023,4.023,0,0,1,.749-2.542A2.369,2.369,0,0,1,3.429,21a2.382,2.382,0,0,1,1.911.825V18.25H6.514V28H5.435l-.057-.736a2.391,2.391,0,0,1-1.961.863,2.346,2.346,0,0,1-1.946-.978A4.069,4.069,0,0,1,.718,24.6Zm1.174.133a3.046,3.046,0,0,0,.482,1.828,1.56,1.56,0,0,0,1.333.66,1.713,1.713,0,0,0,1.631-1V22.973A1.726,1.726,0,0,0,3.721,22a1.567,1.567,0,0,0-1.346.667A3.354,3.354,0,0,0,1.893,24.642Zm6.132-.14a4.057,4.057,0,0,1,.4-1.815,2.96,2.96,0,0,1,1.1-1.244A3.007,3.007,0,0,1,11.141,21a2.9,2.9,0,0,1,2.269.971,3.736,3.736,0,0,1,.866,2.583v.083a4.092,4.092,0,0,1-.384,1.8,2.916,2.916,0,0,1-1.1,1.241,3.041,3.041,0,0,1-1.641.444,2.889,2.889,0,0,1-2.263-.971,3.718,3.718,0,0,1-.866-2.571Zm1.181.14a2.938,2.938,0,0,0,.53,1.834,1.8,1.8,0,0,0,2.841-.01A3.213,3.213,0,0,0,13.1,24.5a2.933,2.933,0,0,0-.536-1.831,1.705,1.705,0,0,0-1.425-.7,1.686,1.686,0,0,0-1.4.692A3.189,3.189,0,0,0,9.205,24.642Zm10.543,1.536a.864.864,0,0,0-.359-.74,3.452,3.452,0,0,0-1.25-.454,5.912,5.912,0,0,1-1.416-.457,2.014,2.014,0,0,1-.774-.635,1.518,1.518,0,0,1-.251-.876,1.782,1.782,0,0,1,.714-1.428A2.789,2.789,0,0,1,18.238,21a2.87,2.87,0,0,1,1.895.6,1.915,1.915,0,0,1,.727,1.542H19.679a1.06,1.06,0,0,0-.409-.832,1.534,1.534,0,0,0-1.031-.349,1.606,1.606,0,0,0-1,.279.879.879,0,0,0-.362.73.712.712,0,0,0,.336.641,4.139,4.139,0,0,0,1.216.413,6.334,6.334,0,0,1,1.425.47,2.079,2.079,0,0,1,.809.657,1.615,1.615,0,0,1,.263.936,1.758,1.758,0,0,1-.736,1.476,3.089,3.089,0,0,1-1.911.555,3.459,3.459,0,0,1-1.46-.292,2.375,2.375,0,0,1-.993-.816,1.966,1.966,0,0,1-.359-1.133h1.174a1.216,1.216,0,0,0,.473.936,1.835,1.835,0,0,0,1.165.346,1.894,1.894,0,0,0,1.07-.27A.829.829,0,0,0,19.749,26.178Zm8.677.99a1.692,1.692,0,0,0,1.1-.381,1.34,1.34,0,0,0,.521-.952h1.111a2.13,2.13,0,0,1-.406,1.124,2.676,2.676,0,0,1-1,.851,2.885,2.885,0,0,1-1.323.317,2.829,2.829,0,0,1-2.231-.936,3.729,3.729,0,0,1-.828-2.561v-.2a4.135,4.135,0,0,1,.368-1.784,2.8,2.8,0,0,1,1.057-1.212A3,3,0,0,1,28.419,21a2.755,2.755,0,0,1,1.92.692,2.473,2.473,0,0,1,.816,1.8H30.044a1.618,1.618,0,0,0-.5-1.095,1.57,1.57,0,0,0-1.12-.428,1.644,1.644,0,0,0-1.387.644,3.026,3.026,0,0,0-.492,1.863V24.7a2.965,2.965,0,0,0,.489,1.828A1.651,1.651,0,0,0,28.426,27.168Zm8.29.832a2.467,2.467,0,0,1-.165-.724,2.62,2.62,0,0,1-1.955.851,2.424,2.424,0,0,1-1.666-.574,1.859,1.859,0,0,1-.651-1.457,1.942,1.942,0,0,1,.816-1.666,3.846,3.846,0,0,1,2.295-.594h1.143V23.3a1.319,1.319,0,0,0-.368-.981,1.48,1.48,0,0,0-1.085-.365,1.712,1.712,0,0,0-1.054.317.935.935,0,0,0-.425.768H32.418a1.621,1.621,0,0,1,.365-.993,2.491,2.491,0,0,1,.99-.759A3.331,3.331,0,0,1,35.148,21a2.715,2.715,0,0,1,1.86.594,2.141,2.141,0,0,1,.7,1.635v3.161a3.865,3.865,0,0,0,.241,1.5V28Zm-1.949-.9a2.064,2.064,0,0,0,1.047-.286,1.728,1.728,0,0,0,.717-.743V24.667h-.92q-2.158,0-2.158,1.263a1.069,1.069,0,0,0,.368.863A1.415,1.415,0,0,0,34.767,27.1Zm6.373-7.636v1.663h1.282v.908H41.14V26.3a.953.953,0,0,0,.171.62.721.721,0,0,0,.584.207,2.843,2.843,0,0,0,.559-.076V28a3.424,3.424,0,0,1-.9.126,1.462,1.462,0,0,1-1.187-.476,2.045,2.045,0,0,1-.4-1.352V22.04h-1.25v-.908h1.25V19.469Zm5.5,8.658a3,3,0,0,1-2.272-.917,3.4,3.4,0,0,1-.876-2.453v-.216a4.121,4.121,0,0,1,.39-1.825,3.045,3.045,0,0,1,1.092-1.257A2.745,2.745,0,0,1,46.5,21a2.572,2.572,0,0,1,2.082.882,3.82,3.82,0,0,1,.743,2.526V24.9H44.669a2.441,2.441,0,0,0,.594,1.641,1.866,1.866,0,0,0,1.444.625,2.045,2.045,0,0,0,1.054-.254,2.648,2.648,0,0,0,.755-.673l.717.559A2.884,2.884,0,0,1,46.644,28.127ZM46.5,21.97a1.566,1.566,0,0,0-1.193.517,2.515,2.515,0,0,0-.6,1.45h3.44v-.089a2.237,2.237,0,0,0-.482-1.387A1.475,1.475,0,0,0,46.5,21.97Zm3.9,2.539a4.037,4.037,0,0,1,.743-2.555,2.56,2.56,0,0,1,3.929-.06l.057-.762H56.2v6.7a2.794,2.794,0,0,1-.79,2.1,2.916,2.916,0,0,1-2.123.768,3.532,3.532,0,0,1-1.454-.317,2.5,2.5,0,0,1-1.085-.87l.609-.7a2.3,2.3,0,0,0,1.847.933,1.8,1.8,0,0,0,1.336-.482,1.844,1.844,0,0,0,.479-1.358v-.59a2.414,2.414,0,0,1-1.923.813,2.346,2.346,0,0,1-1.952-.971A4.244,4.244,0,0,1,50.4,24.509Zm1.181.133a3.08,3.08,0,0,0,.476,1.825,1.547,1.547,0,0,0,1.333.663,1.72,1.72,0,0,0,1.631-1.009V22.985A1.74,1.74,0,0,0,53.4,22a1.561,1.561,0,0,0-1.339.667A3.354,3.354,0,0,0,51.582,24.642Zm6.081-.14a4.057,4.057,0,0,1,.4-1.815,2.96,2.96,0,0,1,1.1-1.244A3.007,3.007,0,0,1,60.78,21a2.9,2.9,0,0,1,2.269.971,3.736,3.736,0,0,1,.866,2.583v.083a4.092,4.092,0,0,1-.384,1.8,2.916,2.916,0,0,1-1.1,1.241,3.041,3.041,0,0,1-1.641.444,2.889,2.889,0,0,1-2.263-.971,3.718,3.718,0,0,1-.866-2.571Zm1.181.14a2.938,2.938,0,0,0,.53,1.834,1.8,1.8,0,0,0,2.841-.01,3.213,3.213,0,0,0,.527-1.965,2.933,2.933,0,0,0-.536-1.831,1.705,1.705,0,0,0-1.425-.7,1.686,1.686,0,0,0-1.4.692A3.189,3.189,0,0,0,58.844,24.642Zm9.864-2.457a3.519,3.519,0,0,0-.578-.044,1.547,1.547,0,0,0-1.568.984V28H65.388V21.132h1.143l.019.793A1.829,1.829,0,0,1,68.188,21a1.2,1.2,0,0,1,.521.089ZM71.063,28H69.882V21.132h1.181Zm.013-9.731H72.5l-1.7,1.866-.946,0ZM77.239,28a2.467,2.467,0,0,1-.165-.724,2.62,2.62,0,0,1-1.955.851,2.424,2.424,0,0,1-1.666-.574A1.859,1.859,0,0,1,72.8,26.1a1.942,1.942,0,0,1,.816-1.666,3.846,3.846,0,0,1,2.295-.594h1.143V23.3a1.319,1.319,0,0,0-.368-.981,1.48,1.48,0,0,0-1.085-.365,1.712,1.712,0,0,0-1.054.317.935.935,0,0,0-.425.768H72.942a1.621,1.621,0,0,1,.365-.993,2.491,2.491,0,0,1,.99-.759A3.331,3.331,0,0,1,75.671,21a2.715,2.715,0,0,1,1.86.594,2.141,2.141,0,0,1,.7,1.635v3.161a3.865,3.865,0,0,0,.241,1.5V28Zm-1.949-.9a2.064,2.064,0,0,0,1.047-.286,1.728,1.728,0,0,0,.717-.743V24.667h-.92q-2.158,0-2.158,1.263a1.069,1.069,0,0,0,.368.863A1.415,1.415,0,0,0,75.291,27.1Zm8.779-.927a.864.864,0,0,0-.359-.74,3.452,3.452,0,0,0-1.25-.454,5.912,5.912,0,0,1-1.416-.457,2.014,2.014,0,0,1-.774-.635,1.518,1.518,0,0,1-.251-.876,1.782,1.782,0,0,1,.714-1.428A2.789,2.789,0,0,1,82.559,21a2.87,2.87,0,0,1,1.895.6,1.915,1.915,0,0,1,.727,1.542H84a1.06,1.06,0,0,0-.409-.832,1.534,1.534,0,0,0-1.031-.349,1.606,1.606,0,0,0-1,.279.879.879,0,0,0-.362.73.712.712,0,0,0,.336.641,4.139,4.139,0,0,0,1.216.413,6.334,6.334,0,0,1,1.425.47,2.079,2.079,0,0,1,.809.657,1.615,1.615,0,0,1,.263.936,1.758,1.758,0,0,1-.736,1.476,3.089,3.089,0,0,1-1.911.555,3.459,3.459,0,0,1-1.46-.292,2.375,2.375,0,0,1-.993-.816,1.966,1.966,0,0,1-.359-1.133h1.174a1.216,1.216,0,0,0,.473.936,1.835,1.835,0,0,0,1.165.346,1.894,1.894,0,0,0,1.07-.27A.829.829,0,0,0,84.069,26.178Z" transform="translate(607 6253)" fill="#12263f"/>
    <path id="Trazado_853397" data-name="Trazado 853397" d="M25.763,7.728H21.758V11H26.41v1H20.539V2.758h5.808v1H21.758V6.731h4.005Zm3.193-2.6v7.662q0,1.98-1.8,1.98a2.191,2.191,0,0,1-.717-.114v-.934a2.27,2.27,0,0,0,.533.051.8.8,0,0,0,.6-.213,1.052,1.052,0,0,0,.206-.74V5.132ZM27.661,3.31a.7.7,0,0,1,.175-.479.642.642,0,0,1,.511-.2.666.666,0,0,1,.521.2.694.694,0,0,1,.178.482.671.671,0,0,1-.178.476.678.678,0,0,1-.521.19.657.657,0,0,1-.514-.19A.685.685,0,0,1,27.661,3.31ZM33.7,12.127a3,3,0,0,1-2.272-.917,3.4,3.4,0,0,1-.876-2.453V8.541a4.121,4.121,0,0,1,.39-1.825,3.045,3.045,0,0,1,1.092-1.257A2.745,2.745,0,0,1,33.552,5a2.572,2.572,0,0,1,2.082.882,3.82,3.82,0,0,1,.743,2.526V8.9H31.723a2.441,2.441,0,0,0,.594,1.641,1.866,1.866,0,0,0,1.444.625,2.045,2.045,0,0,0,1.054-.254,2.648,2.648,0,0,0,.755-.673l.717.559A2.884,2.884,0,0,1,33.7,12.127ZM33.552,5.97a1.566,1.566,0,0,0-1.193.517,2.515,2.515,0,0,0-.6,1.45H35.2V7.849a2.237,2.237,0,0,0-.482-1.387A1.475,1.475,0,0,0,33.552,5.97Zm6.938,5.2a1.692,1.692,0,0,0,1.1-.381,1.34,1.34,0,0,0,.521-.952h1.111a2.13,2.13,0,0,1-.406,1.124,2.676,2.676,0,0,1-1,.851,2.885,2.885,0,0,1-1.323.317,2.829,2.829,0,0,1-2.231-.936,3.729,3.729,0,0,1-.828-2.561v-.2A4.135,4.135,0,0,1,37.8,6.649a2.8,2.8,0,0,1,1.057-1.212A3,3,0,0,1,40.483,5,2.755,2.755,0,0,1,42.4,5.7a2.473,2.473,0,0,1,.816,1.8H42.108A1.618,1.618,0,0,0,41.6,6.4a1.57,1.57,0,0,0-1.12-.428,1.644,1.644,0,0,0-1.387.644A3.026,3.026,0,0,0,38.6,8.477V8.7a2.965,2.965,0,0,0,.489,1.828A1.651,1.651,0,0,0,40.49,11.168Zm8.29.152a2.494,2.494,0,0,1-2.012.806,2.135,2.135,0,0,1-1.673-.638A2.761,2.761,0,0,1,44.514,9.6V5.132h1.174V9.569q0,1.562,1.27,1.562a1.758,1.758,0,0,0,1.79-1v-5h1.174V12H48.8ZM53.3,3.469V5.132h1.282V6.04H53.3V10.3a.953.953,0,0,0,.171.62.721.721,0,0,0,.584.207,2.843,2.843,0,0,0,.559-.076V12a3.424,3.424,0,0,1-.9.126,1.462,1.462,0,0,1-1.187-.476,2.045,2.045,0,0,1-.4-1.352V6.04h-1.25V5.132h1.25V3.469ZM60.193,12a2.467,2.467,0,0,1-.165-.724,2.62,2.62,0,0,1-1.955.851,2.424,2.424,0,0,1-1.666-.574,1.859,1.859,0,0,1-.651-1.457,1.942,1.942,0,0,1,.816-1.666,3.846,3.846,0,0,1,2.295-.594h1.143V7.3a1.319,1.319,0,0,0-.368-.981,1.48,1.48,0,0,0-1.085-.365,1.712,1.712,0,0,0-1.054.317.935.935,0,0,0-.425.768H55.9a1.621,1.621,0,0,1,.365-.993,2.491,2.491,0,0,1,.99-.759A3.331,3.331,0,0,1,58.625,5a2.715,2.715,0,0,1,1.86.594,2.141,2.141,0,0,1,.7,1.635v3.161a3.865,3.865,0,0,0,.241,1.5V12Zm-1.949-.9a2.064,2.064,0,0,0,1.047-.286,1.728,1.728,0,0,0,.717-.743V8.667h-.92q-2.158,0-2.158,1.263a1.069,1.069,0,0,0,.368.863A1.415,1.415,0,0,0,58.244,11.1Zm8.1-4.919a3.519,3.519,0,0,0-.578-.044,1.547,1.547,0,0,0-1.568.984V12H63.024V5.132h1.143l.019.793A1.829,1.829,0,0,1,65.823,5a1.2,1.2,0,0,1,.521.089Z" transform="translate(878 6264)" fill="#12263f"/>
    <path id="Trazado_853413" data-name="Trazado 853413" d="M26,0A26,26,0,1,1,0,26,26,26,0,0,1,26,0Z" transform="translate(473 6442)" fill="#f5f7ff"/>
    <path id="Trazado_853264" data-name="Trazado 853264" d="M32,55A26,26,0,0,1,6.05,30.5a26,26,0,1,0,51.9,0A26,26,0,0,1,32,55Z" transform="translate(467 6436)" fill="#ccd3eb"/>
    <path id="Trazado_853417" data-name="Trazado 853417" d="M12,0c6.627,0,12,2.239,12,5s-5.373,5-12,5S0,7.761,0,5,5.373,0,12,0Z" transform="translate(468 6483)" fill="#647499"/>
    <path id="Trazado_853265" data-name="Trazado 853265" d="M25,52v6c0,2.76-5.37,5-12,5S1,60.76,1,58V52c0,1.13.89,2.17,2.4,3C10.37,58.85,25,56.74,25,52Z" transform="translate(467 6436)" fill="#ccd3eb"/>
    <path id="Trazado_853418" data-name="Trazado 853418" d="M12,0c6.627,0,12,2.239,12,5s-5.373,5-12,5S0,7.761,0,5,5.373,0,12,0Z" transform="translate(468 6471)" fill="#96a1c3"/>
    <path id="Trazado_853266" data-name="Trazado 853266" d="M1.55,38.5A2.46,2.46,0,0,0,1,40c0,2.76,5.37,5,12,5s12-2.24,12-5a2.46,2.46,0,0,0-.55-1.5c-3.51,4.66-19.39,4.65-22.9,0Z" transform="translate(467 6436)" fill="#647499"/>
    <path id="Trazado_853267" data-name="Trazado 853267" d="M25,40v6c0,2.76-5.37,5-12,5S1,48.76,1,46V40c0,1.13.89,2.17,2.4,3C10.37,46.85,25,44.74,25,40Z" transform="translate(467 6436)" fill="#ccd3eb"/>
    <path id="Trazado_853268" data-name="Trazado 853268" d="M17,39a1,1,0,1,0,1,1A1,1,0,0,0,17,39Z" transform="translate(467 6436)" fill="#f5f7ff"/>
    <path id="Trazado_853269" data-name="Trazado 853269" d="M9,39a1,1,0,1,0,1,1A1,1,0,0,0,9,39Z" transform="translate(467 6436)" fill="#f5f7ff"/>
    <path id="Trazado_853270" data-name="Trazado 853270" d="M13,39a1,1,0,1,0,1,1A1,1,0,0,0,13,39Z" transform="translate(467 6436)" fill="#f5f7ff"/>
    <path id="Trazado_853271" data-name="Trazado 853271" d="M2,25H34a1,1,0,0,1,1,1v1a4,4,0,0,1-4,4H5a4,4,0,0,1-4-4V26a1,1,0,0,1,1-1Z" transform="translate(467 6436)" fill="#96a1c3"/>
    <path id="Trazado_853272" data-name="Trazado 853272" d="M31,28H5a4,4,0,0,1-3.75-2.65C1,25.71,1,25.89,1,27a4,4,0,0,0,4,4H31a4,4,0,0,0,4-4c0-1.05.07-1.28-.25-1.65A4,4,0,0,1,31,28Z" transform="translate(467 6436)" fill="#647499"/>
    <path id="Trazado_853419" data-name="Trazado 853419" d="M2,0H28a2,2,0,0,1,2,2V20a2,2,0,0,1-2,2H2a2,2,0,0,1-2-2V2A2,2,0,0,1,2,0Z" transform="translate(470 6439)" fill="#ccd3eb"/>
    <path id="Trazado_853273" data-name="Trazado 853273" d="M31,22H5a2,2,0,0,1-2-2v3a2,2,0,0,0,2,2H31a2,2,0,0,0,2-2V20A2,2,0,0,1,31,22Z" transform="translate(467 6436)" fill="#96a1c3"/>
    <path id="Trazado_853274" data-name="Trazado 853274" d="M27,7V25H9V2a1,1,0,0,1,1-1H21Z" transform="translate(467 6436)" fill="#f5f7ff"/>
    <path id="Trazado_853275" data-name="Trazado 853275" d="M27,7H21V1Z" transform="translate(467 6436)" fill="#ccd3eb"/>
    <path id="Trazado_853276" data-name="Trazado 853276" d="M13,12h6a1,1,0,0,0,0-2H13a1,1,0,0,0,0,2Z" transform="translate(467 6436)" fill="#f4a338"/>
    <path id="Trazado_853277" data-name="Trazado 853277" d="M13,16H23a1,1,0,0,0,0-2H13a1,1,0,0,0,0,2Z" transform="translate(467 6436)" fill="#f4a338"/>
    <path id="Trazado_853278" data-name="Trazado 853278" d="M23,18H13a1,1,0,0,0,0,2H23a1,1,0,0,0,0-2Z" transform="translate(467 6436)" fill="#f4a338"/>
    <path id="Trazado_853279" data-name="Trazado 853279" d="M30,57H62a1,1,0,0,1,1,1v1a4,4,0,0,1-4,4H33a4,4,0,0,1-4-4V58A1,1,0,0,1,30,57Z" transform="translate(467 6436)" fill="#96a1c3"/>
    <path id="Trazado_853280" data-name="Trazado 853280" d="M59,60H33a4,4,0,0,1-3.75-2.65c-.3.36-.25.54-.25,1.65a4,4,0,0,0,4,4H59a4,4,0,0,0,4-4c0-1,.07-1.28-.25-1.65A4,4,0,0,1,59,60Z" transform="translate(467 6436)" fill="#647499"/>
    <path id="Trazado_853414" data-name="Trazado 853414" d="M2,0H28a2,2,0,0,1,2,2V20a2,2,0,0,1-2,2H2a2,2,0,0,1-2-2V2A2,2,0,0,1,2,0Z" transform="translate(498 6471)" fill="#ccd3eb"/>
    <path id="Trazado_853281" data-name="Trazado 853281" d="M59,54H33a2,2,0,0,1-2-2v3a2,2,0,0,0,2,2H59a2,2,0,0,0,2-2V52A2,2,0,0,1,59,54Z" transform="translate(467 6436)" fill="#96a1c3"/>
    <path id="Trazado_853282" data-name="Trazado 853282" d="M55,39V57H37V34a1,1,0,0,1,1-1H49Z" transform="translate(467 6436)" fill="#f5f7ff"/>
    <path id="Trazado_853283" data-name="Trazado 853283" d="M55,39H49V33Z" transform="translate(467 6436)" fill="#ccd3eb"/>
    <g id="Grupo_1045379" data-name="Grupo 1045379" transform="translate(467 6436)">
      <path id="Trazado_853284" data-name="Trazado 853284" d="M41,44h6a1,1,0,0,0,0-2H41a1,1,0,0,0,0,2Z" fill="#f4a338"/>
      <path id="Trazado_853285" data-name="Trazado 853285" d="M41,48H51a1,1,0,0,0,0-2H41a1,1,0,0,0,0,2Z" fill="#f4a338"/>
      <path id="Trazado_853286" data-name="Trazado 853286" d="M51,50H41a1,1,0,0,0,0,2H51a1,1,0,0,0,0-2Z" fill="#f4a338"/>
      <path id="Trazado_853307" data-name="Trazado 853307" d="M8,0A8,8,0,1,1,0,8,8,8,0,0,1,8,0Z" transform="translate(42 6)" fill="#f4a338"/>
    </g>
    <path id="Trazado_853287" data-name="Trazado 853287" d="M49,17c-.54,0-.57-.15-2.71-2.29a1,1,0,1,1,1.42-1.42L49,14.59l3.29-3.3a1,1,0,0,1,1.42,1.42l-4,4A1,1,0,0,1,49,17Z" transform="translate(467 6436)" fill="#f5f7ff"/>
    <path id="Trazado_853288" data-name="Trazado 853288" d="M61.82,56c.26-.74.18.66.18-19a3,3,0,0,0-3-3c-.19,0,0,.16,0-2a26.56,26.56,0,0,0-2.65-11.63A9,9,0,1,0,43.63,7.65,26.37,26.37,0,0,0,37.19,5.5a1.018,1.018,0,1,0-.38,2,25,25,0,0,1,5.55,1.8A9,9,0,0,0,54.74,21.63,24.62,24.62,0,0,1,56.91,34h-5.5c-1.8-1.8-1.86-2-2.41-2H38a2,2,0,0,0-2,2H33a3,3,0,0,0-3,3v6a1,1,0,0,0,2,0V37a1,1,0,0,1,1-1h3V56H33a1,1,0,0,1-1-1V53a1,1,0,0,0-2,0c0,2.1-.06,2.32.18,3H30a2,2,0,0,0-1.53.73c-.83-.12-1.65-.28-2.47-.48V52a3.93,3.93,0,0,0-1.63-3A3.94,3.94,0,0,0,26,46V40c0-3.42-5.59-6-13-6a27.52,27.52,0,0,0-5.84.6A22.68,22.68,0,0,1,7,32H31a5,5,0,0,0,5-5V26a2,2,0,0,0-2.18-2c.26-.74.18.66.18-19a3,3,0,0,0-3-3H23.41C21.61.2,21.55,0,21,0H10A2,2,0,0,0,8,2H5A3,3,0,0,0,2,5c0,19.65-.08,18.26.18,19A2,2,0,0,0,0,26v1a5,5,0,0,0,5,5,27.72,27.72,0,0,0,.2,3.14C2,36.21,0,38,0,40v6a3.94,3.94,0,0,0,1.63,3A3.93,3.93,0,0,0,0,52v6c0,3.42,5.59,6,13,6,7.19,0,12.65-2.43,13-5.7.68.15,1.35.28,2,.38A5,5,0,0,0,33,64H59a5,5,0,0,0,5-5V58a2,2,0,0,0-2.18-2ZM43,14a7,7,0,1,1,7,7,7,7,0,0,1-7-7ZM31,4a1,1,0,0,1,1,1V23a1,1,0,0,1-1,1H28V7c0-.55-.13-.54-2.59-3Zm-9-.59L24.59,6H22ZM10,2H20V7a1,1,0,0,0,1,1h5V24H10ZM4,23V5A1,1,0,0,1,5,4H8V24H5A1,1,0,0,1,4,23ZM2,27V26H34v1a3,3,0,0,1-3,3H5A3,3,0,0,1,2,27Zm57,9a1,1,0,0,1,1,1V55a1,1,0,0,1-1,1H56V39c0-.55-.13-.54-2.59-3Zm-9-.59L52.59,38H50ZM38,34H48v5a1,1,0,0,0,1,1h5V56H38ZM2,46V43.28c5,3.64,17.05,3.63,22,0V46c0,1.89-4.7,4-11,4S2,47.89,2,46ZM13,36c6.3,0,11,2.11,11,4s-4.7,4-11,4S2,41.89,2,40,6.7,36,13,36Zm9.56,14.14C23.48,50.74,24,51.4,24,52c0,1.89-4.7,4-11,4S2,53.89,2,52c0-.6.52-1.26,1.44-1.86,5.01,2.47,14.06,2.5,19.12,0ZM13,62C6.7,62,2,59.89,2,58V55.28c5,3.64,17.05,3.63,22,0V58c0,1.89-4.7,4-11,4Zm49-3a3,3,0,0,1-3,3H33a3,3,0,0,1-3-3V58H62Z" transform="translate(467 6436)" fill="#033c59"/>
    <path id="Trazado_853289" data-name="Trazado 853289" d="M31,50a1,1,0,0,0,1-1V47a1,1,0,0,0-2,0v2A1,1,0,0,0,31,50Z" transform="translate(467 6436)" fill="#033c59"/>
    <path id="Trazado_853290" data-name="Trazado 853290" d="M57,22a3,3,0,0,0,3-3V13.82a3,3,0,1,0-2,0V19a1,1,0,0,1-1,1H52a1,1,0,0,0,0,2Zm2-12a1,1,0,1,1-1,1A1,1,0,0,1,59,10Z" transform="translate(768.996 6436)" fill="#f4a338"/>
    <path id="Trazado_853291" data-name="Trazado 853291" d="M61,25a3,3,0,0,0-2.82,2H53a1,1,0,0,0,0,2h5.18A3,3,0,1,0,61,25Zm0,4a1,1,0,1,1,1-1A1,1,0,0,1,61,29Z" transform="translate(768.996 6436)" fill="#f4a338"/>
    <path id="Trazado_853404" data-name="Trazado 853404" d="M26,0A26,26,0,1,1,0,26,26,26,0,0,1,26,0Z" transform="translate(769.996 6437)" fill="#f5f7ff"/>
    <path id="Trazado_853292" data-name="Trazado 853292" d="M27,50A26,26,0,0,1,1.05,25.5a26,26,0,1,0,51.9,0A26,26,0,0,1,27,50Z" transform="translate(768.996 6436)" fill="#ccd3eb"/>
    <path id="Trazado_853405" data-name="Trazado 853405" d="M14,0c7.732,0,14,2.239,14,5s-6.268,5-14,5S0,7.761,0,5,6.268,0,14,0Z" transform="translate(803.996 6471)" fill="#96a1c3"/>
    <path id="Trazado_853293" data-name="Trazado 853293" d="M62.36,38.5c-4.09,4.65-22.62,4.66-26.72,0A2.3,2.3,0,0,0,35,40c0,2.76,6.27,5,14,5s14-2.24,14-5a2.3,2.3,0,0,0-.64-1.5Z" transform="translate(768.996 6436)" fill="#647499"/>
    <path id="Trazado_853294" data-name="Trazado 853294" d="M53,39a1,1,0,1,0,1,1A1,1,0,0,0,53,39Z" transform="translate(768.996 6436)" fill="#f5f7ff"/>
    <path id="Trazado_853295" data-name="Trazado 853295" d="M49,39a1,1,0,1,0,1,1A1,1,0,0,0,49,39Z" transform="translate(768.996 6436)" fill="#f5f7ff"/>
    <path id="Trazado_853296" data-name="Trazado 853296" d="M45,39a1,1,0,1,0,1,1A1,1,0,0,0,45,39Z" transform="translate(768.996 6436)" fill="#f5f7ff"/>
    <path id="Trazado_853406" data-name="Trazado 853406" d="M14,0c7.732,0,14,2.239,14,5s-6.268,5-14,5S0,7.761,0,5,6.268,0,14,0Z" transform="translate(803.996 6483)" fill="#647499"/>
    <path id="Trazado_853297" data-name="Trazado 853297" d="M63,52v6c0,2.76-6.27,5-14,5s-14-2.24-14-5V52c0,4.69,17,6.89,25.2,3C62,54.16,63,53.13,63,52Z" transform="translate(768.996 6436)" fill="#ccd3eb"/>
    <path id="Trazado_853298" data-name="Trazado 853298" d="M49,60c-7.73,0-14-2.24-14-5v3c0,2.76,6.27,5,14,5s14-2.24,14-5V55C63,57.76,56.73,60,49,60Z" transform="translate(768.996 6436)" fill="#96a1c3"/>
    <path id="Trazado_853299" data-name="Trazado 853299" d="M63,40v6c0,2.76-6.27,5-14,5s-14-2.24-14-5V40c0,4.69,17,6.89,25.2,3C62,42.16,63,41.13,63,40Z" transform="translate(768.996 6436)" fill="#ccd3eb"/>
    <path id="Trazado_853300" data-name="Trazado 853300" d="M49,48c-7.73,0-14-2.24-14-5v3c0,2.76,6.27,5,14,5s14-2.24,14-5V43C63,45.76,56.73,48,49,48Z" transform="translate(768.996 6436)" fill="#96a1c3"/>
    <path id="Trazado_853301" data-name="Trazado 853301" d="M45.11,55.8c-.67-.07-1.32-.16-1.94-.27a1,1,0,1,0-.34,1.97c.66.12,1.35.21,2.06.29a1.006,1.006,0,0,0,.22-2Z" transform="translate(768.996 6436)" fill="#033c59"/>
    <path id="Trazado_853302" data-name="Trazado 853302" d="M64,46V40c0-3.9-7.73-6-15-6a35.44,35.44,0,0,0-8,.88A32.21,32.21,0,0,0,41,19h9.68a25.1,25.1,0,0,1,1,11.85,1.011,1.011,0,1,0,2,.3A27,27,0,1,0,34,53.06V58c0,3.9,7.73,6,15,6s15-2.1,15-6V52a3.76,3.76,0,0,0-1.85-3A3.78,3.78,0,0,0,64,46ZM49,50c-7.94,0-13-2.37-13-4V43.11l.22.13a1.17,1.17,0,0,0,.3.19C42.63,47,56.64,46.78,62,43.11V46C62,47.63,56.94,50,49,50Zm-14.78.93a24.259,24.259,0,0,1-4,.84,33.49,33.49,0,0,0,4.22-4.2A5,5,0,0,0,35.85,49,4.53,4.53,0,0,0,34.22,50.93ZM34,40v5a31.83,31.83,0,0,1-7,6.8A30.66,30.66,0,0,1,15.71,37H35.86A3.8,3.8,0,0,0,34,40Zm28,0c0,1.63-5.06,4-13,4s-13-2.37-13-4,5.06-4,13-4S62,38.37,62,40ZM38.91,35H15.08a30.07,30.07,0,0,1,0-16H38.91a30,30,0,0,1,0,16Zm-.62-18H15.71A30.72,30.72,0,0,1,27,2.22,30.66,30.66,0,0,1,38.29,17Zm11.62,0h-9.5A32.28,32.28,0,0,0,30.25,2.22,25.06,25.06,0,0,1,49.91,17ZM23.75,2.22A32.28,32.28,0,0,0,13.59,17H4.09A25.06,25.06,0,0,1,23.75,2.22ZM3.32,19H13a32.46,32.46,0,0,0,0,16H3.32a24.9,24.9,0,0,1,0-16Zm.77,18h9.5A32.28,32.28,0,0,0,23.75,51.78,25.06,25.06,0,0,1,4.09,37ZM62,52c0,1.63-5.06,4-13,4a1,1,0,0,0,0,2c5,0,10.23-1,13-2.89V58c0,1.63-5.06,4-13,4s-13-2.37-13-4V55.12a11.52,11.52,0,0,0,2.66,1.32,1,1,0,0,0,.68-1.88C36.88,53.66,36,52.65,36,52s.67-1.28,1.85-1.9c5.91,2.53,16.39,2.53,22.3,0C61.33,50.72,62,51.41,62,52Z" transform="translate(768.996 6436)" fill="#033c59"/>
    <g id="Grupo_1045380" data-name="Grupo 1045380" transform="translate(768.996 6436)">
      <path id="Trazado_853303" data-name="Trazado 853303" d="M31,60a1,1,0,1,0,1,1A1,1,0,0,0,31,60Z" fill="#f4a338"/>
      <path id="Trazado_853304" data-name="Trazado 853304" d="M31,58a1,1,0,1,0-1-1A1,1,0,0,0,31,58Z" fill="#f4a338"/>
      <path id="Trazado_853305" data-name="Trazado 853305" d="M3,2H1A1,1,0,1,1,1,0H3A1,1,0,0,1,3,2Z" fill="#f4a338"/>
      <path id="Trazado_853306" data-name="Trazado 853306" d="M3,6H1A1,1,0,0,1,1,4H3A1,1,0,0,1,3,6Z" fill="#f4a338"/>
    </g>
  </g>
</svg>
