<svg xmlns="http://www.w3.org/2000/svg" width="1027.999" height="457.137" viewBox="0 0 1027.999 457.137">
  <g id="Grupo_1203925" data-name="Grupo 1203925" transform="translate(-285 -875.863)">
    <path id="Trazado_145969" data-name="Trazado 145969" d="M49.58,0A49.58,49.58,0,1,1,0,49.58,49.58,49.58,0,0,1,49.58,0Z" transform="translate(285 878.38)" fill="#798b92" opacity="0.444" style="mix-blend-mode: multiply;isolation: isolate"/>
    <rect id="Rectángulo_34812" data-name="Rectángulo 34812" width="1022.651" height="147.137" transform="translate(285 875.863)" fill="none"/>
    <path id="Trazado_145971" data-name="Trazado 145971" d="M5.658,0A5.658,5.658,0,1,1,0,5.658,5.658,5.658,0,0,1,5.658,0Z" transform="translate(307.355 1190.971)" fill="#31313c" opacity="0.444" style="mix-blend-mode: multiply;isolation: isolate"/>
    <path id="Trazado_145968" data-name="Trazado 145968" d="M42.643,0A42.643,42.643,0,1,1,0,42.643,42.643,42.643,0,0,1,42.643,0Z" transform="translate(1270.075 1113.028) rotate(90)" fill="#31313c" opacity="0.444" style="mix-blend-mode: multiply;isolation: isolate"/>
    <g id="Grupo_53306" data-name="Grupo 53306" transform="translate(1252.446 1129.678) rotate(90)">
      <path id="Trazado_99200" data-name="Trazado 99200" d="M1.158.553a.567.567,0,0,1-.579.554A.567.567,0,0,1,0,.553.567.567,0,0,1,.579,0,.567.567,0,0,1,1.158.553Z" fill="#fff"/>
      <path id="Trazado_99201" data-name="Trazado 99201" d="M1.158.553a.567.567,0,0,1-.579.554A.567.567,0,0,1,0,.553.567.567,0,0,1,.579,0,.567.567,0,0,1,1.158.553Z" transform="translate(5.211)" fill="#fff"/>
      <path id="Trazado_99202" data-name="Trazado 99202" d="M1.158.553a.567.567,0,0,1-.579.554A.567.567,0,0,1,0,.553.567.567,0,0,1,.579,0,.567.567,0,0,1,1.158.553Z" transform="translate(10.422)" fill="#fff"/>
      <path id="Trazado_99203" data-name="Trazado 99203" d="M1.158.553a.567.567,0,0,1-.579.554A.567.567,0,0,1,0,.553.566.566,0,0,1,.579,0,.567.567,0,0,1,1.158.553Z" transform="translate(15.634)" fill="#fff"/>
      <path id="Trazado_99204" data-name="Trazado 99204" d="M1.158.553a.567.567,0,0,1-.579.554A.567.567,0,0,1,0,.553.567.567,0,0,1,.579,0,.567.567,0,0,1,1.158.553Z" transform="translate(20.845)" fill="#fff"/>
      <path id="Trazado_99205" data-name="Trazado 99205" d="M1.158.553a.567.567,0,0,1-.579.554A.567.567,0,0,1,0,.553.567.567,0,0,1,.579,0,.567.567,0,0,1,1.158.553Z" transform="translate(26.057)" fill="#fff"/>
      <path id="Trazado_99206" data-name="Trazado 99206" d="M1.158.553a.567.567,0,0,1-.579.554A.567.567,0,0,1,0,.553.567.567,0,0,1,.579,0,.567.567,0,0,1,1.158.553Z" transform="translate(31.269)" fill="#fff"/>
      <path id="Trazado_99207" data-name="Trazado 99207" d="M1.158.553a.567.567,0,0,1-.579.554A.567.567,0,0,1,0,.553.567.567,0,0,1,.579,0,.567.567,0,0,1,1.158.553Z" transform="translate(36.48)" fill="#fff"/>
      <path id="Trazado_99208" data-name="Trazado 99208" d="M1.158.553a.567.567,0,0,1-.579.554A.567.567,0,0,1,0,.553.567.567,0,0,1,.579,0,.567.567,0,0,1,1.158.553Z" transform="translate(41.691)" fill="#fff"/>
      <path id="Trazado_99209" data-name="Trazado 99209" d="M1.158.553a.567.567,0,0,1-.579.554A.567.567,0,0,1,0,.553.567.567,0,0,1,.579,0,.567.567,0,0,1,1.158.553Z" transform="translate(46.903)" fill="#fff"/>
      <path id="Trazado_99210" data-name="Trazado 99210" d="M1.158.553a.567.567,0,0,1-.579.554A.567.567,0,0,1,0,.553.567.567,0,0,1,.579,0,.567.567,0,0,1,1.158.553Z" transform="translate(52.114)" fill="#fff"/>
    </g>
    <g id="Grupo_53307" data-name="Grupo 53307" transform="translate(1248.016 1129.678) rotate(90)">
      <path id="Trazado_99211" data-name="Trazado 99211" d="M1.158.553a.567.567,0,0,1-.579.554A.567.567,0,0,1,0,.553.567.567,0,0,1,.579,0,.567.567,0,0,1,1.158.553Z" fill="#fff"/>
      <path id="Trazado_99212" data-name="Trazado 99212" d="M1.158.553a.567.567,0,0,1-.579.554A.567.567,0,0,1,0,.553.567.567,0,0,1,.579,0,.567.567,0,0,1,1.158.553Z" transform="translate(5.211)" fill="#fff"/>
      <path id="Trazado_99213" data-name="Trazado 99213" d="M1.158.553a.567.567,0,0,1-.579.554A.567.567,0,0,1,0,.553.567.567,0,0,1,.579,0,.567.567,0,0,1,1.158.553Z" transform="translate(10.422)" fill="#fff"/>
      <path id="Trazado_99214" data-name="Trazado 99214" d="M1.158.553a.567.567,0,0,1-.579.554A.567.567,0,0,1,0,.553.566.566,0,0,1,.579,0,.567.567,0,0,1,1.158.553Z" transform="translate(15.634)" fill="#fff"/>
      <path id="Trazado_99215" data-name="Trazado 99215" d="M1.158.553a.567.567,0,0,1-.579.554A.567.567,0,0,1,0,.553.567.567,0,0,1,.579,0,.567.567,0,0,1,1.158.553Z" transform="translate(20.845)" fill="#fff"/>
      <path id="Trazado_99216" data-name="Trazado 99216" d="M1.158.553a.567.567,0,0,1-.579.554A.567.567,0,0,1,0,.553.567.567,0,0,1,.579,0,.567.567,0,0,1,1.158.553Z" transform="translate(26.057)" fill="#fff"/>
      <path id="Trazado_99217" data-name="Trazado 99217" d="M1.158.553a.567.567,0,0,1-.579.554A.567.567,0,0,1,0,.553.567.567,0,0,1,.579,0,.567.567,0,0,1,1.158.553Z" transform="translate(31.269)" fill="#fff"/>
      <path id="Trazado_99218" data-name="Trazado 99218" d="M1.158.553a.567.567,0,0,1-.579.554A.567.567,0,0,1,0,.553.567.567,0,0,1,.579,0,.567.567,0,0,1,1.158.553Z" transform="translate(36.48)" fill="#fff"/>
      <path id="Trazado_99219" data-name="Trazado 99219" d="M1.158.553a.567.567,0,0,1-.579.554A.567.567,0,0,1,0,.553.567.567,0,0,1,.579,0,.567.567,0,0,1,1.158.553Z" transform="translate(41.691)" fill="#fff"/>
      <path id="Trazado_99220" data-name="Trazado 99220" d="M1.158.553a.567.567,0,0,1-.579.554A.567.567,0,0,1,0,.553.567.567,0,0,1,.579,0,.567.567,0,0,1,1.158.553Z" transform="translate(46.903)" fill="#fff"/>
      <path id="Trazado_99221" data-name="Trazado 99221" d="M1.158.553a.567.567,0,0,1-.579.554A.567.567,0,0,1,0,.553.567.567,0,0,1,.579,0,.567.567,0,0,1,1.158.553Z" transform="translate(52.114)" fill="#fff"/>
    </g>
    <g id="Grupo_53308" data-name="Grupo 53308" transform="translate(1243.586 1129.678) rotate(90)">
      <ellipse id="Elipse_3955" data-name="Elipse 3955" cx="0.579" cy="0.554" rx="0.579" ry="0.554" fill="#fff"/>
      <path id="Trazado_99222" data-name="Trazado 99222" d="M1.158.553a.567.567,0,0,1-.579.554A.567.567,0,0,1,0,.553.567.567,0,0,1,.579,0,.567.567,0,0,1,1.158.553Z" transform="translate(5.211 0)" fill="#fff"/>
      <ellipse id="Elipse_3956" data-name="Elipse 3956" cx="0.579" cy="0.554" rx="0.579" ry="0.554" transform="translate(10.423)" fill="#fff"/>
      <path id="Trazado_99223" data-name="Trazado 99223" d="M1.158.553a.567.567,0,0,1-.579.554A.567.567,0,0,1,0,.553.566.566,0,0,1,.579,0,.567.567,0,0,1,1.158.553Z" transform="translate(15.634 0)" fill="#fff"/>
      <path id="Trazado_99224" data-name="Trazado 99224" d="M1.158.553a.567.567,0,0,1-.579.554A.567.567,0,0,1,0,.553.567.567,0,0,1,.579,0,.567.567,0,0,1,1.158.553Z" transform="translate(20.846 0)" fill="#fff"/>
      <ellipse id="Elipse_3957" data-name="Elipse 3957" cx="0.579" cy="0.554" rx="0.579" ry="0.554" transform="translate(26.057)" fill="#fff"/>
      <path id="Trazado_99225" data-name="Trazado 99225" d="M1.158.553a.568.568,0,0,1-.579.554A.567.567,0,0,1,0,.553.567.567,0,0,1,.579,0,.567.567,0,0,1,1.158.553Z" transform="translate(31.269 0)" fill="#fff"/>
      <ellipse id="Elipse_3958" data-name="Elipse 3958" cx="0.579" cy="0.554" rx="0.579" ry="0.554" transform="translate(36.48)" fill="#fff"/>
      <ellipse id="Elipse_3959" data-name="Elipse 3959" cx="0.579" cy="0.554" rx="0.579" ry="0.554" transform="translate(41.691)" fill="#fff"/>
      <path id="Trazado_99226" data-name="Trazado 99226" d="M1.158.553a.568.568,0,0,1-.579.554A.567.567,0,0,1,0,.553.567.567,0,0,1,.579,0,.567.567,0,0,1,1.158.553Z" transform="translate(46.903 0)" fill="#fff"/>
      <path id="Trazado_99227" data-name="Trazado 99227" d="M1.158.553a.567.567,0,0,1-.579.554A.567.567,0,0,1,0,.553.567.567,0,0,1,.579,0,.567.567,0,0,1,1.158.553Z" transform="translate(52.114 0)" fill="#fff"/>
    </g>
    <g id="Grupo_53309" data-name="Grupo 53309" transform="translate(1239.156 1129.678) rotate(90)">
      <ellipse id="Elipse_3960" data-name="Elipse 3960" cx="0.579" cy="0.554" rx="0.579" ry="0.554" transform="translate(0 0)" fill="#fff"/>
      <path id="Trazado_99228" data-name="Trazado 99228" d="M1.158.554a.567.567,0,0,1-.579.553A.567.567,0,0,1,0,.554.567.567,0,0,1,.579,0,.567.567,0,0,1,1.158.554Z" transform="translate(5.211)" fill="#fff"/>
      <ellipse id="Elipse_3961" data-name="Elipse 3961" cx="0.579" cy="0.554" rx="0.579" ry="0.554" transform="translate(10.423 0)" fill="#fff"/>
      <path id="Trazado_99229" data-name="Trazado 99229" d="M1.158.554a.567.567,0,0,1-.579.553A.566.566,0,0,1,0,.554.567.567,0,0,1,.579,0,.567.567,0,0,1,1.158.554Z" transform="translate(15.634)" fill="#fff"/>
      <path id="Trazado_99230" data-name="Trazado 99230" d="M1.158.554a.567.567,0,0,1-.579.553A.567.567,0,0,1,0,.554.567.567,0,0,1,.579,0,.567.567,0,0,1,1.158.554Z" transform="translate(20.846)" fill="#fff"/>
      <ellipse id="Elipse_3962" data-name="Elipse 3962" cx="0.579" cy="0.554" rx="0.579" ry="0.554" transform="translate(26.057 0)" fill="#fff"/>
      <path id="Trazado_99231" data-name="Trazado 99231" d="M1.158.554a.567.567,0,0,1-.579.553A.567.567,0,0,1,0,.554.567.567,0,0,1,.579,0,.568.568,0,0,1,1.158.554Z" transform="translate(31.269)" fill="#fff"/>
      <ellipse id="Elipse_3963" data-name="Elipse 3963" cx="0.579" cy="0.554" rx="0.579" ry="0.554" transform="translate(36.48 0)" fill="#fff"/>
      <ellipse id="Elipse_3964" data-name="Elipse 3964" cx="0.579" cy="0.554" rx="0.579" ry="0.554" transform="translate(41.691 0)" fill="#fff"/>
      <path id="Trazado_99232" data-name="Trazado 99232" d="M1.158.554a.567.567,0,0,1-.579.553A.567.567,0,0,1,0,.554.567.567,0,0,1,.579,0,.568.568,0,0,1,1.158.554Z" transform="translate(46.903)" fill="#fff"/>
      <path id="Trazado_99233" data-name="Trazado 99233" d="M1.158.554a.567.567,0,0,1-.579.553A.567.567,0,0,1,0,.554.567.567,0,0,1,.579,0,.567.567,0,0,1,1.158.554Z" transform="translate(52.114)" fill="#fff"/>
    </g>
    <g id="Grupo_53310" data-name="Grupo 53310" transform="translate(1234.727 1129.678) rotate(90)">
      <path id="Trazado_99234" data-name="Trazado 99234" d="M1.158.554a.567.567,0,0,1-.579.553A.567.567,0,0,1,0,.554.567.567,0,0,1,.579,0,.567.567,0,0,1,1.158.554Z" fill="#fff"/>
      <path id="Trazado_99235" data-name="Trazado 99235" d="M1.158.554a.567.567,0,0,1-.579.553A.567.567,0,0,1,0,.554.567.567,0,0,1,.579,0,.567.567,0,0,1,1.158.554Z" transform="translate(5.211)" fill="#fff"/>
      <path id="Trazado_99236" data-name="Trazado 99236" d="M1.158.554a.567.567,0,0,1-.579.553A.567.567,0,0,1,0,.554.567.567,0,0,1,.579,0,.567.567,0,0,1,1.158.554Z" transform="translate(10.422)" fill="#fff"/>
      <path id="Trazado_99237" data-name="Trazado 99237" d="M1.158.554a.567.567,0,0,1-.579.553A.566.566,0,0,1,0,.554.567.567,0,0,1,.579,0,.567.567,0,0,1,1.158.554Z" transform="translate(15.634)" fill="#fff"/>
      <path id="Trazado_99238" data-name="Trazado 99238" d="M1.158.554a.567.567,0,0,1-.579.553A.567.567,0,0,1,0,.554.567.567,0,0,1,.579,0,.567.567,0,0,1,1.158.554Z" transform="translate(20.845)" fill="#fff"/>
      <path id="Trazado_99239" data-name="Trazado 99239" d="M1.158.554a.567.567,0,0,1-.579.553A.567.567,0,0,1,0,.554.567.567,0,0,1,.579,0,.567.567,0,0,1,1.158.554Z" transform="translate(26.057)" fill="#fff"/>
      <path id="Trazado_99240" data-name="Trazado 99240" d="M1.158.554a.567.567,0,0,1-.579.553A.567.567,0,0,1,0,.554.567.567,0,0,1,.579,0,.567.567,0,0,1,1.158.554Z" transform="translate(31.269)" fill="#fff"/>
      <path id="Trazado_99241" data-name="Trazado 99241" d="M1.158.554a.567.567,0,0,1-.579.553A.567.567,0,0,1,0,.554.567.567,0,0,1,.579,0,.567.567,0,0,1,1.158.554Z" transform="translate(36.48)" fill="#fff"/>
      <path id="Trazado_99242" data-name="Trazado 99242" d="M1.158.554a.567.567,0,0,1-.579.553A.567.567,0,0,1,0,.554.567.567,0,0,1,.579,0,.567.567,0,0,1,1.158.554Z" transform="translate(41.691)" fill="#fff"/>
      <path id="Trazado_99243" data-name="Trazado 99243" d="M1.158.554a.567.567,0,0,1-.579.553A.567.567,0,0,1,0,.554.567.567,0,0,1,.579,0,.567.567,0,0,1,1.158.554Z" transform="translate(46.903)" fill="#fff"/>
      <path id="Trazado_99244" data-name="Trazado 99244" d="M1.158.554a.567.567,0,0,1-.579.553A.567.567,0,0,1,0,.554.567.567,0,0,1,.579,0,.567.567,0,0,1,1.158.554Z" transform="translate(52.114)" fill="#fff"/>
    </g>
    <g id="Grupo_53311" data-name="Grupo 53311" transform="translate(1230.296 1129.678) rotate(90)">
      <ellipse id="Elipse_3965" data-name="Elipse 3965" cx="0.579" cy="0.554" rx="0.579" ry="0.554" transform="translate(0 0)" fill="#fff"/>
      <path id="Trazado_99245" data-name="Trazado 99245" d="M1.158.554a.567.567,0,0,1-.579.553A.567.567,0,0,1,0,.554.567.567,0,0,1,.579,0,.567.567,0,0,1,1.158.554Z" transform="translate(5.211)" fill="#fff"/>
      <ellipse id="Elipse_3966" data-name="Elipse 3966" cx="0.579" cy="0.554" rx="0.579" ry="0.554" transform="translate(10.423 0)" fill="#fff"/>
      <path id="Trazado_99246" data-name="Trazado 99246" d="M1.158.554a.567.567,0,0,1-.579.553A.567.567,0,0,1,0,.554.567.567,0,0,1,.579,0,.567.567,0,0,1,1.158.554Z" transform="translate(15.634)" fill="#fff"/>
      <path id="Trazado_99247" data-name="Trazado 99247" d="M1.158.554a.567.567,0,0,1-.579.553A.567.567,0,0,1,0,.554.567.567,0,0,1,.579,0,.567.567,0,0,1,1.158.554Z" transform="translate(20.846)" fill="#fff"/>
      <ellipse id="Elipse_3967" data-name="Elipse 3967" cx="0.579" cy="0.554" rx="0.579" ry="0.554" transform="translate(26.057 0)" fill="#fff"/>
      <path id="Trazado_99248" data-name="Trazado 99248" d="M1.158.554a.567.567,0,0,1-.579.553A.567.567,0,0,1,0,.554.567.567,0,0,1,.579,0,.567.567,0,0,1,1.158.554Z" transform="translate(31.269)" fill="#fff"/>
      <ellipse id="Elipse_3968" data-name="Elipse 3968" cx="0.579" cy="0.554" rx="0.579" ry="0.554" transform="translate(36.48 0)" fill="#fff"/>
      <ellipse id="Elipse_3969" data-name="Elipse 3969" cx="0.579" cy="0.554" rx="0.579" ry="0.554" transform="translate(41.691 0)" fill="#fff"/>
      <path id="Trazado_99249" data-name="Trazado 99249" d="M1.158.554a.567.567,0,0,1-.579.553A.567.567,0,0,1,0,.554.567.567,0,0,1,.579,0,.567.567,0,0,1,1.158.554Z" transform="translate(46.903)" fill="#fff"/>
      <path id="Trazado_99250" data-name="Trazado 99250" d="M1.158.554a.567.567,0,0,1-.579.553A.567.567,0,0,1,0,.554.567.567,0,0,1,.579,0,.567.567,0,0,1,1.158.554Z" transform="translate(52.114)" fill="#fff"/>
    </g>
    <g id="Grupo_53312" data-name="Grupo 53312" transform="translate(1225.866 1129.678) rotate(90)">
      <ellipse id="Elipse_3970" data-name="Elipse 3970" cx="0.579" cy="0.554" rx="0.579" ry="0.554" fill="#fff"/>
      <path id="Trazado_99251" data-name="Trazado 99251" d="M1.158.553a.567.567,0,0,1-.579.554A.567.567,0,0,1,0,.553.567.567,0,0,1,.579,0,.567.567,0,0,1,1.158.553Z" transform="translate(5.211 0)" fill="#fff"/>
      <ellipse id="Elipse_3971" data-name="Elipse 3971" cx="0.579" cy="0.554" rx="0.579" ry="0.554" transform="translate(10.423)" fill="#fff"/>
      <path id="Trazado_99252" data-name="Trazado 99252" d="M1.158.553a.567.567,0,0,1-.579.554A.567.567,0,0,1,0,.553.566.566,0,0,1,.579,0,.567.567,0,0,1,1.158.553Z" transform="translate(15.634 0)" fill="#fff"/>
      <path id="Trazado_99253" data-name="Trazado 99253" d="M1.158.553a.567.567,0,0,1-.579.554A.567.567,0,0,1,0,.553.567.567,0,0,1,.579,0,.567.567,0,0,1,1.158.553Z" transform="translate(20.846 0)" fill="#fff"/>
      <ellipse id="Elipse_3972" data-name="Elipse 3972" cx="0.579" cy="0.554" rx="0.579" ry="0.554" transform="translate(26.057)" fill="#fff"/>
      <path id="Trazado_99254" data-name="Trazado 99254" d="M1.158.553a.567.567,0,0,1-.579.554A.567.567,0,0,1,0,.553.567.567,0,0,1,.579,0,.567.567,0,0,1,1.158.553Z" transform="translate(31.269 0)" fill="#fff"/>
      <ellipse id="Elipse_3973" data-name="Elipse 3973" cx="0.579" cy="0.554" rx="0.579" ry="0.554" transform="translate(36.48)" fill="#fff"/>
      <ellipse id="Elipse_3974" data-name="Elipse 3974" cx="0.579" cy="0.554" rx="0.579" ry="0.554" transform="translate(41.691)" fill="#fff"/>
      <path id="Trazado_99255" data-name="Trazado 99255" d="M1.158.553a.567.567,0,0,1-.579.554A.567.567,0,0,1,0,.553.567.567,0,0,1,.579,0,.567.567,0,0,1,1.158.553Z" transform="translate(46.903 0)" fill="#fff"/>
      <path id="Trazado_99256" data-name="Trazado 99256" d="M1.158.553a.567.567,0,0,1-.579.554A.567.567,0,0,1,0,.553.567.567,0,0,1,.579,0,.567.567,0,0,1,1.158.553Z" transform="translate(52.114 0)" fill="#fff"/>
    </g>
    <g id="Grupo_53313" data-name="Grupo 53313" transform="translate(1221.436 1129.678) rotate(90)">
      <path id="Trazado_99257" data-name="Trazado 99257" d="M1.158.553a.567.567,0,0,1-.579.554A.567.567,0,0,1,0,.553.567.567,0,0,1,.579,0,.567.567,0,0,1,1.158.553Z" fill="#fff"/>
      <path id="Trazado_99258" data-name="Trazado 99258" d="M1.158.553a.567.567,0,0,1-.579.554A.567.567,0,0,1,0,.553.567.567,0,0,1,.579,0,.566.566,0,0,1,1.158.553Z" transform="translate(5.211)" fill="#fff"/>
      <path id="Trazado_99259" data-name="Trazado 99259" d="M1.158.553a.567.567,0,0,1-.579.554A.567.567,0,0,1,0,.553.567.567,0,0,1,.579,0,.567.567,0,0,1,1.158.553Z" transform="translate(10.422)" fill="#fff"/>
      <path id="Trazado_99260" data-name="Trazado 99260" d="M1.158.553a.567.567,0,0,1-.579.554A.567.567,0,0,1,0,.553.566.566,0,0,1,.579,0,.567.567,0,0,1,1.158.553Z" transform="translate(15.634)" fill="#fff"/>
      <path id="Trazado_99261" data-name="Trazado 99261" d="M1.158.553a.567.567,0,0,1-.579.554A.567.567,0,0,1,0,.553.567.567,0,0,1,.579,0,.567.567,0,0,1,1.158.553Z" transform="translate(20.845)" fill="#fff"/>
      <path id="Trazado_99262" data-name="Trazado 99262" d="M1.158.553a.567.567,0,0,1-.579.554A.567.567,0,0,1,0,.553.567.567,0,0,1,.579,0,.567.567,0,0,1,1.158.553Z" transform="translate(26.057)" fill="#fff"/>
      <path id="Trazado_99263" data-name="Trazado 99263" d="M1.158.553a.567.567,0,0,1-.579.554A.567.567,0,0,1,0,.553.567.567,0,0,1,.579,0,.567.567,0,0,1,1.158.553Z" transform="translate(31.269)" fill="#fff"/>
      <path id="Trazado_99264" data-name="Trazado 99264" d="M1.158.553a.567.567,0,0,1-.579.554A.567.567,0,0,1,0,.553.567.567,0,0,1,.579,0,.567.567,0,0,1,1.158.553Z" transform="translate(36.48)" fill="#fff"/>
      <path id="Trazado_99265" data-name="Trazado 99265" d="M1.158.553a.567.567,0,0,1-.579.554A.567.567,0,0,1,0,.553.567.567,0,0,1,.579,0,.567.567,0,0,1,1.158.553Z" transform="translate(41.691)" fill="#fff"/>
      <path id="Trazado_99266" data-name="Trazado 99266" d="M1.158.553a.567.567,0,0,1-.579.554A.567.567,0,0,1,0,.553.567.567,0,0,1,.579,0,.567.567,0,0,1,1.158.553Z" transform="translate(46.903)" fill="#fff"/>
      <path id="Trazado_99267" data-name="Trazado 99267" d="M1.158.553a.567.567,0,0,1-.579.554A.567.567,0,0,1,0,.553.567.567,0,0,1,.579,0,.567.567,0,0,1,1.158.553Z" transform="translate(52.114)" fill="#fff"/>
    </g>
    <g id="Grupo_53314" data-name="Grupo 53314" transform="translate(1217.006 1129.678) rotate(90)">
      <ellipse id="Elipse_3975" data-name="Elipse 3975" cx="0.579" cy="0.554" rx="0.579" ry="0.554" fill="#fff"/>
      <path id="Trazado_99268" data-name="Trazado 99268" d="M1.158.553a.567.567,0,0,1-.579.554A.567.567,0,0,1,0,.553.567.567,0,0,1,.579,0,.567.567,0,0,1,1.158.553Z" transform="translate(5.211 0)" fill="#fff"/>
      <ellipse id="Elipse_3976" data-name="Elipse 3976" cx="0.579" cy="0.554" rx="0.579" ry="0.554" transform="translate(10.423)" fill="#fff"/>
      <path id="Trazado_99269" data-name="Trazado 99269" d="M1.158.553a.567.567,0,0,1-.579.554A.567.567,0,0,1,0,.553.566.566,0,0,1,.579,0,.567.567,0,0,1,1.158.553Z" transform="translate(15.634 0)" fill="#fff"/>
      <path id="Trazado_99270" data-name="Trazado 99270" d="M1.158.553a.567.567,0,0,1-.579.554A.567.567,0,0,1,0,.553.567.567,0,0,1,.579,0,.567.567,0,0,1,1.158.553Z" transform="translate(20.846 0)" fill="#fff"/>
      <ellipse id="Elipse_3977" data-name="Elipse 3977" cx="0.579" cy="0.554" rx="0.579" ry="0.554" transform="translate(26.057)" fill="#fff"/>
      <path id="Trazado_99271" data-name="Trazado 99271" d="M1.158.553a.568.568,0,0,1-.579.554A.567.567,0,0,1,0,.553.567.567,0,0,1,.579,0,.567.567,0,0,1,1.158.553Z" transform="translate(31.269 0)" fill="#fff"/>
      <ellipse id="Elipse_3978" data-name="Elipse 3978" cx="0.579" cy="0.554" rx="0.579" ry="0.554" transform="translate(36.48)" fill="#fff"/>
      <ellipse id="Elipse_3979" data-name="Elipse 3979" cx="0.579" cy="0.554" rx="0.579" ry="0.554" transform="translate(41.691)" fill="#fff"/>
      <path id="Trazado_99272" data-name="Trazado 99272" d="M1.158.553a.568.568,0,0,1-.579.554A.567.567,0,0,1,0,.553.567.567,0,0,1,.579,0,.567.567,0,0,1,1.158.553Z" transform="translate(46.903 0)" fill="#fff"/>
      <path id="Trazado_99273" data-name="Trazado 99273" d="M1.158.553a.567.567,0,0,1-.579.554A.567.567,0,0,1,0,.553.567.567,0,0,1,.579,0,.567.567,0,0,1,1.158.553Z" transform="translate(52.114 0)" fill="#fff"/>
    </g>
    <g id="Grupo_53315" data-name="Grupo 53315" transform="translate(1212.576 1129.678) rotate(90)">
      <path id="Trazado_99274" data-name="Trazado 99274" d="M1.158.554a.567.567,0,0,1-.579.554A.567.567,0,0,1,0,.554.567.567,0,0,1,.579,0,.567.567,0,0,1,1.158.554Z" fill="#fff"/>
      <path id="Trazado_99275" data-name="Trazado 99275" d="M1.158.554a.567.567,0,0,1-.579.554A.567.567,0,0,1,0,.554.567.567,0,0,1,.579,0,.567.567,0,0,1,1.158.554Z" transform="translate(5.211)" fill="#fff"/>
      <path id="Trazado_99276" data-name="Trazado 99276" d="M1.158.554a.567.567,0,0,1-.579.554A.568.568,0,0,1,0,.554.568.568,0,0,1,.579,0,.567.567,0,0,1,1.158.554Z" transform="translate(10.422)" fill="#fff"/>
      <path id="Trazado_99277" data-name="Trazado 99277" d="M1.158.554a.567.567,0,0,1-.579.554A.567.567,0,0,1,0,.554.567.567,0,0,1,.579,0,.567.567,0,0,1,1.158.554Z" transform="translate(15.634)" fill="#fff"/>
      <path id="Trazado_99278" data-name="Trazado 99278" d="M1.158.554a.567.567,0,0,1-.579.554A.567.567,0,0,1,0,.554.567.567,0,0,1,.579,0,.567.567,0,0,1,1.158.554Z" transform="translate(20.845)" fill="#fff"/>
      <path id="Trazado_99279" data-name="Trazado 99279" d="M1.158.554a.567.567,0,0,1-.579.554A.568.568,0,0,1,0,.554.568.568,0,0,1,.579,0,.567.567,0,0,1,1.158.554Z" transform="translate(26.057)" fill="#fff"/>
      <path id="Trazado_99280" data-name="Trazado 99280" d="M1.158.554a.568.568,0,0,1-.579.554A.567.567,0,0,1,0,.554.567.567,0,0,1,.579,0,.568.568,0,0,1,1.158.554Z" transform="translate(31.269)" fill="#fff"/>
      <path id="Trazado_99281" data-name="Trazado 99281" d="M1.158.554a.567.567,0,0,1-.579.554A.567.567,0,0,1,0,.554.567.567,0,0,1,.579,0,.567.567,0,0,1,1.158.554Z" transform="translate(36.48)" fill="#fff"/>
      <path id="Trazado_99282" data-name="Trazado 99282" d="M1.158.554a.567.567,0,0,1-.579.554A.568.568,0,0,1,0,.554.568.568,0,0,1,.579,0,.567.567,0,0,1,1.158.554Z" transform="translate(41.691)" fill="#fff"/>
      <path id="Trazado_99283" data-name="Trazado 99283" d="M1.158.554a.568.568,0,0,1-.579.554A.567.567,0,0,1,0,.554.567.567,0,0,1,.579,0,.568.568,0,0,1,1.158.554Z" transform="translate(46.903)" fill="#fff"/>
      <path id="Trazado_99284" data-name="Trazado 99284" d="M1.158.554a.567.567,0,0,1-.579.554A.567.567,0,0,1,0,.554.567.567,0,0,1,.579,0,.567.567,0,0,1,1.158.554Z" transform="translate(52.114)" fill="#fff"/>
    </g>
    <g id="Grupo_53316" data-name="Grupo 53316" transform="translate(1208.146 1129.678) rotate(90)">
      <ellipse id="Elipse_3980" data-name="Elipse 3980" cx="0.579" cy="0.554" rx="0.579" ry="0.554" transform="translate(0 0)" fill="#fff"/>
      <path id="Trazado_99285" data-name="Trazado 99285" d="M1.158.554a.567.567,0,0,1-.579.553A.567.567,0,0,1,0,.554.567.567,0,0,1,.579,0,.567.567,0,0,1,1.158.554Z" transform="translate(5.211)" fill="#fff"/>
      <ellipse id="Elipse_3981" data-name="Elipse 3981" cx="0.579" cy="0.554" rx="0.579" ry="0.554" transform="translate(10.423 0)" fill="#fff"/>
      <path id="Trazado_99286" data-name="Trazado 99286" d="M1.158.554a.567.567,0,0,1-.579.553A.567.567,0,0,1,0,.554.567.567,0,0,1,.579,0,.567.567,0,0,1,1.158.554Z" transform="translate(15.634)" fill="#fff"/>
      <path id="Trazado_99287" data-name="Trazado 99287" d="M1.158.554a.567.567,0,0,1-.579.553A.567.567,0,0,1,0,.554.567.567,0,0,1,.579,0,.567.567,0,0,1,1.158.554Z" transform="translate(20.846)" fill="#fff"/>
      <ellipse id="Elipse_3982" data-name="Elipse 3982" cx="0.579" cy="0.554" rx="0.579" ry="0.554" transform="translate(26.057 0)" fill="#fff"/>
      <path id="Trazado_99288" data-name="Trazado 99288" d="M1.158.554a.567.567,0,0,1-.579.553A.567.567,0,0,1,0,.554.567.567,0,0,1,.579,0,.568.568,0,0,1,1.158.554Z" transform="translate(31.269)" fill="#fff"/>
      <ellipse id="Elipse_3983" data-name="Elipse 3983" cx="0.579" cy="0.554" rx="0.579" ry="0.554" transform="translate(36.48 0)" fill="#fff"/>
      <ellipse id="Elipse_3984" data-name="Elipse 3984" cx="0.579" cy="0.554" rx="0.579" ry="0.554" transform="translate(41.691 0)" fill="#fff"/>
      <path id="Trazado_99289" data-name="Trazado 99289" d="M1.158.554a.567.567,0,0,1-.579.553A.567.567,0,0,1,0,.554.567.567,0,0,1,.579,0,.568.568,0,0,1,1.158.554Z" transform="translate(46.903)" fill="#fff"/>
      <path id="Trazado_99290" data-name="Trazado 99290" d="M1.158.554a.567.567,0,0,1-.579.553A.567.567,0,0,1,0,.554.567.567,0,0,1,.579,0,.567.567,0,0,1,1.158.554Z" transform="translate(52.114)" fill="#fff"/>
    </g>
    <g id="Grupo_53317" data-name="Grupo 53317" transform="translate(1203.716 1129.678) rotate(90)">
      <ellipse id="Elipse_3985" data-name="Elipse 3985" cx="0.579" cy="0.554" rx="0.579" ry="0.554" transform="translate(0 0)" fill="#fff"/>
      <path id="Trazado_99291" data-name="Trazado 99291" d="M1.158.554a.567.567,0,0,1-.579.553A.567.567,0,0,1,0,.554.567.567,0,0,1,.579,0,.567.567,0,0,1,1.158.554Z" transform="translate(5.211)" fill="#fff"/>
      <ellipse id="Elipse_3986" data-name="Elipse 3986" cx="0.579" cy="0.554" rx="0.579" ry="0.554" transform="translate(10.423 0)" fill="#fff"/>
      <path id="Trazado_99292" data-name="Trazado 99292" d="M1.158.554a.567.567,0,0,1-.579.553A.566.566,0,0,1,0,.554.567.567,0,0,1,.579,0,.567.567,0,0,1,1.158.554Z" transform="translate(15.634)" fill="#fff"/>
      <path id="Trazado_99293" data-name="Trazado 99293" d="M1.158.554a.567.567,0,0,1-.579.553A.567.567,0,0,1,0,.554.567.567,0,0,1,.579,0,.567.567,0,0,1,1.158.554Z" transform="translate(20.846)" fill="#fff"/>
      <ellipse id="Elipse_3987" data-name="Elipse 3987" cx="0.579" cy="0.554" rx="0.579" ry="0.554" transform="translate(26.057 0)" fill="#fff"/>
      <path id="Trazado_99294" data-name="Trazado 99294" d="M1.158.554a.567.567,0,0,1-.579.553A.567.567,0,0,1,0,.554.567.567,0,0,1,.579,0,.567.567,0,0,1,1.158.554Z" transform="translate(31.269)" fill="#fff"/>
      <ellipse id="Elipse_3988" data-name="Elipse 3988" cx="0.579" cy="0.554" rx="0.579" ry="0.554" transform="translate(36.48 0)" fill="#fff"/>
      <ellipse id="Elipse_3989" data-name="Elipse 3989" cx="0.579" cy="0.554" rx="0.579" ry="0.554" transform="translate(41.691 0)" fill="#fff"/>
      <path id="Trazado_99295" data-name="Trazado 99295" d="M1.158.554a.567.567,0,0,1-.579.553A.567.567,0,0,1,0,.554.567.567,0,0,1,.579,0,.567.567,0,0,1,1.158.554Z" transform="translate(46.903)" fill="#fff"/>
      <path id="Trazado_99296" data-name="Trazado 99296" d="M1.158.554a.567.567,0,0,1-.579.553A.567.567,0,0,1,0,.554.567.567,0,0,1,.579,0,.567.567,0,0,1,1.158.554Z" transform="translate(52.114)" fill="#fff"/>
    </g>
    <line id="Línea_138" data-name="Línea 138" y2="105.662" transform="translate(297.139 901.297)" fill="none" stroke="#31313c" stroke-linecap="round" stroke-width="4" stroke-dasharray="8"/>
    <path id="Sustracción_36" data-name="Sustracción 36" d="M81.167,162.335a80.814,80.814,0,0,1-45.382-13.861A81.389,81.389,0,0,1,6.379,112.762a81.068,81.068,0,0,1,7.483-76.975A81.392,81.392,0,0,1,49.574,6.379a81.059,81.059,0,0,1,76.974,7.483,81.388,81.388,0,0,1,29.406,35.713,81.072,81.072,0,0,1-7.482,76.975,81.388,81.388,0,0,1-35.711,29.406A80.66,80.66,0,0,1,81.167,162.335Zm0-137.359A56.192,56.192,0,1,0,137.36,81.168,56.257,56.257,0,0,0,81.167,24.976Z" transform="translate(1150.666 1145.244)" fill="#7fe5cf" opacity="0.58"/>
    <rect id="Rectángulo_392709" data-name="Rectángulo 392709" width="216" height="89" rx="10" transform="translate(390 909)" fill="#7fe5cf"/>
    <g id="Rectángulo_392710" data-name="Rectángulo 392710" transform="translate(397 916)" fill="none" stroke="#fff" stroke-width="2">
      <rect width="202" height="75" rx="10" stroke="none"/>
      <rect x="1" y="1" width="200" height="73" rx="9" fill="none"/>
    </g>
    <path id="Trazado_1242404" data-name="Trazado 1242404" d="M70.578,11.211A4.025,4.025,0,0,1,69.223,14.1,4.76,4.76,0,0,1,66,15.156a4.28,4.28,0,0,1-3.441-1.473A6.038,6.038,0,0,1,61.3,9.641v-.7a6.819,6.819,0,0,1,.578-2.891,4.332,4.332,0,0,1,1.652-1.918,5.164,5.164,0,0,1,5.668.387,4.326,4.326,0,0,1,1.391,2.961H68.25a2.376,2.376,0,0,0-.613-1.6,2.271,2.271,0,0,0-1.605-.5,1.991,1.991,0,0,0-1.754.84,4.707,4.707,0,0,0-.6,2.605V9.7a5.038,5.038,0,0,0,.559,2.7A1.954,1.954,0,0,0,66,13.242a2.314,2.314,0,0,0,1.621-.5,2.241,2.241,0,0,0,.613-1.535Zm1.039-.516A5.013,5.013,0,0,1,72.1,8.453,3.546,3.546,0,0,1,73.5,6.93a4.069,4.069,0,0,1,2.113-.539A3.849,3.849,0,0,1,78.4,7.438a4.2,4.2,0,0,1,1.207,2.844l.016.578a4.418,4.418,0,0,1-1.086,3.121,4.209,4.209,0,0,1-5.832,0,4.5,4.5,0,0,1-1.09-3.187Zm2.258.16a3.16,3.16,0,0,0,.453,1.843,1.628,1.628,0,0,0,2.578.008,3.457,3.457,0,0,0,.461-2.015,3.128,3.128,0,0,0-.461-1.831,1.5,1.5,0,0,0-1.3-.649,1.474,1.474,0,0,0-1.281.646A3.516,3.516,0,0,0,73.875,10.856ZM85.766,8.664a6.134,6.134,0,0,0-.812-.062,1.654,1.654,0,0,0-1.68.867V15H81.016V6.547h2.133l.063,1.008a2.092,2.092,0,0,1,1.883-1.164,2.366,2.366,0,0,1,.7.1Zm5.836,0a6.134,6.134,0,0,0-.812-.062,1.654,1.654,0,0,0-1.68.867V15H86.852V6.547h2.133l.063,1.008A2.092,2.092,0,0,1,90.93,6.391a2.366,2.366,0,0,1,.7.1Zm4.828,6.492A4.15,4.15,0,0,1,93.4,14.016a4.054,4.054,0,0,1-1.168-3.039v-.219a5.106,5.106,0,0,1,.492-2.277,3.612,3.612,0,0,1,1.395-1.547,3.914,3.914,0,0,1,2.059-.543,3.508,3.508,0,0,1,2.73,1.094,4.444,4.444,0,0,1,1,3.1v.922H94.523a2.1,2.1,0,0,0,.66,1.328,2,2,0,0,0,1.395.5,2.437,2.437,0,0,0,2.039-.945l1.109,1.242a3.389,3.389,0,0,1-1.375,1.121A4.511,4.511,0,0,1,96.43,15.156Zm-.258-6.945a1.411,1.411,0,0,0-1.09.455,2.357,2.357,0,0,0-.535,1.3h3.141V9.788a1.681,1.681,0,0,0-.406-1.165A1.456,1.456,0,0,0,96.172,8.211Zm4.664,2.484a5.013,5.013,0,0,1,.484-2.242,3.546,3.546,0,0,1,1.395-1.523,4.069,4.069,0,0,1,2.113-.539,3.849,3.849,0,0,1,2.793,1.047,4.2,4.2,0,0,1,1.207,2.844l.016.578a4.418,4.418,0,0,1-1.086,3.121,4.209,4.209,0,0,1-5.832,0,4.5,4.5,0,0,1-1.09-3.187Zm2.258.16a3.16,3.16,0,0,0,.453,1.843,1.628,1.628,0,0,0,2.578.008,3.457,3.457,0,0,0,.461-2.015,3.128,3.128,0,0,0-.461-1.831,1.5,1.5,0,0,0-1.3-.649,1.474,1.474,0,0,0-1.281.646A3.516,3.516,0,0,0,103.094,10.856Zm-53.578,24.3a4.15,4.15,0,0,1-3.027-1.141,4.054,4.054,0,0,1-1.168-3.039v-.219a5.106,5.106,0,0,1,.492-2.277,3.612,3.612,0,0,1,1.395-1.547,3.914,3.914,0,0,1,2.059-.543A3.508,3.508,0,0,1,52,27.484a4.444,4.444,0,0,1,1,3.1v.922H47.609a2.1,2.1,0,0,0,.66,1.328,2,2,0,0,0,1.395.5,2.437,2.437,0,0,0,2.039-.945l1.109,1.242a3.389,3.389,0,0,1-1.375,1.121A4.511,4.511,0,0,1,49.516,35.156Zm-.258-6.945a1.411,1.411,0,0,0-1.09.455,2.357,2.357,0,0,0-.535,1.3h3.141v-.181a1.681,1.681,0,0,0-.406-1.165A1.456,1.456,0,0,0,49.258,28.211ZM56.656,35H54.391V23h2.266Zm5.75.156a4.15,4.15,0,0,1-3.027-1.141,4.054,4.054,0,0,1-1.168-3.039v-.219A5.106,5.106,0,0,1,58.7,28.48,3.612,3.612,0,0,1,60.1,26.934a3.914,3.914,0,0,1,2.059-.543,3.508,3.508,0,0,1,2.73,1.094,4.444,4.444,0,0,1,1,3.1v.922H60.5a2.1,2.1,0,0,0,.66,1.328,2,2,0,0,0,1.395.5,2.437,2.437,0,0,0,2.039-.945L65.7,33.633a3.389,3.389,0,0,1-1.375,1.121A4.511,4.511,0,0,1,62.406,35.156Zm-.258-6.945a1.411,1.411,0,0,0-1.09.455,2.357,2.357,0,0,0-.535,1.3h3.141v-.181a1.681,1.681,0,0,0-.406-1.165A1.456,1.456,0,0,0,62.148,28.211Zm8.531,5.125a1.481,1.481,0,0,0,1.016-.344,1.2,1.2,0,0,0,.406-.914h2.117a2.9,2.9,0,0,1-.469,1.574,3.093,3.093,0,0,1-1.262,1.109,3.949,3.949,0,0,1-1.77.395A3.67,3.67,0,0,1,67.859,34a4.56,4.56,0,0,1-1.047-3.184v-.148a4.508,4.508,0,0,1,1.039-3.117A3.627,3.627,0,0,1,70.7,26.391a3.555,3.555,0,0,1,2.543.9,3.2,3.2,0,0,1,.973,2.4H72.1a1.551,1.551,0,0,0-.406-1.072,1.51,1.51,0,0,0-2.223.163,3.333,3.333,0,0,0-.4,1.866v.235a3.375,3.375,0,0,0,.4,1.878A1.377,1.377,0,0,0,70.68,33.336Zm7.531-8.867v2.078h1.445V28.2H78.211v4.219a1.007,1.007,0,0,0,.18.672.9.9,0,0,0,.688.2,3.6,3.6,0,0,0,.664-.055v1.711a4.648,4.648,0,0,1-1.367.2,2.156,2.156,0,0,1-2.422-2.4V28.2H74.719V26.547h1.234V24.469Zm7.453,4.2a6.134,6.134,0,0,0-.812-.062,1.654,1.654,0,0,0-1.68.867V35H80.914V26.547h2.133l.063,1.008a2.092,2.092,0,0,1,1.883-1.164,2.366,2.366,0,0,1,.7.1Zm.453,2.031a5.013,5.013,0,0,1,.484-2.242A3.546,3.546,0,0,1,88,26.93a4.069,4.069,0,0,1,2.113-.539A3.849,3.849,0,0,1,92.9,27.438a4.2,4.2,0,0,1,1.207,2.844l.016.578a4.418,4.418,0,0,1-1.086,3.121,4.209,4.209,0,0,1-5.832,0,4.5,4.5,0,0,1-1.09-3.187Zm2.258.16a3.16,3.16,0,0,0,.453,1.843,1.628,1.628,0,0,0,2.578.008,3.457,3.457,0,0,0,.461-2.015,3.128,3.128,0,0,0-.461-1.831,1.5,1.5,0,0,0-1.3-.649,1.474,1.474,0,0,0-1.281.646A3.516,3.516,0,0,0,88.375,30.856ZM90.555,23h2.461l-2.164,2.422H89.016Zm7.039,3.547.07.977a2.951,2.951,0,0,1,2.43-1.133,2.453,2.453,0,0,1,2,.789,3.682,3.682,0,0,1,.672,2.359V35h-2.258V29.594a1.465,1.465,0,0,0-.312-1.043,1.4,1.4,0,0,0-1.039-.324,1.553,1.553,0,0,0-1.43.813V35H95.469V26.547ZM106.859,35h-2.266V26.547h2.266Zm-2.4-10.641a1.112,1.112,0,0,1,.34-.836,1.465,1.465,0,0,1,1.848,0,1.193,1.193,0,0,1,0,1.68,1.448,1.448,0,0,1-1.836,0A1.108,1.108,0,0,1,104.461,24.359Zm7.773,8.977a1.481,1.481,0,0,0,1.016-.344,1.2,1.2,0,0,0,.406-.914h2.117a2.9,2.9,0,0,1-.469,1.574,3.093,3.093,0,0,1-1.262,1.109,3.949,3.949,0,0,1-1.77.395A3.67,3.67,0,0,1,109.414,34a4.56,4.56,0,0,1-1.047-3.184v-.148a4.508,4.508,0,0,1,1.039-3.117,3.627,3.627,0,0,1,2.852-1.164,3.555,3.555,0,0,1,2.543.9,3.2,3.2,0,0,1,.973,2.4h-2.117a1.551,1.551,0,0,0-.406-1.072,1.51,1.51,0,0,0-2.223.163,3.333,3.333,0,0,0-.4,1.866v.235a3.375,3.375,0,0,0,.4,1.878A1.377,1.377,0,0,0,112.234,33.336Zm4.477-2.641a5.013,5.013,0,0,1,.484-2.242,3.546,3.546,0,0,1,1.395-1.523,4.069,4.069,0,0,1,2.113-.539,3.849,3.849,0,0,1,2.793,1.047,4.2,4.2,0,0,1,1.207,2.844l.016.578a4.418,4.418,0,0,1-1.086,3.121,4.209,4.209,0,0,1-5.832,0,4.5,4.5,0,0,1-1.09-3.187Zm2.258.16a3.16,3.16,0,0,0,.453,1.843,1.628,1.628,0,0,0,2.578.008,3.457,3.457,0,0,0,.461-2.015A3.128,3.128,0,0,0,122,28.86a1.5,1.5,0,0,0-1.3-.649,1.474,1.474,0,0,0-1.281.646A3.516,3.516,0,0,0,118.969,30.856Z" transform="translate(413 935)" fill="#12263f"/>
    <rect id="Rectángulo_392709-2" data-name="Rectángulo 392709" width="216" height="89" rx="10" transform="translate(390 1077)" fill="#566368"/>
    <g id="Rectángulo_392710-2" data-name="Rectángulo 392710" transform="translate(397 1084)" fill="none" stroke="#fff" stroke-width="2">
      <rect width="202" height="75" rx="10" stroke="none"/>
      <rect x="1" y="1" width="200" height="73" rx="9" fill="none"/>
    </g>
    <path id="Trazado_1242409" data-name="Trazado 1242409" d="M44.852,12.18,47.43,3.625h2.609L46.078,15H43.633L39.688,3.625h2.6Zm5.4-1.484a5.013,5.013,0,0,1,.484-2.242A3.546,3.546,0,0,1,52.129,6.93a4.069,4.069,0,0,1,2.113-.539,3.849,3.849,0,0,1,2.793,1.047,4.2,4.2,0,0,1,1.207,2.844l.016.578a4.418,4.418,0,0,1-1.086,3.121,4.209,4.209,0,0,1-5.832,0A4.5,4.5,0,0,1,50.25,10.8Zm2.258.16a3.16,3.16,0,0,0,.453,1.843,1.628,1.628,0,0,0,2.578.008A3.457,3.457,0,0,0,56,10.691a3.128,3.128,0,0,0-.461-1.831,1.5,1.5,0,0,0-1.3-.649,1.474,1.474,0,0,0-1.281.646A3.516,3.516,0,0,0,52.508,10.856Zm9.609,2.324H66.25V15H59.234V13.625l3.977-5.258H59.352V6.547h6.773v1.33Zm14.109-.516a.727.727,0,0,0-.41-.652,4.659,4.659,0,0,0-1.316-.426q-3.016-.633-3.016-2.562a2.323,2.323,0,0,1,.934-1.879,3.766,3.766,0,0,1,2.441-.754,4.053,4.053,0,0,1,2.574.758A2.388,2.388,0,0,1,78.4,9.117H76.141a1.092,1.092,0,0,0-.312-.8A1.322,1.322,0,0,0,74.852,8a1.351,1.351,0,0,0-.883.258.814.814,0,0,0-.312.656.7.7,0,0,0,.355.605,3.657,3.657,0,0,0,1.2.4,9.8,9.8,0,0,1,1.422.379,2.336,2.336,0,0,1,1.789,2.273,2.2,2.2,0,0,1-.992,1.871,4.28,4.28,0,0,1-2.562.715,4.47,4.47,0,0,1-1.887-.379,3.166,3.166,0,0,1-1.293-1.039,2.414,2.414,0,0,1-.469-1.426h2.141a1.179,1.179,0,0,0,.445.922,1.766,1.766,0,0,0,1.109.32,1.635,1.635,0,0,0,.98-.246A.766.766,0,0,0,76.227,12.664Zm3.3-1.969a5.013,5.013,0,0,1,.484-2.242A3.546,3.546,0,0,1,81.4,6.93a4.069,4.069,0,0,1,2.113-.539,3.849,3.849,0,0,1,2.793,1.047,4.2,4.2,0,0,1,1.207,2.844l.016.578a4.418,4.418,0,0,1-1.086,3.121,4.209,4.209,0,0,1-5.832,0,4.5,4.5,0,0,1-1.09-3.187Zm2.258.16a3.16,3.16,0,0,0,.453,1.843,1.628,1.628,0,0,0,2.578.008,3.457,3.457,0,0,0,.461-2.015,3.128,3.128,0,0,0-.461-1.831,1.5,1.5,0,0,0-1.3-.649,1.474,1.474,0,0,0-1.281.646A3.516,3.516,0,0,0,81.781,10.856Zm14.758,0a5.119,5.119,0,0,1-.867,3.168,2.872,2.872,0,0,1-2.422,1.137,2.639,2.639,0,0,1-2.2-1.055l-.1.9H88.922V3H91.18V7.3a2.571,2.571,0,0,1,2.055-.914A2.9,2.9,0,0,1,95.66,7.527a5.126,5.126,0,0,1,.879,3.2Zm-2.258-.164a3.363,3.363,0,0,0-.406-1.871,1.374,1.374,0,0,0-1.211-.59,1.489,1.489,0,0,0-1.484.883v3.336a1.509,1.509,0,0,0,1.5.891,1.394,1.394,0,0,0,1.438-1.078A5.562,5.562,0,0,0,94.281,10.688Zm8.4-2.023a6.134,6.134,0,0,0-.812-.062,1.654,1.654,0,0,0-1.68.867V15H97.93V6.547h2.133l.063,1.008a2.092,2.092,0,0,1,1.883-1.164,2.366,2.366,0,0,1,.7.1Zm4.828,6.492a4.15,4.15,0,0,1-3.027-1.141,4.054,4.054,0,0,1-1.168-3.039v-.219A5.106,5.106,0,0,1,103.8,8.48,3.612,3.612,0,0,1,105.2,6.934a3.914,3.914,0,0,1,2.059-.543,3.508,3.508,0,0,1,2.73,1.094,4.444,4.444,0,0,1,1,3.1v.922H105.6a2.1,2.1,0,0,0,.66,1.328,2,2,0,0,0,1.395.5,2.437,2.437,0,0,0,2.039-.945l1.109,1.242a3.389,3.389,0,0,1-1.375,1.121A4.511,4.511,0,0,1,107.508,15.156Zm-.258-6.945a1.411,1.411,0,0,0-1.09.455,2.357,2.357,0,0,0-.535,1.3h3.141V9.788a1.681,1.681,0,0,0-.406-1.165A1.456,1.456,0,0,0,107.25,8.211ZM118.891,15h-2.344V3.625h2.344Zm4.516-4.008V15h-2.344V3.625H125.5a5.134,5.134,0,0,1,2.254.469,3.454,3.454,0,0,1,1.5,1.332,3.714,3.714,0,0,1,.523,1.965,3.266,3.266,0,0,1-1.145,2.637,4.767,4.767,0,0,1-3.168.965Zm0-1.9H125.5a2.059,2.059,0,0,0,1.418-.437,1.591,1.591,0,0,0,.488-1.25,1.876,1.876,0,0,0-.492-1.352,1.839,1.839,0,0,0-1.359-.531h-2.148Z" transform="translate(413 1112)" fill="#fff"/>
    <rect id="Rectángulo_392709-3" data-name="Rectángulo 392709" width="216" height="89" rx="10" transform="translate(390 1244)" fill="#7fe5cf"/>
    <g id="Rectángulo_392710-3" data-name="Rectángulo 392710" transform="translate(397 1251)" fill="none" stroke="#fff" stroke-width="2">
      <rect width="202" height="75" rx="10" stroke="none"/>
      <rect x="1" y="1" width="200" height="73" rx="9" fill="none"/>
    </g>
    <path id="Trazado_1242410" data-name="Trazado 1242410" d="M34.465,15H32.121V3.625h2.344Zm4.1-8.453.07.977a2.951,2.951,0,0,1,2.43-1.133,2.453,2.453,0,0,1,2,.789,3.682,3.682,0,0,1,.672,2.359V15H41.48V9.594a1.465,1.465,0,0,0-.312-1.043,1.4,1.4,0,0,0-1.039-.324,1.553,1.553,0,0,0-1.43.813V15H36.441V6.547Zm9.586-2.078V6.547H49.6V8.2H48.152v4.219a1.007,1.007,0,0,0,.18.672.9.9,0,0,0,.688.2,3.6,3.6,0,0,0,.664-.055v1.711a4.648,4.648,0,0,1-1.367.2,2.156,2.156,0,0,1-2.422-2.4V8.2H44.66V6.547h1.234V4.469Zm6.594,10.688a4.15,4.15,0,0,1-3.027-1.141,4.054,4.054,0,0,1-1.168-3.039v-.219a5.106,5.106,0,0,1,.492-2.277,3.612,3.612,0,0,1,1.395-1.547A3.914,3.914,0,0,1,54.5,6.391a3.508,3.508,0,0,1,2.73,1.094,4.444,4.444,0,0,1,1,3.1v.922H52.84a2.1,2.1,0,0,0,.66,1.328,2,2,0,0,0,1.395.5,2.437,2.437,0,0,0,2.039-.945l1.109,1.242a3.389,3.389,0,0,1-1.375,1.121A4.511,4.511,0,0,1,54.746,15.156Zm-.258-6.945a1.411,1.411,0,0,0-1.09.455,2.357,2.357,0,0,0-.535,1.3H56V9.788A1.681,1.681,0,0,0,55.6,8.623,1.456,1.456,0,0,0,54.488,8.211Zm9.766.453a6.134,6.134,0,0,0-.812-.062,1.654,1.654,0,0,0-1.68.867V15H59.5V6.547h2.133L61.7,7.555a2.092,2.092,0,0,1,1.883-1.164,2.366,2.366,0,0,1,.7.1Zm4.453,4.672a1.481,1.481,0,0,0,1.016-.344,1.2,1.2,0,0,0,.406-.914h2.117a2.9,2.9,0,0,1-.469,1.574,3.093,3.093,0,0,1-1.262,1.109,3.949,3.949,0,0,1-1.77.395A3.67,3.67,0,0,1,65.887,14,4.56,4.56,0,0,1,64.84,10.82v-.148a4.508,4.508,0,0,1,1.039-3.117A3.627,3.627,0,0,1,68.73,6.391a3.555,3.555,0,0,1,2.543.9,3.2,3.2,0,0,1,.973,2.4H70.129a1.551,1.551,0,0,0-.406-1.072,1.51,1.51,0,0,0-2.223.163,3.333,3.333,0,0,0-.4,1.866v.235a3.375,3.375,0,0,0,.4,1.878A1.377,1.377,0,0,0,68.707,13.336ZM78.434,15a2.507,2.507,0,0,1-.227-.758,2.732,2.732,0,0,1-2.133.914,3,3,0,0,1-2.059-.719,2.312,2.312,0,0,1-.816-1.812,2.389,2.389,0,0,1,1-2.062,4.915,4.915,0,0,1,2.879-.727h1.039V9.352a1.393,1.393,0,0,0-.3-.937,1.183,1.183,0,0,0-.949-.352,1.345,1.345,0,0,0-.895.273.929.929,0,0,0-.324.75H73.387a2.268,2.268,0,0,1,.453-1.359,3,3,0,0,1,1.281-.98,4.669,4.669,0,0,1,1.859-.355,3.689,3.689,0,0,1,2.48.785,2.747,2.747,0,0,1,.918,2.207v3.664a4.041,4.041,0,0,0,.336,1.82V15Zm-1.867-1.57a1.945,1.945,0,0,0,.922-.223,1.462,1.462,0,0,0,.625-.6V11.156H77.27q-1.7,0-1.8,1.172l-.008.133a.9.9,0,0,0,.3.7A1.153,1.153,0,0,0,76.566,13.43ZM84.23,6.547l.07.945a2.971,2.971,0,0,1,2.43-1.1A2.255,2.255,0,0,1,88.973,7.68a2.9,2.9,0,0,1,2.539-1.289,2.521,2.521,0,0,1,2.047.8A3.681,3.681,0,0,1,94.23,9.6V15H91.965V9.609a1.61,1.61,0,0,0-.281-1.051,1.246,1.246,0,0,0-.992-.332,1.409,1.409,0,0,0-1.406.969l.008,5.8H87.035V9.617a1.59,1.59,0,0,0-.289-1.062,1.259,1.259,0,0,0-.984-.328,1.463,1.463,0,0,0-1.391.8V15H82.113V6.547Zm19.352,4.3a5.119,5.119,0,0,1-.867,3.168,2.872,2.872,0,0,1-2.422,1.137A2.639,2.639,0,0,1,98.1,14.1L98,15H95.965V3h2.258V7.3a2.571,2.571,0,0,1,2.055-.914A2.9,2.9,0,0,1,102.7,7.527a5.126,5.126,0,0,1,.879,3.2Zm-2.258-.164a3.363,3.363,0,0,0-.406-1.871,1.374,1.374,0,0,0-1.211-.59,1.489,1.489,0,0,0-1.484.883v3.336a1.509,1.509,0,0,0,1.5.891,1.394,1.394,0,0,0,1.438-1.078A5.562,5.562,0,0,0,101.324,10.688ZM107.355,15H105.09V6.547h2.266Zm-2.4-10.641a1.112,1.112,0,0,1,.34-.836,1.465,1.465,0,0,1,1.848,0,1.105,1.105,0,0,1,.344.836,1.108,1.108,0,0,1-.348.844,1.448,1.448,0,0,1-1.836,0A1.108,1.108,0,0,1,104.957,4.359Zm3.906,6.336a5.013,5.013,0,0,1,.484-2.242,3.546,3.546,0,0,1,1.395-1.523,4.069,4.069,0,0,1,2.113-.539,3.849,3.849,0,0,1,2.793,1.047,4.2,4.2,0,0,1,1.207,2.844l.016.578a4.418,4.418,0,0,1-1.086,3.121,4.209,4.209,0,0,1-5.832,0,4.5,4.5,0,0,1-1.09-3.187Zm2.258.16a3.16,3.16,0,0,0,.453,1.843,1.628,1.628,0,0,0,2.578.008,3.457,3.457,0,0,0,.461-2.015,3.128,3.128,0,0,0-.461-1.831,1.5,1.5,0,0,0-1.3-.649,1.474,1.474,0,0,0-1.281.646A3.516,3.516,0,0,0,111.121,10.856Zm10.773-.145a5.094,5.094,0,0,1,.887-3.148,2.877,2.877,0,0,1,2.426-1.172,2.589,2.589,0,0,1,2.039.922V3h2.266V15h-2.039l-.109-.9a2.657,2.657,0,0,1-2.172,1.055A2.869,2.869,0,0,1,122.8,13.98,5.258,5.258,0,0,1,121.895,10.711Zm2.258.168a3.337,3.337,0,0,0,.414,1.823,1.349,1.349,0,0,0,1.2.634,1.511,1.511,0,0,0,1.477-.884V9.111a1.489,1.489,0,0,0-1.461-.884Q124.152,8.227,124.152,10.879Zm11,4.277a4.15,4.15,0,0,1-3.027-1.141,4.054,4.054,0,0,1-1.168-3.039v-.219a5.106,5.106,0,0,1,.492-2.277,3.612,3.612,0,0,1,1.395-1.547,3.914,3.914,0,0,1,2.059-.543,3.508,3.508,0,0,1,2.73,1.094,4.444,4.444,0,0,1,1,3.1v.922h-5.383a2.1,2.1,0,0,0,.66,1.328,2,2,0,0,0,1.395.5,2.437,2.437,0,0,0,2.039-.945l1.109,1.242a3.389,3.389,0,0,1-1.375,1.121A4.511,4.511,0,0,1,135.152,15.156Zm-.258-6.945a1.411,1.411,0,0,0-1.09.455,2.357,2.357,0,0,0-.535,1.3h3.141V9.788A1.681,1.681,0,0,0,136,8.623,1.456,1.456,0,0,0,134.895,8.211ZM37.711,35a2.507,2.507,0,0,1-.227-.758,2.732,2.732,0,0,1-2.133.914,3,3,0,0,1-2.059-.719,2.312,2.312,0,0,1-.816-1.812,2.389,2.389,0,0,1,1-2.062,4.915,4.915,0,0,1,2.879-.727h1.039v-.484a1.393,1.393,0,0,0-.3-.937,1.183,1.183,0,0,0-.949-.352,1.345,1.345,0,0,0-.895.273.929.929,0,0,0-.324.75H32.664a2.268,2.268,0,0,1,.453-1.359,3,3,0,0,1,1.281-.98,4.669,4.669,0,0,1,1.859-.355,3.689,3.689,0,0,1,2.48.785,2.747,2.747,0,0,1,.918,2.207v3.664a4.041,4.041,0,0,0,.336,1.82V35Zm-1.867-1.57a1.945,1.945,0,0,0,.922-.223,1.462,1.462,0,0,0,.625-.6V31.156h-.844q-1.7,0-1.8,1.172l-.008.133a.9.9,0,0,0,.3.7A1.153,1.153,0,0,0,35.844,33.43Zm10.3-4.766a6.134,6.134,0,0,0-.812-.062,1.654,1.654,0,0,0-1.68.867V35H41.391V26.547h2.133l.063,1.008a2.092,2.092,0,0,1,1.883-1.164,2.366,2.366,0,0,1,.7.1Zm4.453,4.672a1.481,1.481,0,0,0,1.016-.344,1.2,1.2,0,0,0,.406-.914h2.117a2.9,2.9,0,0,1-.469,1.574A3.093,3.093,0,0,1,52.4,34.762a3.949,3.949,0,0,1-1.77.395A3.67,3.67,0,0,1,47.773,34a4.56,4.56,0,0,1-1.047-3.184v-.148a4.508,4.508,0,0,1,1.039-3.117,3.627,3.627,0,0,1,2.852-1.164,3.555,3.555,0,0,1,2.543.9,3.2,3.2,0,0,1,.973,2.4H52.016a1.551,1.551,0,0,0-.406-1.072,1.51,1.51,0,0,0-2.223.163,3.333,3.333,0,0,0-.4,1.866v.235a3.375,3.375,0,0,0,.4,1.878A1.377,1.377,0,0,0,50.594,33.336Zm7.031-5.867a2.818,2.818,0,0,1,2.258-1.078q2.75,0,2.789,3.2V35H60.414V29.648a1.57,1.57,0,0,0-.312-1.074,1.34,1.34,0,0,0-1.039-.348,1.537,1.537,0,0,0-1.437.766V35H55.367V23h2.258ZM66.758,35H64.492V26.547h2.266Zm-2.4-10.641a1.112,1.112,0,0,1,.34-.836,1.465,1.465,0,0,1,1.848,0,1.193,1.193,0,0,1,0,1.68,1.448,1.448,0,0,1-1.836,0A1.108,1.108,0,0,1,64.359,24.359Zm7.422,7.883,1.57-5.7h2.359L72.859,35H70.7l-2.852-8.453h2.359ZM76.234,30.7a5.013,5.013,0,0,1,.484-2.242,3.546,3.546,0,0,1,1.395-1.523,4.069,4.069,0,0,1,2.113-.539,3.849,3.849,0,0,1,2.793,1.047,4.2,4.2,0,0,1,1.207,2.844l.016.578a4.418,4.418,0,0,1-1.086,3.121,4.209,4.209,0,0,1-5.832,0,4.5,4.5,0,0,1-1.09-3.187Zm2.258.16a3.16,3.16,0,0,0,.453,1.843,1.628,1.628,0,0,0,2.578.008,3.457,3.457,0,0,0,.461-2.015,3.128,3.128,0,0,0-.461-1.831,1.5,1.5,0,0,0-1.3-.649,1.474,1.474,0,0,0-1.281.646A3.516,3.516,0,0,0,78.492,30.856Zm11.719,1.808a.727.727,0,0,0-.41-.652,4.659,4.659,0,0,0-1.316-.426q-3.016-.633-3.016-2.562a2.323,2.323,0,0,1,.934-1.879,3.766,3.766,0,0,1,2.441-.754,4.053,4.053,0,0,1,2.574.758,2.388,2.388,0,0,1,.965,1.969H90.125a1.092,1.092,0,0,0-.312-.8A1.322,1.322,0,0,0,88.836,28a1.351,1.351,0,0,0-.883.258.814.814,0,0,0-.312.656A.7.7,0,0,0,88,29.52a3.657,3.657,0,0,0,1.2.4,9.8,9.8,0,0,1,1.422.379,2.336,2.336,0,0,1,1.789,2.273,2.2,2.2,0,0,1-.992,1.871,4.28,4.28,0,0,1-2.562.715,4.47,4.47,0,0,1-1.887-.379,3.166,3.166,0,0,1-1.293-1.039,2.414,2.414,0,0,1-.469-1.426h2.141a1.179,1.179,0,0,0,.445.922,1.766,1.766,0,0,0,1.109.32,1.635,1.635,0,0,0,.98-.246A.766.766,0,0,0,90.211,32.664Zm7.734-2.289a11.99,11.99,0,0,1,.477-3.406,8.989,8.989,0,0,1,1.406-2.863,5.251,5.251,0,0,1,2.016-1.73l.438,1.219A5.438,5.438,0,0,0,100.5,26.2a12.082,12.082,0,0,0-.641,4.125v.242a12.313,12.313,0,0,0,.633,4.141,5.544,5.544,0,0,0,1.789,2.648l-.437,1.2a5.253,5.253,0,0,1-1.98-1.684,8.838,8.838,0,0,1-1.4-2.785,11.918,11.918,0,0,1-.516-3.3Zm8.008.617V35h-2.344V23.625h4.438a5.134,5.134,0,0,1,2.254.469,3.454,3.454,0,0,1,1.5,1.332,3.714,3.714,0,0,1,.523,1.965,3.266,3.266,0,0,1-1.145,2.637,4.767,4.767,0,0,1-3.168.965Zm0-1.9h2.094a2.059,2.059,0,0,0,1.418-.437,1.591,1.591,0,0,0,.488-1.25,1.876,1.876,0,0,0-.492-1.352,1.839,1.839,0,0,0-1.359-.531h-2.148ZM121.484,35h-7.8V33.453l3.68-3.922a9.078,9.078,0,0,0,1.121-1.445,2.322,2.322,0,0,0,.363-1.172,1.738,1.738,0,0,0-.383-1.191,1.382,1.382,0,0,0-1.094-.434,1.49,1.49,0,0,0-1.207.527,2.089,2.089,0,0,0-.441,1.387h-2.266a3.729,3.729,0,0,1,.5-1.9,3.5,3.5,0,0,1,1.4-1.348,4.262,4.262,0,0,1,2.055-.488,4.036,4.036,0,0,1,2.73.844,2.985,2.985,0,0,1,.973,2.383,3.825,3.825,0,0,1-.437,1.719,9.551,9.551,0,0,1-1.5,2.039l-2.586,2.727h4.891Zm3.969-4.008V35h-2.344V23.625h4.438a5.134,5.134,0,0,1,2.254.469,3.454,3.454,0,0,1,1.5,1.332,3.714,3.714,0,0,1,.523,1.965,3.266,3.266,0,0,1-1.145,2.637,4.767,4.767,0,0,1-3.168.965Zm0-1.9h2.094a2.059,2.059,0,0,0,1.418-.437,1.591,1.591,0,0,0,.488-1.25,1.876,1.876,0,0,0-.492-1.352,1.839,1.839,0,0,0-1.359-.531h-2.148Zm11.719,1.461a11.377,11.377,0,0,1-.508,3.4,9.225,9.225,0,0,1-1.461,2.883,5.264,5.264,0,0,1-2.039,1.719l-.437-1.2a5.494,5.494,0,0,0,1.75-2.578,11.939,11.939,0,0,0,.664-4.008v-.414a12.208,12.208,0,0,0-.637-4.117,5.727,5.727,0,0,0-1.777-2.672l.438-1.2a5.265,5.265,0,0,1,2,1.672,9.106,9.106,0,0,1,1.461,2.82,11.3,11.3,0,0,1,.543,3.336Z" transform="translate(413 1269)" fill="#12263f"/>
    <rect id="Rectángulo_392709-4" data-name="Rectángulo 392709" width="216" height="89" rx="10" transform="translate(692 909)" fill="#566368"/>
    <g id="Rectángulo_392710-4" data-name="Rectángulo 392710" transform="translate(699 916)" fill="none" stroke="#fff" stroke-width="2">
      <rect width="202" height="75" rx="10" stroke="none"/>
      <rect x="1" y="1" width="200" height="73" rx="9" fill="none"/>
    </g>
    <path id="Trazado_1242405" data-name="Trazado 1242405" d="M52.918,15H50.574L46.012,7.516V15H43.668V3.625h2.344l4.57,7.5v-7.5h2.336Zm6.8,0a2.507,2.507,0,0,1-.227-.758,2.732,2.732,0,0,1-2.133.914,3,3,0,0,1-2.059-.719,2.312,2.312,0,0,1-.816-1.812,2.389,2.389,0,0,1,1-2.062,4.915,4.915,0,0,1,2.879-.727h1.039V9.352a1.393,1.393,0,0,0-.3-.937,1.183,1.183,0,0,0-.949-.352,1.345,1.345,0,0,0-.895.273.929.929,0,0,0-.324.75H54.668a2.268,2.268,0,0,1,.453-1.359,3,3,0,0,1,1.281-.98,4.669,4.669,0,0,1,1.859-.355,3.689,3.689,0,0,1,2.48.785,2.747,2.747,0,0,1,.918,2.207v3.664A4.041,4.041,0,0,0,62,14.867V15Zm-1.867-1.57a1.945,1.945,0,0,0,.922-.223,1.462,1.462,0,0,0,.625-.6V11.156h-.844q-1.7,0-1.8,1.172l-.008.133a.9.9,0,0,0,.3.7A1.153,1.153,0,0,0,57.848,13.43Zm8.594-1.187,1.57-5.7h2.359L67.52,15H65.363L62.512,6.547h2.359Zm8.711,2.914a4.15,4.15,0,0,1-3.027-1.141,4.054,4.054,0,0,1-1.168-3.039v-.219a5.106,5.106,0,0,1,.492-2.277,3.612,3.612,0,0,1,1.395-1.547A3.914,3.914,0,0,1,74.9,6.391a3.508,3.508,0,0,1,2.73,1.094,4.444,4.444,0,0,1,1,3.1v.922H73.246a2.1,2.1,0,0,0,.66,1.328,2,2,0,0,0,1.395.5,2.437,2.437,0,0,0,2.039-.945l1.109,1.242a3.389,3.389,0,0,1-1.375,1.121A4.511,4.511,0,0,1,75.152,15.156Zm-.258-6.945a1.411,1.411,0,0,0-1.09.455,2.357,2.357,0,0,0-.535,1.3H76.41V9.788A1.681,1.681,0,0,0,76,8.623,1.456,1.456,0,0,0,74.895,8.211Zm4.688,2.5a4.954,4.954,0,0,1,.926-3.133A3,3,0,0,1,83,6.391a2.631,2.631,0,0,1,2.164.953l.094-.8h2.047v8.172a3.613,3.613,0,0,1-.5,1.93,3.236,3.236,0,0,1-1.418,1.25,4.985,4.985,0,0,1-2.141.43,4.635,4.635,0,0,1-1.812-.371A3.217,3.217,0,0,1,80.1,17l1-1.375a2.645,2.645,0,0,0,2.047.945,1.936,1.936,0,0,0,1.4-.48,1.8,1.8,0,0,0,.5-1.363v-.453a2.612,2.612,0,0,1-2.055.883,2.992,2.992,0,0,1-2.465-1.191,4.953,4.953,0,0,1-.941-3.16Zm2.258.168a3.085,3.085,0,0,0,.461,1.8,1.466,1.466,0,0,0,1.266.653,1.568,1.568,0,0,0,1.477-.775V9a1.564,1.564,0,0,0-1.461-.775,1.476,1.476,0,0,0-1.277.665A3.477,3.477,0,0,0,81.84,10.879ZM93.941,15a2.507,2.507,0,0,1-.227-.758,2.732,2.732,0,0,1-2.133.914,3,3,0,0,1-2.059-.719,2.312,2.312,0,0,1-.816-1.812,2.389,2.389,0,0,1,1-2.062,4.915,4.915,0,0,1,2.879-.727h1.039V9.352a1.393,1.393,0,0,0-.3-.937,1.183,1.183,0,0,0-.949-.352,1.345,1.345,0,0,0-.895.273.929.929,0,0,0-.324.75H88.895a2.268,2.268,0,0,1,.453-1.359,3,3,0,0,1,1.281-.98,4.669,4.669,0,0,1,1.859-.355,3.689,3.689,0,0,1,2.48.785,2.747,2.747,0,0,1,.918,2.207v3.664a4.041,4.041,0,0,0,.336,1.82V15Zm-1.867-1.57A1.945,1.945,0,0,0,93,13.207a1.462,1.462,0,0,0,.625-.6V11.156h-.844q-1.7,0-1.8,1.172l-.008.133a.9.9,0,0,0,.3.7A1.153,1.153,0,0,0,92.074,13.43Zm9.063-.094a1.481,1.481,0,0,0,1.016-.344,1.2,1.2,0,0,0,.406-.914h2.117a2.9,2.9,0,0,1-.469,1.574,3.093,3.093,0,0,1-1.262,1.109,3.949,3.949,0,0,1-1.77.395A3.67,3.67,0,0,1,98.316,14,4.56,4.56,0,0,1,97.27,10.82v-.148a4.508,4.508,0,0,1,1.039-3.117,3.627,3.627,0,0,1,2.852-1.164,3.555,3.555,0,0,1,2.543.9,3.2,3.2,0,0,1,.973,2.4h-2.117a1.551,1.551,0,0,0-.406-1.072,1.51,1.51,0,0,0-2.223.163,3.333,3.333,0,0,0-.4,1.866v.235a3.375,3.375,0,0,0,.4,1.878A1.377,1.377,0,0,0,101.137,13.336ZM108.348,15h-2.266V6.547h2.266Zm-2.4-10.641a1.112,1.112,0,0,1,.34-.836,1.465,1.465,0,0,1,1.848,0,1.105,1.105,0,0,1,.344.836,1.108,1.108,0,0,1-.348.844,1.448,1.448,0,0,1-1.836,0A1.108,1.108,0,0,1,105.949,4.359Zm3.906,6.336a5.013,5.013,0,0,1,.484-2.242,3.546,3.546,0,0,1,1.395-1.523,4.069,4.069,0,0,1,2.113-.539,3.849,3.849,0,0,1,2.793,1.047,4.2,4.2,0,0,1,1.207,2.844l.016.578a4.418,4.418,0,0,1-1.086,3.121,4.209,4.209,0,0,1-5.832,0,4.5,4.5,0,0,1-1.09-3.187Zm2.258.16a3.16,3.16,0,0,0,.453,1.843,1.628,1.628,0,0,0,2.578.008,3.457,3.457,0,0,0,.461-2.015,3.128,3.128,0,0,0-.461-1.831,1.5,1.5,0,0,0-1.3-.649,1.474,1.474,0,0,0-1.281.646A3.516,3.516,0,0,0,112.113,10.856ZM114.293,3h2.461L114.59,5.422h-1.836Zm7.039,3.547.07.977a2.951,2.951,0,0,1,2.43-1.133,2.453,2.453,0,0,1,2,.789,3.682,3.682,0,0,1,.672,2.359V15h-2.258V9.594a1.465,1.465,0,0,0-.312-1.043,1.4,1.4,0,0,0-1.039-.324,1.553,1.553,0,0,0-1.43.813V15h-2.258V6.547Zm-64.578,24.3a5.07,5.07,0,0,1-.887,3.129,2.843,2.843,0,0,1-2.395,1.176,2.633,2.633,0,0,1-2.07-.891V38.25H49.145v-11.7h2.094l.078.828a2.654,2.654,0,0,1,2.141-.984,2.862,2.862,0,0,1,2.43,1.156,5.207,5.207,0,0,1,.867,3.188ZM54.5,30.688a3.327,3.327,0,0,0-.418-1.82,1.361,1.361,0,0,0-1.215-.641,1.478,1.478,0,0,0-1.461.813V32.5a1.5,1.5,0,0,0,1.477.836Q54.5,33.336,54.5,30.688Zm3.3.008a5.013,5.013,0,0,1,.484-2.242A3.546,3.546,0,0,1,59.68,26.93a4.069,4.069,0,0,1,2.113-.539,3.849,3.849,0,0,1,2.793,1.047,4.2,4.2,0,0,1,1.207,2.844l.016.578a4.418,4.418,0,0,1-1.086,3.121,4.209,4.209,0,0,1-5.832,0A4.5,4.5,0,0,1,57.8,30.8Zm2.258.16a3.16,3.16,0,0,0,.453,1.843,1.628,1.628,0,0,0,2.578.008,3.457,3.457,0,0,0,.461-2.015,3.128,3.128,0,0,0-.461-1.831,1.5,1.5,0,0,0-1.3-.649,1.474,1.474,0,0,0-1.281.646A3.516,3.516,0,0,0,60.059,30.856Zm11.891-2.192a6.134,6.134,0,0,0-.812-.062,1.654,1.654,0,0,0-1.68.867V35H67.2V26.547h2.133l.063,1.008a2.092,2.092,0,0,1,1.883-1.164,2.366,2.366,0,0,1,.7.1ZM79.4,35H77.137V23H79.4Zm6.758,0a2.507,2.507,0,0,1-.227-.758,2.732,2.732,0,0,1-2.133.914,3,3,0,0,1-2.059-.719,2.312,2.312,0,0,1-.816-1.812,2.389,2.389,0,0,1,1-2.062,4.915,4.915,0,0,1,2.879-.727H85.84v-.484a1.393,1.393,0,0,0-.3-.937,1.183,1.183,0,0,0-.949-.352,1.345,1.345,0,0,0-.895.273.929.929,0,0,0-.324.75H81.113a2.268,2.268,0,0,1,.453-1.359,3,3,0,0,1,1.281-.98,4.669,4.669,0,0,1,1.859-.355,3.689,3.689,0,0,1,2.48.785,2.747,2.747,0,0,1,.918,2.207v3.664a4.041,4.041,0,0,0,.336,1.82V35Zm-1.867-1.57a1.945,1.945,0,0,0,.922-.223,1.462,1.462,0,0,0,.625-.6V31.156H85q-1.7,0-1.8,1.172l-.008.133a.9.9,0,0,0,.3.7A1.153,1.153,0,0,0,84.293,33.43Zm16.32-1.508,2.008-5.375h2.2L101.262,35H99.418l-.625-5.289L96.324,35H94.48l-.625-8.453h2.063l.133,5.32,2.414-5.32h1.594Zm7.867,3.234a3.677,3.677,0,0,1-1.965-.543,3.292,3.292,0,0,1-1.277-1.469,4.093,4.093,0,0,1-.328-2.059l.023-.312a5.465,5.465,0,0,1,.719-2.266,4.341,4.341,0,0,1,1.547-1.59,3.827,3.827,0,0,1,2.094-.527,2.924,2.924,0,0,1,2.473,1.2,4.117,4.117,0,0,1,.637,2.962l-.125.962H107.1a1.814,1.814,0,0,0,.4,1.313,1.521,1.521,0,0,0,1.172.508,2.7,2.7,0,0,0,2.109-.937l1.008,1.25a3.135,3.135,0,0,1-1.375,1.121A4.5,4.5,0,0,1,108.48,35.156Zm.7-6.945a1.565,1.565,0,0,0-1.082.383,3.363,3.363,0,0,0-.848,1.383h3.031l.047-.2a2.071,2.071,0,0,0,.008-.594,1.134,1.134,0,0,0-.383-.707A1.2,1.2,0,0,0,109.184,28.211ZM121.059,30.8A6.061,6.061,0,0,1,119.84,34a3.033,3.033,0,0,1-2.547,1.164,2.357,2.357,0,0,1-2.031-1.078l-.32.914h-2.008l2.078-12h2.211l-.852,4.32a2.634,2.634,0,0,1,2.063-.93,2.385,2.385,0,0,1,1.926.879,3.89,3.89,0,0,1,.746,2.387A9.133,9.133,0,0,1,121.059,30.8Zm-2.187-.165a6.554,6.554,0,0,0,.047-1.034q-.086-1.364-1.125-1.387a1.833,1.833,0,0,0-1.617.885l-.609,3.37a1.258,1.258,0,0,0,1.266.878q1.625.047,1.992-2.367Z" transform="translate(715 934)" fill="#fff"/>
    <rect id="Rectángulo_392709-5" data-name="Rectángulo 392709" width="216" height="89" rx="10" transform="translate(692 1077)" fill="#7fe5cf"/>
    <g id="Rectángulo_392710-5" data-name="Rectángulo 392710" transform="translate(699 1084)" fill="none" stroke="#fff" stroke-width="2">
      <rect width="202" height="75" rx="10" stroke="none"/>
      <rect x="1" y="1" width="200" height="73" rx="9" fill="none"/>
    </g>
    <path id="Trazado_1242408" data-name="Trazado 1242408" d="M22.551,13.961q.164-.93-.914-1.422l-1.508-.6Q17.5,10.766,17.637,8.711a2.964,2.964,0,0,1,.625-1.687,3.758,3.758,0,0,1,1.6-1.152,5.67,5.67,0,0,1,2.227-.4,3.857,3.857,0,0,1,2.664.98,3.267,3.267,0,0,1,1,2.543H23.473a1.628,1.628,0,0,0-.34-1.2,1.531,1.531,0,0,0-1.176-.445A2.37,2.37,0,0,0,20.6,7.7a1.458,1.458,0,0,0-.687,1.02q-.148.852,1.141,1.352l1.031.391.594.273q2.3,1.141,2.156,3.2a3.09,3.09,0,0,1-.645,1.738A3.633,3.633,0,0,1,22.625,16.8a5.565,5.565,0,0,1-2.176.367,4.873,4.873,0,0,1-2.156-.508,3.349,3.349,0,0,1-1.437-1.367,3.54,3.54,0,0,1-.43-1.875l2.289.008q-.109,1.852,1.82,1.883a2.392,2.392,0,0,0,1.375-.367A1.43,1.43,0,0,0,22.551,13.961Zm7.688-7.492-.367,2.078h1.406L30.988,10.2H29.582l-.719,4.234a1.077,1.077,0,0,0,.063.609q.109.211.531.227.125.008.672-.039l-.156,1.727a3.706,3.706,0,0,1-1.266.18,1.985,1.985,0,0,1-1.617-.68,2.456,2.456,0,0,1-.437-1.8l.727-4.461h-1.2l.289-1.656h1.2l.359-2.078Zm6.641,4.2a4.548,4.548,0,0,0-.742-.078,2.136,2.136,0,0,0-1.867.883L33.293,17h-2.2l1.469-8.453,2.07-.008-.2,1.031a2.325,2.325,0,0,1,1.969-1.2,3.214,3.214,0,0,1,.766.109Zm3.969,6.492a3.677,3.677,0,0,1-1.965-.543,3.292,3.292,0,0,1-1.277-1.469,4.093,4.093,0,0,1-.328-2.059l.023-.312a5.465,5.465,0,0,1,.719-2.266,4.341,4.341,0,0,1,1.547-1.59,3.827,3.827,0,0,1,2.094-.527,2.924,2.924,0,0,1,2.473,1.2,4.117,4.117,0,0,1,.637,2.962l-.125.962h-5.18a1.814,1.814,0,0,0,.4,1.313,1.521,1.521,0,0,0,1.172.508,2.7,2.7,0,0,0,2.109-.937l1.008,1.25a3.135,3.135,0,0,1-1.375,1.121A4.5,4.5,0,0,1,40.848,17.156Zm.7-6.945a1.565,1.565,0,0,0-1.082.383,3.363,3.363,0,0,0-.848,1.383h3.031l.047-.2a2.071,2.071,0,0,0,.008-.594,1.134,1.134,0,0,0-.383-.707A1.2,1.2,0,0,0,41.551,10.211ZM50.191,17a2.281,2.281,0,0,1-.086-.766,2.863,2.863,0,0,1-2.156.922,2.594,2.594,0,0,1-1.84-.723,2.186,2.186,0,0,1-.684-1.746,2.527,2.527,0,0,1,1.16-2.121,5.266,5.266,0,0,1,2.965-.738l1.031.016.109-.508a1.764,1.764,0,0,0,.023-.492.846.846,0,0,0-.277-.574.955.955,0,0,0-.629-.215,1.345,1.345,0,0,0-.875.254,1.231,1.231,0,0,0-.461.777l-2.211.008a2.457,2.457,0,0,1,1.113-1.965,4.312,4.312,0,0,1,2.613-.738,3.117,3.117,0,0,1,2.25.855,2.5,2.5,0,0,1,.68,2.121l-.648,4.047-.039.5a2.412,2.412,0,0,0,.133.938L52.355,17Zm-1.7-1.555a2.017,2.017,0,0,0,1.664-.828l.273-1.461-.766-.008a2.139,2.139,0,0,0-1.758.742,1.292,1.292,0,0,0-.242.633.75.75,0,0,0,.176.668A.891.891,0,0,0,48.5,15.445Zm8.719-6.906-.18.961a3.112,3.112,0,0,1,2.477-1.109,2.379,2.379,0,0,1,1.3.359,1.679,1.679,0,0,1,.7.93,3.255,3.255,0,0,1,2.625-1.289,2.126,2.126,0,0,1,1.754.8,3.271,3.271,0,0,1,.5,2.234l-.016.2L65.465,17H63.254l.9-5.4a3.907,3.907,0,0,0,.023-.54.837.837,0,0,0-.937-.845,1.86,1.86,0,0,0-1.555.97l-.023.18L60.676,17h-2.2l.9-5.383a3.9,3.9,0,0,0,.023-.539.836.836,0,0,0-.93-.852,1.867,1.867,0,0,0-1.508.789L55.9,17H53.7L55.16,8.547ZM69.543,17H67.324l1.469-8.453h2.219ZM69.051,6.4a1.1,1.1,0,0,1,.344-.867,1.323,1.323,0,0,1,1.734-.039,1.1,1.1,0,0,1,.383.828,1.132,1.132,0,0,1-.324.844,1.215,1.215,0,0,1-.887.375,1.235,1.235,0,0,1-.863-.3A1.091,1.091,0,0,1,69.051,6.4Zm5.844,2.141-.187,1a3.042,3.042,0,0,1,2.461-1.148,2.028,2.028,0,0,1,1.766.875,3.526,3.526,0,0,1,.414,2.359L78.457,17h-2.2l.906-5.4a2.528,2.528,0,0,0,.016-.555.9.9,0,0,0-1-.82,1.9,1.9,0,0,0-1.555.8L73.566,17h-2.2l1.469-8.453Zm5.711,4.227a5.849,5.849,0,0,1,1.277-3.184,3.242,3.242,0,0,1,2.629-1.2,2.37,2.37,0,0,1,2.016.977l.289-.82,2.023.008-1.383,8.164a3.983,3.983,0,0,1-1.437,2.672,4.471,4.471,0,0,1-3,.953,4.168,4.168,0,0,1-1.672-.379,3.575,3.575,0,0,1-1.312-1l1.094-1.344a2.349,2.349,0,0,0,1.844.961,2.166,2.166,0,0,0,1.469-.449,2.4,2.4,0,0,0,.828-1.355l.125-.508a2.749,2.749,0,0,1-2.07.891,2.428,2.428,0,0,1-1.961-.918,3.947,3.947,0,0,1-.8-2.348A7.89,7.89,0,0,1,80.605,12.766Zm2.164.927a2.02,2.02,0,0,0,.309,1.178,1.08,1.08,0,0,0,.895.466,1.972,1.972,0,0,0,1.594-.767l.656-3.583a1.3,1.3,0,0,0-1.242-.767,1.728,1.728,0,0,0-1.43.681,3.561,3.561,0,0,0-.734,1.87A8.213,8.213,0,0,0,82.77,13.693Zm10.789-.982a5.094,5.094,0,0,1,.887-3.148,2.877,2.877,0,0,1,2.426-1.172,2.589,2.589,0,0,1,2.039.922V5h2.266V17H99.137l-.109-.9a2.657,2.657,0,0,1-2.172,1.055,2.869,2.869,0,0,1-2.395-1.176A5.258,5.258,0,0,1,93.559,12.711Zm2.258.168A3.337,3.337,0,0,0,96.23,14.7a1.349,1.349,0,0,0,1.2.634,1.511,1.511,0,0,0,1.477-.884V11.111a1.489,1.489,0,0,0-1.461-.884Q95.816,10.227,95.816,12.879Zm11,4.277a4.15,4.15,0,0,1-3.027-1.141,4.054,4.054,0,0,1-1.168-3.039v-.219a5.106,5.106,0,0,1,.492-2.277,3.612,3.612,0,0,1,1.395-1.547,3.914,3.914,0,0,1,2.059-.543,3.508,3.508,0,0,1,2.73,1.094,4.444,4.444,0,0,1,1,3.1v.922H104.91a2.1,2.1,0,0,0,.66,1.328,2,2,0,0,0,1.395.5A2.437,2.437,0,0,0,109,14.391l1.109,1.242a3.389,3.389,0,0,1-1.375,1.121A4.511,4.511,0,0,1,106.816,17.156Zm-.258-6.945a1.411,1.411,0,0,0-1.09.455,2.357,2.357,0,0,0-.535,1.3h3.141v-.181a1.681,1.681,0,0,0-.406-1.165A1.456,1.456,0,0,0,106.559,10.211Zm12.164,4.031,1.57-5.7h2.359L119.8,17h-2.156l-2.852-8.453h2.359ZM126.082,17h-2.258V8.547h2.258Zm-.664-11.883h2.461l-2.164,2.422h-1.836Zm2.258,7.594a5.094,5.094,0,0,1,.887-3.148,2.877,2.877,0,0,1,2.426-1.172,2.589,2.589,0,0,1,2.039.922V5h2.266V17h-2.039l-.109-.9a2.657,2.657,0,0,1-2.172,1.055,2.869,2.869,0,0,1-2.395-1.176A5.258,5.258,0,0,1,127.676,12.711Zm2.258.168a3.337,3.337,0,0,0,.414,1.823,1.349,1.349,0,0,0,1.2.634,1.511,1.511,0,0,0,1.477-.884V11.111a1.489,1.489,0,0,0-1.461-.884Q129.934,10.227,129.934,12.879Zm11,4.277a4.15,4.15,0,0,1-3.027-1.141,4.054,4.054,0,0,1-1.168-3.039v-.219a5.106,5.106,0,0,1,.492-2.277,3.612,3.612,0,0,1,1.395-1.547,3.914,3.914,0,0,1,2.059-.543,3.508,3.508,0,0,1,2.73,1.094,4.444,4.444,0,0,1,1,3.1v.922h-5.383a2.1,2.1,0,0,0,.66,1.328,2,2,0,0,0,1.395.5,2.437,2.437,0,0,0,2.039-.945l1.109,1.242a3.389,3.389,0,0,1-1.375,1.121A4.511,4.511,0,0,1,140.934,17.156Zm-.258-6.945a1.411,1.411,0,0,0-1.09.455,2.357,2.357,0,0,0-.535,1.3h3.141v-.181a1.681,1.681,0,0,0-.406-1.165A1.456,1.456,0,0,0,140.676,10.211ZM145.34,12.7a5.013,5.013,0,0,1,.484-2.242,3.546,3.546,0,0,1,1.395-1.523,4.069,4.069,0,0,1,2.113-.539,3.849,3.849,0,0,1,2.793,1.047,4.2,4.2,0,0,1,1.207,2.844l.016.578a4.418,4.418,0,0,1-1.086,3.121,4.209,4.209,0,0,1-5.832,0,4.5,4.5,0,0,1-1.09-3.187Zm2.258.16a3.16,3.16,0,0,0,.453,1.843,1.628,1.628,0,0,0,2.578.008,3.457,3.457,0,0,0,.461-2.015,3.128,3.128,0,0,0-.461-1.831,1.5,1.5,0,0,0-1.3-.649,1.474,1.474,0,0,0-1.281.646A3.516,3.516,0,0,0,147.6,12.856Z" transform="translate(715 1111)" fill="#12263f"/>
    <rect id="Rectángulo_392709-6" data-name="Rectángulo 392709" width="216" height="89" rx="10" transform="translate(692 1244)" fill="#566368"/>
    <g id="Rectángulo_392710-6" data-name="Rectángulo 392710" transform="translate(699 1251)" fill="none" stroke="#fff" stroke-width="2">
      <rect width="202" height="75" rx="10" stroke="none"/>
      <rect x="1" y="1" width="200" height="73" rx="9" fill="none"/>
    </g>
    <path id="Trazado_1242411" data-name="Trazado 1242411" d="M43.918,5.523H40.434V15H38.09V5.523H34.652v-1.9h9.266ZM48.3,15.156a4.15,4.15,0,0,1-3.027-1.141,4.054,4.054,0,0,1-1.168-3.039v-.219A5.106,5.106,0,0,1,44.6,8.48a3.612,3.612,0,0,1,1.395-1.547,3.914,3.914,0,0,1,2.059-.543,3.508,3.508,0,0,1,2.73,1.094,4.444,4.444,0,0,1,1,3.1v.922H46.395a2.1,2.1,0,0,0,.66,1.328,2,2,0,0,0,1.395.5,2.437,2.437,0,0,0,2.039-.945L51.6,13.633a3.389,3.389,0,0,1-1.375,1.121A4.511,4.511,0,0,1,48.3,15.156Zm-.258-6.945a1.411,1.411,0,0,0-1.09.455,2.357,2.357,0,0,0-.535,1.3h3.141V9.788a1.681,1.681,0,0,0-.406-1.165A1.456,1.456,0,0,0,48.043,8.211ZM55.441,15H53.176V3h2.266Zm5.75.156a4.15,4.15,0,0,1-3.027-1.141A4.054,4.054,0,0,1,57,10.977v-.219a5.106,5.106,0,0,1,.492-2.277,3.612,3.612,0,0,1,1.395-1.547,3.914,3.914,0,0,1,2.059-.543,3.508,3.508,0,0,1,2.73,1.094,4.444,4.444,0,0,1,1,3.1v.922H59.285a2.1,2.1,0,0,0,.66,1.328,2,2,0,0,0,1.395.5,2.437,2.437,0,0,0,2.039-.945l1.109,1.242a3.389,3.389,0,0,1-1.375,1.121A4.511,4.511,0,0,1,61.191,15.156Zm-.258-6.945a1.411,1.411,0,0,0-1.09.455,2.357,2.357,0,0,0-.535,1.3h3.141V9.788a1.681,1.681,0,0,0-.406-1.165A1.456,1.456,0,0,0,60.934,8.211Zm8.078,4.031,1.57-5.7h2.359L70.09,15H67.934L65.082,6.547h2.359ZM76.316,15H74.051V6.547h2.266Zm-2.4-10.641a1.112,1.112,0,0,1,.34-.836,1.465,1.465,0,0,1,1.848,0,1.105,1.105,0,0,1,.344.836A1.108,1.108,0,0,1,76.1,5.2a1.448,1.448,0,0,1-1.836,0A1.108,1.108,0,0,1,73.918,4.359Zm8.836,8.3a.727.727,0,0,0-.41-.652,4.659,4.659,0,0,0-1.316-.426q-3.016-.633-3.016-2.562a2.323,2.323,0,0,1,.934-1.879,3.766,3.766,0,0,1,2.441-.754,4.053,4.053,0,0,1,2.574.758,2.388,2.388,0,0,1,.965,1.969H82.668a1.092,1.092,0,0,0-.312-.8A1.322,1.322,0,0,0,81.379,8a1.351,1.351,0,0,0-.883.258.814.814,0,0,0-.312.656.7.7,0,0,0,.355.605,3.657,3.657,0,0,0,1.2.4,9.8,9.8,0,0,1,1.422.379,2.336,2.336,0,0,1,1.789,2.273,2.2,2.2,0,0,1-.992,1.871,4.28,4.28,0,0,1-2.562.715,4.47,4.47,0,0,1-1.887-.379,3.166,3.166,0,0,1-1.293-1.039,2.414,2.414,0,0,1-.469-1.426h2.141a1.179,1.179,0,0,0,.445.922,1.766,1.766,0,0,0,1.109.32,1.635,1.635,0,0,0,.98-.246A.766.766,0,0,0,82.754,12.664ZM88.785,15H86.52V6.547h2.266Zm-2.4-10.641a1.112,1.112,0,0,1,.34-.836,1.465,1.465,0,0,1,1.848,0,1.105,1.105,0,0,1,.344.836,1.108,1.108,0,0,1-.348.844,1.448,1.448,0,0,1-1.836,0A1.108,1.108,0,0,1,86.387,4.359ZM90.293,10.7a5.013,5.013,0,0,1,.484-2.242A3.546,3.546,0,0,1,92.172,6.93a4.069,4.069,0,0,1,2.113-.539,3.849,3.849,0,0,1,2.793,1.047,4.2,4.2,0,0,1,1.207,2.844l.016.578a4.418,4.418,0,0,1-1.086,3.121,4.209,4.209,0,0,1-5.832,0,4.5,4.5,0,0,1-1.09-3.187Zm2.258.16A3.16,3.16,0,0,0,93,12.7a1.628,1.628,0,0,0,2.578.008,3.457,3.457,0,0,0,.461-2.015,3.128,3.128,0,0,0-.461-1.831,1.5,1.5,0,0,0-1.3-.649A1.474,1.474,0,0,0,93,8.856,3.516,3.516,0,0,0,92.551,10.856ZM94.73,3h2.461L95.027,5.422H93.191Zm7.039,3.547.07.977a2.951,2.951,0,0,1,2.43-1.133,2.453,2.453,0,0,1,2,.789,3.682,3.682,0,0,1,.672,2.359V15h-2.258V9.594a1.465,1.465,0,0,0-.312-1.043,1.4,1.4,0,0,0-1.039-.324,1.553,1.553,0,0,0-1.43.813V15H99.645V6.547Zm18.477,4.3a5.07,5.07,0,0,1-.887,3.129,2.843,2.843,0,0,1-2.395,1.176,2.633,2.633,0,0,1-2.07-.891V18.25h-2.258V6.547h2.094l.078.828a2.654,2.654,0,0,1,2.141-.984,2.862,2.862,0,0,1,2.43,1.156,5.207,5.207,0,0,1,.867,3.188Zm-2.258-.164a3.327,3.327,0,0,0-.418-1.82,1.361,1.361,0,0,0-1.215-.641,1.478,1.478,0,0,0-1.461.813V12.5a1.5,1.5,0,0,0,1.477.836Q117.988,13.336,117.988,10.688Zm3.3.008a5.013,5.013,0,0,1,.484-2.242,3.546,3.546,0,0,1,1.395-1.523,4.069,4.069,0,0,1,2.113-.539,3.849,3.849,0,0,1,2.793,1.047,4.2,4.2,0,0,1,1.207,2.844l.016.578a4.418,4.418,0,0,1-1.086,3.121,4.209,4.209,0,0,1-5.832,0,4.5,4.5,0,0,1-1.09-3.187Zm2.258.16A3.16,3.16,0,0,0,124,12.7a1.628,1.628,0,0,0,2.578.008,3.457,3.457,0,0,0,.461-2.015,3.128,3.128,0,0,0-.461-1.831,1.5,1.5,0,0,0-1.3-.649A1.474,1.474,0,0,0,124,8.856,3.516,3.516,0,0,0,123.551,10.856Zm11.891-2.192a6.134,6.134,0,0,0-.812-.062,1.654,1.654,0,0,0-1.68.867V15h-2.258V6.547h2.133l.063,1.008a2.092,2.092,0,0,1,1.883-1.164,2.366,2.366,0,0,1,.7.1ZM60.2,35H57.93V26.547H60.2ZM57.8,24.359a1.112,1.112,0,0,1,.34-.836,1.465,1.465,0,0,1,1.848,0,1.193,1.193,0,0,1,0,1.68,1.448,1.448,0,0,1-1.836,0A1.108,1.108,0,0,1,57.8,24.359Zm6.336,2.188.07.977a2.951,2.951,0,0,1,2.43-1.133,2.453,2.453,0,0,1,2,.789,3.682,3.682,0,0,1,.672,2.359V35H67.047V29.594a1.465,1.465,0,0,0-.312-1.043,1.4,1.4,0,0,0-1.039-.324,1.553,1.553,0,0,0-1.43.813V35H62.008V26.547Zm9.586-2.078v2.078h1.445V28.2H73.719v4.219a1.007,1.007,0,0,0,.18.672.9.9,0,0,0,.688.2,3.6,3.6,0,0,0,.664-.055v1.711a4.648,4.648,0,0,1-1.367.2,2.156,2.156,0,0,1-2.422-2.4V28.2H70.227V26.547h1.234V24.469Zm6.594,10.688a4.15,4.15,0,0,1-3.027-1.141,4.054,4.054,0,0,1-1.168-3.039v-.219a5.106,5.106,0,0,1,.492-2.277A3.612,3.612,0,0,1,78,26.934a3.914,3.914,0,0,1,2.059-.543,3.508,3.508,0,0,1,2.73,1.094,4.444,4.444,0,0,1,1,3.1v.922H78.406a2.1,2.1,0,0,0,.66,1.328,2,2,0,0,0,1.395.5,2.437,2.437,0,0,0,2.039-.945l1.109,1.242a3.389,3.389,0,0,1-1.375,1.121A4.511,4.511,0,0,1,80.313,35.156Zm-.258-6.945a1.411,1.411,0,0,0-1.09.455,2.357,2.357,0,0,0-.535,1.3H81.57v-.181a1.681,1.681,0,0,0-.406-1.165A1.456,1.456,0,0,0,80.055,28.211Zm9.766.453a6.134,6.134,0,0,0-.812-.062,1.654,1.654,0,0,0-1.68.867V35H85.07V26.547H87.2l.063,1.008a2.092,2.092,0,0,1,1.883-1.164,2.366,2.366,0,0,1,.7.1Zm3.164-2.117.07.977a2.951,2.951,0,0,1,2.43-1.133,2.453,2.453,0,0,1,2,.789,3.682,3.682,0,0,1,.672,2.359V35H95.9V29.594a1.465,1.465,0,0,0-.312-1.043,1.4,1.4,0,0,0-1.039-.324,1.553,1.553,0,0,0-1.43.813V35H90.859V26.547Zm10.773,8.609a4.15,4.15,0,0,1-3.027-1.141,4.054,4.054,0,0,1-1.168-3.039v-.219a5.106,5.106,0,0,1,.492-2.277,3.612,3.612,0,0,1,1.395-1.547,3.914,3.914,0,0,1,2.059-.543,3.508,3.508,0,0,1,2.73,1.094,4.444,4.444,0,0,1,1,3.1v.922h-5.383a2.1,2.1,0,0,0,.66,1.328,2,2,0,0,0,1.395.5,2.437,2.437,0,0,0,2.039-.945l1.109,1.242a3.389,3.389,0,0,1-1.375,1.121A4.511,4.511,0,0,1,103.758,35.156Zm-.258-6.945a1.411,1.411,0,0,0-1.09.455,2.357,2.357,0,0,0-.535,1.3h3.141v-.181a1.681,1.681,0,0,0-.406-1.165A1.456,1.456,0,0,0,103.5,28.211Zm7.719-3.742v2.078h1.445V28.2h-1.445v4.219a1.007,1.007,0,0,0,.18.672.9.9,0,0,0,.688.2,3.6,3.6,0,0,0,.664-.055v1.711a4.648,4.648,0,0,1-1.367.2,2.156,2.156,0,0,1-2.422-2.4V28.2h-1.234V26.547h1.234V24.469Z" transform="translate(715 1269)" fill="#fff"/>
    <rect id="Rectángulo_392709-7" data-name="Rectángulo 392709" width="216" height="89" rx="10" transform="translate(994 909)" fill="#7fe5cf"/>
    <g id="Rectángulo_392710-7" data-name="Rectángulo 392710" transform="translate(1001 916)" fill="none" stroke="#fff" stroke-width="2">
      <rect width="202" height="75" rx="10" stroke="none"/>
      <rect x="1" y="1" width="200" height="73" rx="9" fill="none"/>
    </g>
    <path id="Trazado_1242406" data-name="Trazado 1242406" d="M49.063,3.625l2.922,8.25,2.906-8.25h3.078V15H55.617V11.891l.234-5.367L52.781,15H51.172L48.109,6.531l.234,5.359V15H46V3.625Zm14.7,11.531a4.15,4.15,0,0,1-3.027-1.141,4.054,4.054,0,0,1-1.168-3.039v-.219a5.106,5.106,0,0,1,.492-2.277,3.612,3.612,0,0,1,1.395-1.547,3.914,3.914,0,0,1,2.059-.543,3.508,3.508,0,0,1,2.73,1.094,4.444,4.444,0,0,1,1,3.1v.922H61.852a2.1,2.1,0,0,0,.66,1.328,2,2,0,0,0,1.395.5,2.437,2.437,0,0,0,2.039-.945l1.109,1.242a3.389,3.389,0,0,1-1.375,1.121A4.511,4.511,0,0,1,63.758,15.156ZM63.5,8.211a1.411,1.411,0,0,0-1.09.455,2.357,2.357,0,0,0-.535,1.3h3.141V9.788a1.681,1.681,0,0,0-.406-1.165A1.456,1.456,0,0,0,63.5,8.211Zm7.094-1.664.07.977a2.951,2.951,0,0,1,2.43-1.133,2.453,2.453,0,0,1,2,.789,3.682,3.682,0,0,1,.672,2.359V15H73.508V9.594A1.465,1.465,0,0,0,73.2,8.551a1.4,1.4,0,0,0-1.039-.324,1.553,1.553,0,0,0-1.43.813V15H68.469V6.547Zm11.461,6.117a.727.727,0,0,0-.41-.652,4.659,4.659,0,0,0-1.316-.426q-3.016-.633-3.016-2.562a2.323,2.323,0,0,1,.934-1.879,3.766,3.766,0,0,1,2.441-.754,4.053,4.053,0,0,1,2.574.758,2.388,2.388,0,0,1,.965,1.969H81.969a1.092,1.092,0,0,0-.312-.8A1.322,1.322,0,0,0,80.68,8a1.351,1.351,0,0,0-.883.258.814.814,0,0,0-.312.656.7.7,0,0,0,.355.605,3.657,3.657,0,0,0,1.2.4,9.8,9.8,0,0,1,1.422.379A2.336,2.336,0,0,1,84.25,12.57a2.2,2.2,0,0,1-.992,1.871,4.28,4.28,0,0,1-2.562.715,4.47,4.47,0,0,1-1.887-.379,3.166,3.166,0,0,1-1.293-1.039,2.414,2.414,0,0,1-.469-1.426h2.141a1.179,1.179,0,0,0,.445.922,1.766,1.766,0,0,0,1.109.32,1.635,1.635,0,0,0,.98-.246A.766.766,0,0,0,82.055,12.664ZM90.6,15a2.507,2.507,0,0,1-.227-.758,2.732,2.732,0,0,1-2.133.914,3,3,0,0,1-2.059-.719,2.312,2.312,0,0,1-.816-1.812,2.389,2.389,0,0,1,1-2.062,4.915,4.915,0,0,1,2.879-.727h1.039V9.352a1.393,1.393,0,0,0-.3-.937,1.183,1.183,0,0,0-.949-.352,1.345,1.345,0,0,0-.895.273.929.929,0,0,0-.324.75H85.555a2.268,2.268,0,0,1,.453-1.359,3,3,0,0,1,1.281-.98,4.669,4.669,0,0,1,1.859-.355,3.689,3.689,0,0,1,2.48.785,2.747,2.747,0,0,1,.918,2.207v3.664a4.041,4.041,0,0,0,.336,1.82V15Zm-1.867-1.57a1.945,1.945,0,0,0,.922-.223,1.462,1.462,0,0,0,.625-.6V11.156h-.844q-1.7,0-1.8,1.172l-.008.133a.9.9,0,0,0,.3.7A1.153,1.153,0,0,0,88.734,13.43Zm7.938-6.883v8.914a3.024,3.024,0,0,1-.742,2.176,2.821,2.821,0,0,1-2.141.777,4.591,4.591,0,0,1-1.117-.133V16.492a4.238,4.238,0,0,0,.711.07q1.023,0,1.023-1.086V6.547ZM94.227,4.359a1.112,1.112,0,0,1,.34-.836,1.47,1.47,0,0,1,1.852,0,1.112,1.112,0,0,1,.34.836,1.108,1.108,0,0,1-.348.844,1.448,1.448,0,0,1-1.836,0A1.108,1.108,0,0,1,94.227,4.359Zm8.1,10.8A4.15,4.15,0,0,1,99.3,14.016a4.054,4.054,0,0,1-1.168-3.039v-.219a5.106,5.106,0,0,1,.492-2.277,3.612,3.612,0,0,1,1.395-1.547,3.914,3.914,0,0,1,2.059-.543,3.508,3.508,0,0,1,2.73,1.094,4.444,4.444,0,0,1,1,3.1v.922h-5.383a2.1,2.1,0,0,0,.66,1.328,2,2,0,0,0,1.395.5,2.437,2.437,0,0,0,2.039-.945l1.109,1.242a3.389,3.389,0,0,1-1.375,1.121A4.511,4.511,0,0,1,102.328,15.156Zm-.258-6.945a1.411,1.411,0,0,0-1.09.455,2.357,2.357,0,0,0-.535,1.3h3.141V9.788a1.681,1.681,0,0,0-.406-1.165A1.456,1.456,0,0,0,102.07,8.211Zm9.766.453a6.134,6.134,0,0,0-.812-.062,1.654,1.654,0,0,0-1.68.867V15h-2.258V6.547h2.133l.063,1.008a2.092,2.092,0,0,1,1.883-1.164,2.366,2.366,0,0,1,.7.1ZM115.359,15H113.1V6.547h2.258ZM114.7,3.117h2.461l-2.164,2.422h-1.836ZM122.2,15a2.507,2.507,0,0,1-.227-.758,2.732,2.732,0,0,1-2.133.914,3,3,0,0,1-2.059-.719,2.312,2.312,0,0,1-.816-1.812,2.389,2.389,0,0,1,1-2.062,4.915,4.915,0,0,1,2.879-.727h1.039V9.352a1.393,1.393,0,0,0-.3-.937,1.183,1.183,0,0,0-.949-.352,1.345,1.345,0,0,0-.895.273.929.929,0,0,0-.324.75h-2.258a2.268,2.268,0,0,1,.453-1.359,3,3,0,0,1,1.281-.98,4.669,4.669,0,0,1,1.859-.355,3.689,3.689,0,0,1,2.48.785,2.747,2.747,0,0,1,.918,2.207v3.664a4.041,4.041,0,0,0,.336,1.82V15Zm-1.867-1.57a1.945,1.945,0,0,0,.922-.223,1.462,1.462,0,0,0,.625-.6V11.156h-.844q-1.7,0-1.8,1.172l-.008.133a.9.9,0,0,0,.3.7A1.153,1.153,0,0,0,120.336,13.43ZM45.977,35H43.711V26.547h2.266Zm-2.4-10.641a1.112,1.112,0,0,1,.34-.836,1.465,1.465,0,0,1,1.848,0,1.193,1.193,0,0,1,0,1.68,1.448,1.448,0,0,1-1.836,0A1.108,1.108,0,0,1,43.578,24.359Zm6.336,2.188.07.977a2.951,2.951,0,0,1,2.43-1.133,2.453,2.453,0,0,1,2,.789,3.682,3.682,0,0,1,.672,2.359V35H52.828V29.594a1.465,1.465,0,0,0-.312-1.043,1.4,1.4,0,0,0-1.039-.324,1.553,1.553,0,0,0-1.43.813V35H47.789V26.547Zm11.461,6.117a.727.727,0,0,0-.41-.652,4.659,4.659,0,0,0-1.316-.426q-3.016-.633-3.016-2.562a2.323,2.323,0,0,1,.934-1.879,3.766,3.766,0,0,1,2.441-.754,4.053,4.053,0,0,1,2.574.758,2.388,2.388,0,0,1,.965,1.969H61.289a1.092,1.092,0,0,0-.312-.8A1.322,1.322,0,0,0,60,28a1.351,1.351,0,0,0-.883.258.814.814,0,0,0-.312.656.7.7,0,0,0,.355.605,3.657,3.657,0,0,0,1.2.4,9.8,9.8,0,0,1,1.422.379A2.336,2.336,0,0,1,63.57,32.57a2.205,2.205,0,0,1-.992,1.871,4.28,4.28,0,0,1-2.562.715,4.47,4.47,0,0,1-1.887-.379,3.166,3.166,0,0,1-1.293-1.039,2.414,2.414,0,0,1-.469-1.426h2.141a1.179,1.179,0,0,0,.445.922,1.766,1.766,0,0,0,1.109.32,1.635,1.635,0,0,0,.98-.246A.766.766,0,0,0,61.375,32.664Zm6.352-8.2v2.078h1.445V28.2H67.727v4.219a1.007,1.007,0,0,0,.18.672.9.9,0,0,0,.688.2,3.6,3.6,0,0,0,.664-.055v1.711a4.648,4.648,0,0,1-1.367.2,2.156,2.156,0,0,1-2.422-2.4V28.2H64.234V26.547h1.234V24.469ZM75.328,35a2.507,2.507,0,0,1-.227-.758,2.732,2.732,0,0,1-2.133.914,3,3,0,0,1-2.059-.719,2.312,2.312,0,0,1-.816-1.812,2.389,2.389,0,0,1,1-2.062,4.915,4.915,0,0,1,2.879-.727h1.039v-.484a1.393,1.393,0,0,0-.3-.937,1.183,1.183,0,0,0-.949-.352,1.345,1.345,0,0,0-.895.273.929.929,0,0,0-.324.75H70.281a2.268,2.268,0,0,1,.453-1.359,3,3,0,0,1,1.281-.98,4.669,4.669,0,0,1,1.859-.355,3.689,3.689,0,0,1,2.48.785,2.747,2.747,0,0,1,.918,2.207v3.664a4.041,4.041,0,0,0,.336,1.82V35Zm-1.867-1.57a1.945,1.945,0,0,0,.922-.223,1.462,1.462,0,0,0,.625-.6V31.156h-.844q-1.7,0-1.8,1.172l-.008.133a.9.9,0,0,0,.3.7A1.153,1.153,0,0,0,73.461,33.43Zm7.625-6.883.07.977a2.951,2.951,0,0,1,2.43-1.133,2.453,2.453,0,0,1,2,.789,3.682,3.682,0,0,1,.672,2.359V35H84V29.594a1.465,1.465,0,0,0-.312-1.043,1.4,1.4,0,0,0-1.039-.324,1.553,1.553,0,0,0-1.43.813V35H78.961V26.547Zm9.586-2.078v2.078h1.445V28.2H90.672v4.219a1.007,1.007,0,0,0,.18.672.9.9,0,0,0,.688.2,3.6,3.6,0,0,0,.664-.055v1.711a4.648,4.648,0,0,1-1.367.2,2.156,2.156,0,0,1-2.422-2.4V28.2H87.18V26.547h1.234V24.469ZM98.273,35a2.507,2.507,0,0,1-.227-.758,2.732,2.732,0,0,1-2.133.914,3,3,0,0,1-2.059-.719,2.312,2.312,0,0,1-.816-1.812,2.389,2.389,0,0,1,1-2.062,4.915,4.915,0,0,1,2.879-.727h1.039v-.484a1.393,1.393,0,0,0-.3-.937,1.183,1.183,0,0,0-.949-.352,1.345,1.345,0,0,0-.895.273.929.929,0,0,0-.324.75H93.227a2.268,2.268,0,0,1,.453-1.359,3,3,0,0,1,1.281-.98,4.669,4.669,0,0,1,1.859-.355,3.689,3.689,0,0,1,2.48.785,2.747,2.747,0,0,1,.918,2.207v3.664a4.041,4.041,0,0,0,.336,1.82V35Zm-1.867-1.57a1.945,1.945,0,0,0,.922-.223,1.462,1.462,0,0,0,.625-.6V31.156h-.844q-1.7,0-1.8,1.172l-.008.133a.9.9,0,0,0,.3.7A1.153,1.153,0,0,0,96.406,33.43ZM97.266,23h2.461l-2.164,2.422H95.727Zm6.766,3.547.07.977a2.951,2.951,0,0,1,2.43-1.133,2.453,2.453,0,0,1,2,.789,3.682,3.682,0,0,1,.672,2.359V35h-2.258V29.594a1.465,1.465,0,0,0-.312-1.043,1.4,1.4,0,0,0-1.039-.324,1.553,1.553,0,0,0-1.43.813V35h-2.258V26.547ZM114.8,35.156a4.15,4.15,0,0,1-3.027-1.141,4.054,4.054,0,0,1-1.168-3.039v-.219a5.106,5.106,0,0,1,.492-2.277,3.612,3.612,0,0,1,1.395-1.547,3.914,3.914,0,0,1,2.059-.543,3.508,3.508,0,0,1,2.73,1.094,4.444,4.444,0,0,1,1,3.1v.922H112.9a2.1,2.1,0,0,0,.66,1.328,2,2,0,0,0,1.395.5,2.437,2.437,0,0,0,2.039-.945l1.109,1.242a3.389,3.389,0,0,1-1.375,1.121A4.511,4.511,0,0,1,114.8,35.156Zm-.258-6.945a1.411,1.411,0,0,0-1.09.455,2.357,2.357,0,0,0-.535,1.3h3.141v-.181a1.681,1.681,0,0,0-.406-1.165A1.456,1.456,0,0,0,114.547,28.211ZM124.461,35a2.507,2.507,0,0,1-.227-.758,2.732,2.732,0,0,1-2.133.914,3,3,0,0,1-2.059-.719,2.312,2.312,0,0,1-.816-1.812,2.389,2.389,0,0,1,1-2.062,4.915,4.915,0,0,1,2.879-.727h1.039v-.484a1.393,1.393,0,0,0-.3-.937,1.183,1.183,0,0,0-.949-.352,1.345,1.345,0,0,0-.895.273.929.929,0,0,0-.324.75h-2.258a2.268,2.268,0,0,1,.453-1.359,3,3,0,0,1,1.281-.98,4.669,4.669,0,0,1,1.859-.355,3.689,3.689,0,0,1,2.48.785,2.747,2.747,0,0,1,.918,2.207v3.664a4.041,4.041,0,0,0,.336,1.82V35Zm-1.867-1.57a1.945,1.945,0,0,0,.922-.223,1.462,1.462,0,0,0,.625-.6V31.156H123.3q-1.7,0-1.8,1.172l-.008.133a.9.9,0,0,0,.3.7A1.153,1.153,0,0,0,122.594,33.43Z" transform="translate(1017 934)" fill="#12263f"/>
    <rect id="Rectángulo_392709-8" data-name="Rectángulo 392709" width="216" height="89" rx="10" transform="translate(994 1077)" fill="#566368"/>
    <g id="Rectángulo_392710-8" data-name="Rectángulo 392710" transform="translate(1001 1084)" fill="none" stroke="#fff" stroke-width="2">
      <rect width="202" height="75" rx="10" stroke="none"/>
      <rect x="1" y="1" width="200" height="73" rx="9" fill="none"/>
    </g>
    <path id="Trazado_1242407" data-name="Trazado 1242407" d="M64.129,3.625h2.344V11.5a3.766,3.766,0,0,1-.48,1.918A3.261,3.261,0,0,1,64.637,14.7a4.235,4.235,0,0,1-1.977.453,4.025,4.025,0,0,1-2.812-.918,3.335,3.335,0,0,1-1.008-2.6H61.2a1.829,1.829,0,0,0,.352,1.234,1.407,1.407,0,0,0,1.109.4,1.343,1.343,0,0,0,1.07-.461,1.948,1.948,0,0,0,.4-1.312Zm9.266,10.516a2.831,2.831,0,0,1-2.312,1.016,2.67,2.67,0,0,1-2.074-.781,3.335,3.335,0,0,1-.73-2.289V6.547h2.258v5.467q0,1.322,1.2,1.322a1.63,1.63,0,0,0,1.578-.8V6.547h2.266V15H73.457Zm7.781,1.016a4.15,4.15,0,0,1-3.027-1.141,4.054,4.054,0,0,1-1.168-3.039v-.219a5.106,5.106,0,0,1,.492-2.277,3.612,3.612,0,0,1,1.395-1.547,3.914,3.914,0,0,1,2.059-.543,3.508,3.508,0,0,1,2.73,1.094,4.444,4.444,0,0,1,1,3.1v.922H79.27a2.1,2.1,0,0,0,.66,1.328,2,2,0,0,0,1.395.5,2.437,2.437,0,0,0,2.039-.945l1.109,1.242A3.389,3.389,0,0,1,83.1,14.754,4.511,4.511,0,0,1,81.176,15.156Zm-.258-6.945a1.411,1.411,0,0,0-1.09.455,2.357,2.357,0,0,0-.535,1.3h3.141V9.788a1.681,1.681,0,0,0-.406-1.165A1.456,1.456,0,0,0,80.918,8.211Zm4.688,2.5a4.954,4.954,0,0,1,.926-3.133,3,3,0,0,1,2.5-1.187,2.631,2.631,0,0,1,2.164.953l.094-.8h2.047v8.172a3.613,3.613,0,0,1-.5,1.93A3.236,3.236,0,0,1,91.41,17.9a4.985,4.985,0,0,1-2.141.43,4.635,4.635,0,0,1-1.812-.371A3.217,3.217,0,0,1,86.121,17l1-1.375a2.645,2.645,0,0,0,2.047.945,1.936,1.936,0,0,0,1.4-.48,1.8,1.8,0,0,0,.5-1.363v-.453a2.612,2.612,0,0,1-2.055.883,2.992,2.992,0,0,1-2.465-1.191,4.953,4.953,0,0,1-.941-3.16Zm2.258.168a3.085,3.085,0,0,0,.461,1.8,1.466,1.466,0,0,0,1.266.653,1.568,1.568,0,0,0,1.477-.775V9a1.564,1.564,0,0,0-1.461-.775,1.476,1.476,0,0,0-1.277.665A3.477,3.477,0,0,0,87.863,10.879Zm6.852-.184A5.013,5.013,0,0,1,95.2,8.453,3.546,3.546,0,0,1,96.594,6.93a4.069,4.069,0,0,1,2.113-.539A3.849,3.849,0,0,1,101.5,7.438a4.2,4.2,0,0,1,1.207,2.844l.016.578a4.418,4.418,0,0,1-1.086,3.121,4.209,4.209,0,0,1-5.832,0,4.5,4.5,0,0,1-1.09-3.187Zm2.258.16a3.16,3.16,0,0,0,.453,1.843,1.628,1.628,0,0,0,2.578.008,3.457,3.457,0,0,0,.461-2.015A3.128,3.128,0,0,0,100,8.86a1.5,1.5,0,0,0-1.3-.649,1.474,1.474,0,0,0-1.281.646A3.516,3.516,0,0,0,96.973,10.856Zm11.719,1.808a.727.727,0,0,0-.41-.652,4.659,4.659,0,0,0-1.316-.426q-3.016-.633-3.016-2.562a2.323,2.323,0,0,1,.934-1.879,3.766,3.766,0,0,1,2.441-.754,4.053,4.053,0,0,1,2.574.758,2.388,2.388,0,0,1,.965,1.969h-2.258a1.092,1.092,0,0,0-.312-.8A1.322,1.322,0,0,0,107.316,8a1.351,1.351,0,0,0-.883.258.814.814,0,0,0-.312.656.7.7,0,0,0,.355.605,3.657,3.657,0,0,0,1.2.4,9.8,9.8,0,0,1,1.422.379,2.336,2.336,0,0,1,1.789,2.273,2.2,2.2,0,0,1-.992,1.871,4.28,4.28,0,0,1-2.562.715,4.47,4.47,0,0,1-1.887-.379,3.166,3.166,0,0,1-1.293-1.039,2.414,2.414,0,0,1-.469-1.426h2.141a1.179,1.179,0,0,0,.445.922,1.766,1.766,0,0,0,1.109.32,1.635,1.635,0,0,0,.98-.246A.766.766,0,0,0,108.691,12.664ZM42.785,30.711a5.094,5.094,0,0,1,.887-3.148A2.877,2.877,0,0,1,46.1,26.391a2.589,2.589,0,0,1,2.039.922V23H50.4V35H48.363l-.109-.9a2.657,2.657,0,0,1-2.172,1.055,2.869,2.869,0,0,1-2.395-1.176A5.258,5.258,0,0,1,42.785,30.711Zm2.258.168a3.337,3.337,0,0,0,.414,1.823,1.349,1.349,0,0,0,1.2.634,1.511,1.511,0,0,0,1.477-.884V29.111a1.489,1.489,0,0,0-1.461-.884Q45.043,28.227,45.043,30.879ZM54.535,35H52.27V26.547h2.266Zm-2.4-10.641a1.112,1.112,0,0,1,.34-.836,1.465,1.465,0,0,1,1.848,0,1.193,1.193,0,0,1,0,1.68,1.448,1.448,0,0,1-1.836,0A1.108,1.108,0,0,1,52.137,24.359Zm8.836,8.3a.727.727,0,0,0-.41-.652,4.659,4.659,0,0,0-1.316-.426q-3.016-.633-3.016-2.562a2.323,2.323,0,0,1,.934-1.879,3.766,3.766,0,0,1,2.441-.754,4.053,4.053,0,0,1,2.574.758,2.388,2.388,0,0,1,.965,1.969H60.887a1.092,1.092,0,0,0-.312-.8A1.322,1.322,0,0,0,59.6,28a1.351,1.351,0,0,0-.883.258.814.814,0,0,0-.312.656.7.7,0,0,0,.355.605,3.657,3.657,0,0,0,1.2.4,9.8,9.8,0,0,1,1.422.379,2.336,2.336,0,0,1,1.789,2.273,2.205,2.205,0,0,1-.992,1.871,4.28,4.28,0,0,1-2.562.715,4.47,4.47,0,0,1-1.887-.379,3.166,3.166,0,0,1-1.293-1.039,2.414,2.414,0,0,1-.469-1.426h2.141a1.179,1.179,0,0,0,.445.922,1.766,1.766,0,0,0,1.109.32,1.635,1.635,0,0,0,.98-.246A.766.766,0,0,0,60.973,32.664Zm6.352-8.2v2.078H68.77V28.2H67.324v4.219a1.007,1.007,0,0,0,.18.672.9.9,0,0,0,.688.2,3.6,3.6,0,0,0,.664-.055v1.711a4.648,4.648,0,0,1-1.367.2,2.156,2.156,0,0,1-2.422-2.4V28.2H63.832V26.547h1.234V24.469Zm7.453,4.2a6.134,6.134,0,0,0-.812-.062,1.654,1.654,0,0,0-1.68.867V35H70.027V26.547H72.16l.063,1.008a2.092,2.092,0,0,1,1.883-1.164,2.366,2.366,0,0,1,.7.1ZM78.246,35H75.98V26.547h2.266Zm-2.4-10.641a1.112,1.112,0,0,1,.34-.836,1.465,1.465,0,0,1,1.848,0,1.193,1.193,0,0,1,0,1.68,1.448,1.448,0,0,1-1.836,0A1.108,1.108,0,0,1,75.848,24.359Zm11.875,6.492a5.119,5.119,0,0,1-.867,3.168,2.872,2.872,0,0,1-2.422,1.137,2.639,2.639,0,0,1-2.2-1.055l-.1.9H80.105V23h2.258v4.3a2.571,2.571,0,0,1,2.055-.914,2.9,2.9,0,0,1,2.426,1.137,5.126,5.126,0,0,1,.879,3.2Zm-2.258-.164a3.363,3.363,0,0,0-.406-1.871,1.374,1.374,0,0,0-1.211-.59,1.489,1.489,0,0,0-1.484.883v3.336a1.509,1.509,0,0,0,1.5.891A1.394,1.394,0,0,0,85.3,32.258,5.562,5.562,0,0,0,85.465,30.688Zm8.711,3.453a2.831,2.831,0,0,1-2.312,1.016,2.67,2.67,0,0,1-2.074-.781,3.335,3.335,0,0,1-.73-2.289V26.547h2.258v5.467q0,1.322,1.2,1.322a1.63,1.63,0,0,0,1.578-.8V26.547h2.266V35H94.238Zm6.273.859H98.184V26.547h2.266Zm-2.4-10.641a1.112,1.112,0,0,1,.34-.836,1.465,1.465,0,0,1,1.848,0,1.193,1.193,0,0,1,0,1.68,1.448,1.448,0,0,1-1.836,0A1.108,1.108,0,0,1,98.051,24.359Zm3.906,6.352a5.094,5.094,0,0,1,.887-3.148,2.877,2.877,0,0,1,2.426-1.172,2.589,2.589,0,0,1,2.039.922V23h2.266V35h-2.039l-.109-.9a2.657,2.657,0,0,1-2.172,1.055,2.869,2.869,0,0,1-2.395-1.176A5.258,5.258,0,0,1,101.957,30.711Zm2.258.168a3.337,3.337,0,0,0,.414,1.823,1.349,1.349,0,0,0,1.2.634,1.511,1.511,0,0,0,1.477-.884V29.111a1.489,1.489,0,0,0-1.461-.884Q104.215,28.227,104.215,30.879Zm6.758-.184a5.013,5.013,0,0,1,.484-2.242,3.546,3.546,0,0,1,1.395-1.523,4.069,4.069,0,0,1,2.113-.539,3.849,3.849,0,0,1,2.793,1.047,4.2,4.2,0,0,1,1.207,2.844l.016.578a4.418,4.418,0,0,1-1.086,3.121,4.209,4.209,0,0,1-5.832,0,4.5,4.5,0,0,1-1.09-3.187Zm2.258.16a3.16,3.16,0,0,0,.453,1.843,1.628,1.628,0,0,0,2.578.008,3.457,3.457,0,0,0,.461-2.015,3.128,3.128,0,0,0-.461-1.831,1.5,1.5,0,0,0-1.3-.649,1.474,1.474,0,0,0-1.281.646A3.516,3.516,0,0,0,113.23,30.856Zm11.719,1.808a.727.727,0,0,0-.41-.652,4.659,4.659,0,0,0-1.316-.426q-3.016-.633-3.016-2.562a2.323,2.323,0,0,1,.934-1.879,3.766,3.766,0,0,1,2.441-.754,4.053,4.053,0,0,1,2.574.758,2.388,2.388,0,0,1,.965,1.969h-2.258a1.092,1.092,0,0,0-.312-.8,1.322,1.322,0,0,0-.977-.316,1.351,1.351,0,0,0-.883.258.814.814,0,0,0-.312.656.7.7,0,0,0,.355.605,3.657,3.657,0,0,0,1.2.4,9.8,9.8,0,0,1,1.422.379,2.336,2.336,0,0,1,1.789,2.273,2.2,2.2,0,0,1-.992,1.871,4.28,4.28,0,0,1-2.562.715,4.47,4.47,0,0,1-1.887-.379,3.166,3.166,0,0,1-1.293-1.039,2.414,2.414,0,0,1-.469-1.426h2.141a1.179,1.179,0,0,0,.445.922,1.766,1.766,0,0,0,1.109.32,1.635,1.635,0,0,0,.98-.246A.766.766,0,0,0,124.949,32.664Z" transform="translate(1017 1102)" fill="#fff"/>
    <line id="Línea_3594" data-name="Línea 3594" x2="78" transform="translate(606.5 953.5)" fill="none" stroke="#707070" stroke-linecap="round" stroke-width="2" stroke-dasharray="0 4"/>
    <path id="Polígono_14" data-name="Polígono 14" d="M4.5,0,9,11H0Z" transform="translate(691 949) rotate(90)" fill="#636363"/>
    <line id="Línea_3594-2" data-name="Línea 3594" x2="78" transform="translate(606.5 1121.5)" fill="none" stroke="#707070" stroke-linecap="round" stroke-width="2" stroke-dasharray="0 4"/>
    <path id="Polígono_14-2" data-name="Polígono 14" d="M4.5,0,9,11H0Z" transform="translate(691 1117) rotate(90)" fill="#636363"/>
    <line id="Línea_3594-3" data-name="Línea 3594" x2="78" transform="translate(606.5 1288.5)" fill="none" stroke="#707070" stroke-linecap="round" stroke-width="2" stroke-dasharray="0 4"/>
    <path id="Polígono_14-3" data-name="Polígono 14" d="M4.5,0,9,11H0Z" transform="translate(691 1284) rotate(90)" fill="#636363"/>
    <line id="Línea_3594-4" data-name="Línea 3594" x2="78" transform="translate(908 953.5)" fill="none" stroke="#707070" stroke-linecap="round" stroke-width="2" stroke-dasharray="0 4"/>
    <path id="Polígono_14-4" data-name="Polígono 14" d="M4.5,0,9,11H0Z" transform="translate(992.5 949) rotate(90)" fill="#636363"/>
    <line id="Línea_3594-5" data-name="Línea 3594" x2="78" transform="translate(908 1121.5)" fill="none" stroke="#707070" stroke-linecap="round" stroke-width="2" stroke-dasharray="0 4"/>
    <path id="Polígono_14-5" data-name="Polígono 14" d="M4.5,0,9,11H0Z" transform="translate(992.5 1117) rotate(90)" fill="#636363"/>
    <path id="Trazado_847526" data-name="Trazado 847526" d="M-11792-8433v39.333h-606.2v37.4" transform="translate(12894 9431)" fill="none" stroke="#707070" stroke-linecap="round" stroke-width="2" stroke-dasharray="0 4"/>
    <path id="Trazado_847527" data-name="Trazado 847527" d="M-11792-8433v39.333h-606.2v37.4" transform="translate(12894 9600)" fill="none" stroke="#707070" stroke-linecap="round" stroke-width="2" stroke-dasharray="0 4"/>
    <path id="Polígono_15" data-name="Polígono 15" d="M4.5,0,9,11H0Z" transform="translate(500 1075) rotate(180)" fill="#636363"/>
    <path id="Polígono_16" data-name="Polígono 16" d="M4.5,0,9,11H0Z" transform="translate(500 1244) rotate(180)" fill="#636363"/>
  </g>
</svg>
