<svg xmlns="http://www.w3.org/2000/svg" width="141" height="141" viewBox="0 0 141 141">
  <g id="Grupo_1045287" data-name="Grupo 1045287" transform="translate(-362 -4387.667)">
    <circle id="Elipse_8460" data-name="Elipse 8460" cx="70.5" cy="70.5" r="70.5" transform="translate(362 4387.667)" fill="#5573c6" opacity="0.58"/>
    <circle id="Elipse_8461" data-name="Elipse 8461" cx="61.5" cy="61.5" r="61.5" transform="translate(371 4397)" fill="#fff"/>
    <g id="network-2" transform="translate(397 4423)">
      <g id="Grupo_1045284" data-name="Grupo 1045284">
        <path id="Trazado_847504" data-name="Trazado 847504" d="M200.023,48.351h-9.108a3.42,3.42,0,0,1-3.416-3.416V18.75h15.939V44.935A3.419,3.419,0,0,1,200.023,48.351Z" transform="translate(-141.959 -14.196)" fill="#f4a338"/>
        <path id="Trazado_847505" data-name="Trazado 847505" d="M125.023,48.351h-9.108a3.42,3.42,0,0,1-3.415-3.416V18.75h15.939V44.935A3.42,3.42,0,0,1,125.023,48.351Z" transform="translate(-85.176 -14.196)" fill="#f4a338"/>
        <path id="Trazado_847506" data-name="Trazado 847506" d="M50.024,48.351H40.916A3.42,3.42,0,0,1,37.5,44.935V18.75H53.44V44.935A3.42,3.42,0,0,1,50.024,48.351Z" transform="translate(-28.393 -14.196)" fill="#f4a338"/>
        <path id="Trazado_847507" data-name="Trazado 847507" d="M33.417,194.465v-2.277H14.063v15.939H39.11V192.188H35.694v2.277h1.139V205.85H16.34V194.465Z" transform="translate(-10.647 -145.51)" fill="#333"/>
        <path id="Trazado_847508" data-name="Trazado 847508" d="M67.171,43.263H55.786V38.709h6.831a3.42,3.42,0,0,0,3.415-3.416V3.416A3.419,3.419,0,0,0,62.617,0H7.969A3.42,3.42,0,0,0,4.554,3.416V35.293a3.42,3.42,0,0,0,3.415,3.416H14.8v4.554H3.416A3.419,3.419,0,0,0,0,46.678V62.617a3.42,3.42,0,0,0,3.415,3.416h6.831V68.31H7.969v2.277H23.908V68.31H21.631V66.033h6.831a3.42,3.42,0,0,0,3.416-3.416V46.678a3.42,3.42,0,0,0-3.416-3.416H17.078V38.709H53.509v4.554H42.124a3.42,3.42,0,0,0-3.416,3.416V62.617a3.42,3.42,0,0,0,3.416,3.416h6.831V68.31H46.678v2.277H62.617V68.31H60.34V66.033h6.831a3.42,3.42,0,0,0,3.416-3.416V46.678A3.42,3.42,0,0,0,67.171,43.263ZM19.355,68.309H12.524V66.032h6.831ZM29.6,46.678V62.617a1.139,1.139,0,0,1-1.139,1.139H3.416a1.139,1.139,0,0,1-1.138-1.139V46.678A1.139,1.139,0,0,1,3.416,45.54H28.462A1.139,1.139,0,0,1,29.6,46.678ZM7.97,36.432a1.139,1.139,0,0,1-1.138-1.139V3.416A1.139,1.139,0,0,1,7.97,2.277H62.617a1.139,1.139,0,0,1,1.139,1.139V35.293a1.139,1.139,0,0,1-1.139,1.139H7.97ZM58.063,68.309H51.232V66.032h6.831ZM68.31,62.617a1.139,1.139,0,0,1-1.139,1.139H42.124a1.139,1.139,0,0,1-1.139-1.139V46.678a1.139,1.139,0,0,1,1.139-1.139H67.171a1.139,1.139,0,0,1,1.139,1.139Z" fill="#333"/>
        <path id="Trazado_847509" data-name="Trazado 847509" d="M195.068,194.465h1.138V205.85H175.714V194.465h17.078v-2.277H173.437v15.939h25.047V192.188h-3.415Z" transform="translate(-131.313 -145.51)" fill="#333"/>
        <path id="Trazado_847510" data-name="Trazado 847510" d="M206.116,89.063a4.554,4.554,0,1,0,4.554,4.554A4.558,4.558,0,0,0,206.116,89.063Zm0,6.831a2.277,2.277,0,1,1,2.277-2.277A2.279,2.279,0,0,1,206.116,95.894Z" transform="translate(-152.607 -67.432)" fill="#333"/>
        <rect id="Rectángulo_392683" data-name="Rectángulo 392683" width="2.277" height="10.247" transform="translate(54.648 9.108)" fill="#333"/>
        <rect id="Rectángulo_392684" data-name="Rectángulo 392684" width="2.277" height="10.247" transform="translate(50.094 9.108)" fill="#333"/>
        <path id="Trazado_847511" data-name="Trazado 847511" d="M131.117,89.063a4.554,4.554,0,1,0,4.554,4.554A4.558,4.558,0,0,0,131.117,89.063Zm0,6.831a2.277,2.277,0,1,1,2.277-2.277A2.279,2.279,0,0,1,131.117,95.894Z" transform="translate(-95.824 -67.432)" fill="#333"/>
        <rect id="Rectángulo_392685" data-name="Rectángulo 392685" width="2.277" height="10.247" transform="translate(36.432 9.108)" fill="#333"/>
        <rect id="Rectángulo_392686" data-name="Rectángulo 392686" width="2.277" height="10.247" transform="translate(31.878 9.108)" fill="#333"/>
        <path id="Trazado_847512" data-name="Trazado 847512" d="M56.117,89.063a4.554,4.554,0,1,0,4.554,4.554A4.558,4.558,0,0,0,56.117,89.063Zm0,6.831a2.277,2.277,0,1,1,2.277-2.277A2.279,2.279,0,0,1,56.117,95.894Z" transform="translate(-39.039 -67.432)" fill="#333"/>
        <rect id="Rectángulo_392687" data-name="Rectángulo 392687" width="2.277" height="10.247" transform="translate(18.216 9.108)" fill="#333"/>
        <rect id="Rectángulo_392688" data-name="Rectángulo 392688" width="2.277" height="10.247" transform="translate(13.662 9.108)" fill="#333"/>
      </g>
    </g>
  </g>
</svg>
